<mxfile host="app.diagrams.net" modified="2023-05-23T12:51:52.935Z" agent="Mozilla/5.0 (Windows NT 10.0; Win64; x64) AppleWebKit/537.36 (KHTML, like Gecko) Chrome/110.0.0.0 YaBrowser/23.3.4.603 Yowser/2.5 Safari/537.36" etag="xei-xMWUSi1uNfQ1itfq" version="21.3.2" type="device">
  <diagram id="Mp6EX0zw15jg7V4JTqnl" name="Страница 1">
    <mxGraphModel dx="1313" dy="691" grid="0" gridSize="10" guides="1" tooltips="1" connect="1" arrows="1" fold="1" page="1" pageScale="1" pageWidth="827" pageHeight="1169" math="0" shadow="0">
      <root>
        <mxCell id="0" />
        <mxCell id="1" parent="0" />
        <mxCell id="oBENtW7HLAH5KyI_KPy3-30" style="rounded=0;orthogonalLoop=1;jettySize=auto;html=1;entryX=0;entryY=0.5;entryDx=0;entryDy=0;strokeColor=#000000;endArrow=none;endFill=0;" parent="1" source="nAo34qjzwIScVrsT8tOc-1" target="oBENtW7HLAH5KyI_KPy3-22" edge="1">
          <mxGeometry relative="1" as="geometry" />
        </mxCell>
        <mxCell id="oBENtW7HLAH5KyI_KPy3-31" style="edgeStyle=none;rounded=0;orthogonalLoop=1;jettySize=auto;html=1;entryX=0;entryY=0.5;entryDx=0;entryDy=0;strokeColor=#000000;endArrow=none;endFill=0;" parent="1" source="nAo34qjzwIScVrsT8tOc-1" target="oBENtW7HLAH5KyI_KPy3-24" edge="1">
          <mxGeometry relative="1" as="geometry" />
        </mxCell>
        <mxCell id="oBENtW7HLAH5KyI_KPy3-32" style="edgeStyle=none;rounded=0;orthogonalLoop=1;jettySize=auto;html=1;entryX=0;entryY=0.5;entryDx=0;entryDy=0;strokeColor=#000000;endArrow=none;endFill=0;" parent="1" source="nAo34qjzwIScVrsT8tOc-1" target="oBENtW7HLAH5KyI_KPy3-23" edge="1">
          <mxGeometry relative="1" as="geometry" />
        </mxCell>
        <mxCell id="oBENtW7HLAH5KyI_KPy3-33" style="edgeStyle=none;rounded=0;orthogonalLoop=1;jettySize=auto;html=1;entryX=0;entryY=0.5;entryDx=0;entryDy=0;strokeColor=#000000;endArrow=none;endFill=0;" parent="1" source="nAo34qjzwIScVrsT8tOc-1" target="oBENtW7HLAH5KyI_KPy3-25" edge="1">
          <mxGeometry relative="1" as="geometry" />
        </mxCell>
        <mxCell id="nAo34qjzwIScVrsT8tOc-1" value="Guest" style="shape=umlActor;verticalLabelPosition=bottom;verticalAlign=top;html=1;outlineConnect=0;strokeColor=#000000;strokeWidth=1;" parent="1" vertex="1">
          <mxGeometry x="103" y="148" width="30" height="60" as="geometry" />
        </mxCell>
        <mxCell id="oBENtW7HLAH5KyI_KPy3-41" style="edgeStyle=none;rounded=0;orthogonalLoop=1;jettySize=auto;html=1;entryX=1;entryY=0.5;entryDx=0;entryDy=0;strokeColor=#000000;endArrow=none;endFill=0;" parent="1" source="nAo34qjzwIScVrsT8tOc-3" target="oBENtW7HLAH5KyI_KPy3-24" edge="1">
          <mxGeometry relative="1" as="geometry" />
        </mxCell>
        <mxCell id="oBENtW7HLAH5KyI_KPy3-42" style="edgeStyle=none;rounded=0;orthogonalLoop=1;jettySize=auto;html=1;entryX=1;entryY=0.5;entryDx=0;entryDy=0;strokeColor=#000000;endArrow=none;endFill=0;" parent="1" source="nAo34qjzwIScVrsT8tOc-3" target="oBENtW7HLAH5KyI_KPy3-23" edge="1">
          <mxGeometry relative="1" as="geometry" />
        </mxCell>
        <mxCell id="oBENtW7HLAH5KyI_KPy3-43" style="edgeStyle=none;rounded=0;orthogonalLoop=1;jettySize=auto;html=1;entryX=1;entryY=0.5;entryDx=0;entryDy=0;strokeColor=#000000;endArrow=none;endFill=0;" parent="1" source="nAo34qjzwIScVrsT8tOc-3" target="oBENtW7HLAH5KyI_KPy3-25" edge="1">
          <mxGeometry relative="1" as="geometry" />
        </mxCell>
        <mxCell id="oBENtW7HLAH5KyI_KPy3-50" style="edgeStyle=none;rounded=0;orthogonalLoop=1;jettySize=auto;html=1;entryX=0;entryY=0.5;entryDx=0;entryDy=0;strokeColor=#000000;endArrow=none;endFill=0;" parent="1" source="nAo34qjzwIScVrsT8tOc-3" target="oBENtW7HLAH5KyI_KPy3-45" edge="1">
          <mxGeometry relative="1" as="geometry" />
        </mxCell>
        <mxCell id="oBENtW7HLAH5KyI_KPy3-51" style="edgeStyle=none;rounded=0;orthogonalLoop=1;jettySize=auto;html=1;entryX=0;entryY=0.5;entryDx=0;entryDy=0;strokeColor=#000000;endArrow=none;endFill=0;" parent="1" source="nAo34qjzwIScVrsT8tOc-3" target="oBENtW7HLAH5KyI_KPy3-46" edge="1">
          <mxGeometry relative="1" as="geometry" />
        </mxCell>
        <mxCell id="oBENtW7HLAH5KyI_KPy3-53" style="edgeStyle=none;rounded=0;orthogonalLoop=1;jettySize=auto;html=1;entryX=0;entryY=0.5;entryDx=0;entryDy=0;strokeColor=#000000;endArrow=none;endFill=0;" parent="1" source="nAo34qjzwIScVrsT8tOc-3" target="oBENtW7HLAH5KyI_KPy3-48" edge="1">
          <mxGeometry relative="1" as="geometry" />
        </mxCell>
        <mxCell id="oBENtW7HLAH5KyI_KPy3-54" style="edgeStyle=none;rounded=0;orthogonalLoop=1;jettySize=auto;html=1;entryX=0;entryY=0.5;entryDx=0;entryDy=0;strokeColor=#000000;endArrow=none;endFill=0;" parent="1" source="nAo34qjzwIScVrsT8tOc-3" target="oBENtW7HLAH5KyI_KPy3-47" edge="1">
          <mxGeometry relative="1" as="geometry" />
        </mxCell>
        <mxCell id="oBENtW7HLAH5KyI_KPy3-55" style="edgeStyle=none;rounded=0;orthogonalLoop=1;jettySize=auto;html=1;entryX=0;entryY=0.5;entryDx=0;entryDy=0;strokeColor=#000000;endArrow=none;endFill=0;" parent="1" source="nAo34qjzwIScVrsT8tOc-3" target="oBENtW7HLAH5KyI_KPy3-49" edge="1">
          <mxGeometry relative="1" as="geometry" />
        </mxCell>
        <mxCell id="nAo34qjzwIScVrsT8tOc-3" value="Administrator" style="shape=umlActor;verticalLabelPosition=bottom;verticalAlign=top;html=1;outlineConnect=0;strokeWidth=1;strokeColor=#000000;" parent="1" vertex="1">
          <mxGeometry x="454" y="208" width="30" height="60" as="geometry" />
        </mxCell>
        <mxCell id="oBENtW7HLAH5KyI_KPy3-22" value="Регистрация" style="ellipse;whiteSpace=wrap;html=1;rounded=1;strokeColor=#000000;" parent="1" vertex="1">
          <mxGeometry x="245.5" y="55" width="106" height="53" as="geometry" />
        </mxCell>
        <mxCell id="oBENtW7HLAH5KyI_KPy3-23" value="Просматривать каталог книг" style="ellipse;whiteSpace=wrap;html=1;rounded=1;strokeColor=#000000;" parent="1" vertex="1">
          <mxGeometry x="244" y="208" width="114" height="69" as="geometry" />
        </mxCell>
        <mxCell id="oBENtW7HLAH5KyI_KPy3-24" value="Осуществлять поиск по книгам" style="ellipse;whiteSpace=wrap;html=1;rounded=1;strokeColor=#000000;" parent="1" vertex="1">
          <mxGeometry x="244" y="134.5" width="112" height="57" as="geometry" />
        </mxCell>
        <mxCell id="oBENtW7HLAH5KyI_KPy3-25" value="Смотреть информацию о книге" style="ellipse;whiteSpace=wrap;html=1;rounded=1;strokeColor=#000000;" parent="1" vertex="1">
          <mxGeometry x="253" y="290" width="103" height="66" as="geometry" />
        </mxCell>
        <mxCell id="oBENtW7HLAH5KyI_KPy3-34" style="edgeStyle=none;rounded=0;orthogonalLoop=1;jettySize=auto;html=1;entryX=0.003;entryY=0.659;entryDx=0;entryDy=0;entryPerimeter=0;strokeColor=#000000;endArrow=none;endFill=0;" parent="1" source="oBENtW7HLAH5KyI_KPy3-27" target="oBENtW7HLAH5KyI_KPy3-24" edge="1">
          <mxGeometry relative="1" as="geometry" />
        </mxCell>
        <mxCell id="oBENtW7HLAH5KyI_KPy3-35" style="edgeStyle=none;rounded=0;orthogonalLoop=1;jettySize=auto;html=1;entryX=0;entryY=0.5;entryDx=0;entryDy=0;strokeColor=#000000;endArrow=none;endFill=0;" parent="1" source="oBENtW7HLAH5KyI_KPy3-27" target="oBENtW7HLAH5KyI_KPy3-23" edge="1">
          <mxGeometry relative="1" as="geometry" />
        </mxCell>
        <mxCell id="oBENtW7HLAH5KyI_KPy3-36" style="edgeStyle=none;rounded=0;orthogonalLoop=1;jettySize=auto;html=1;entryX=0;entryY=0.5;entryDx=0;entryDy=0;strokeColor=#000000;endArrow=none;endFill=0;" parent="1" source="oBENtW7HLAH5KyI_KPy3-27" target="oBENtW7HLAH5KyI_KPy3-25" edge="1">
          <mxGeometry relative="1" as="geometry" />
        </mxCell>
        <mxCell id="oBENtW7HLAH5KyI_KPy3-39" style="edgeStyle=none;rounded=0;orthogonalLoop=1;jettySize=auto;html=1;entryX=0;entryY=0.5;entryDx=0;entryDy=0;strokeColor=#000000;endArrow=none;endFill=0;" parent="1" source="oBENtW7HLAH5KyI_KPy3-27" target="oBENtW7HLAH5KyI_KPy3-37" edge="1">
          <mxGeometry relative="1" as="geometry" />
        </mxCell>
        <mxCell id="oBENtW7HLAH5KyI_KPy3-40" style="edgeStyle=none;rounded=0;orthogonalLoop=1;jettySize=auto;html=1;entryX=0;entryY=0.5;entryDx=0;entryDy=0;strokeColor=#000000;endArrow=none;endFill=0;" parent="1" source="oBENtW7HLAH5KyI_KPy3-27" target="oBENtW7HLAH5KyI_KPy3-38" edge="1">
          <mxGeometry relative="1" as="geometry" />
        </mxCell>
        <mxCell id="oBENtW7HLAH5KyI_KPy3-27" value="User" style="shape=umlActor;verticalLabelPosition=bottom;verticalAlign=top;html=1;outlineConnect=0;strokeColor=#000000;strokeWidth=1;" parent="1" vertex="1">
          <mxGeometry x="103" y="332" width="30" height="60" as="geometry" />
        </mxCell>
        <mxCell id="oBENtW7HLAH5KyI_KPy3-37" value="Оформлять заказ" style="ellipse;whiteSpace=wrap;html=1;rounded=1;strokeColor=#000000;strokeWidth=1;" parent="1" vertex="1">
          <mxGeometry x="257" y="372" width="99" height="51" as="geometry" />
        </mxCell>
        <mxCell id="oBENtW7HLAH5KyI_KPy3-38" value="Авторизация на сайте" style="ellipse;whiteSpace=wrap;html=1;rounded=1;strokeColor=#000000;strokeWidth=1;" parent="1" vertex="1">
          <mxGeometry x="246.5" y="439" width="116" height="54" as="geometry" />
        </mxCell>
        <mxCell id="oBENtW7HLAH5KyI_KPy3-45" value="Смотреть информацию заказах" style="ellipse;whiteSpace=wrap;html=1;rounded=1;strokeColor=#000000;strokeWidth=1;" parent="1" vertex="1">
          <mxGeometry x="604" y="70" width="114" height="70" as="geometry" />
        </mxCell>
        <mxCell id="oBENtW7HLAH5KyI_KPy3-46" value="Вносить изменения в БД о книгах" style="ellipse;whiteSpace=wrap;html=1;rounded=1;strokeColor=#000000;strokeWidth=1;spacingTop=7;spacingLeft=3;spacingRight=3;" parent="1" vertex="1">
          <mxGeometry x="597" y="160" width="128" height="70" as="geometry" />
        </mxCell>
        <mxCell id="oBENtW7HLAH5KyI_KPy3-47" value="Указывать наличие книг" style="ellipse;whiteSpace=wrap;html=1;rounded=1;strokeColor=#000000;strokeWidth=1;" parent="1" vertex="1">
          <mxGeometry x="596.5" y="343" width="126" height="66" as="geometry" />
        </mxCell>
        <mxCell id="oBENtW7HLAH5KyI_KPy3-48" value="Просматривать информацию о пользователях" style="ellipse;whiteSpace=wrap;html=1;rounded=1;strokeColor=#000000;strokeWidth=1;" parent="1" vertex="1">
          <mxGeometry x="597" y="249" width="120" height="80" as="geometry" />
        </mxCell>
        <mxCell id="oBENtW7HLAH5KyI_KPy3-49" value="Осуществлять восстановление БД" style="ellipse;whiteSpace=wrap;html=1;rounded=1;strokeColor=#000000;strokeWidth=1;" parent="1" vertex="1">
          <mxGeometry x="594" y="426.5" width="131" height="79" as="geometry" />
        </mxCell>
        <mxCell id="VDZsp3NHWQUmDOP8YFjI-2" value="" style="shape=image;verticalLabelPosition=bottom;labelBackgroundColor=default;verticalAlign=top;aspect=fixed;imageAspect=0;image=data:image/png,iVBORw0KGgoAAAANSUhEUgAAAuAAAAJPCAYAAAA9lGEyAAAgAElEQVR4nOzde1zUZd74/9ccOMgMIIoI5iFCLM+Smq0HNA008VYrrUgzrXX5ybaVtbrFpjc/a3VvvVNrd+km7w7eYbJprZq0all43DwUaaYpKuKJg4gcZobzzPeP2RlnYIAZBAby/Xw8eOB8Dtd1jc2V73l/3p/ro9Dr9SaEEEIIIYQQrULp7gEIIYQQQghxO5EAXAghhBBCiFYkAbgQQgghhBCtSAJwIYQQQgghWpEE4EIIIYQQQrQiCcCFEEIIIYRoRRKACyGEEEII0YokABdCCCGEEKIVSQAuhBBCCCFEK5IAXAghhBBCiFYkAbgQQgghhBCtSAJwIYQQQgghWpEE4EIIIYQQQrQiCcCFEEIIIYRoRRKACyGEEEII0YokABdCCCGEEKIVSQAuhBBCCCFEK5IAXAghhBBCiFYkAbgQQgghhBCtSAJwIYQQQgghWpEE4EIIIYQQQrQiCcCFEEIIIYRoRRKACyGEEEII0YrU7h6AEO2FocpI/JZsKmuM7h6KaANUCvivyT3p5uvh7qG4Vdw/LlBaUePuYYg2Ysn4O+gb5O3uYQjR5kkALoST9JU1VBth67lKdw9FtAGT7/KmuKzmtg/ASytqZE4IAMZ09+Savoq+SAAuRGOkBEUIIYQQQohWJAG4EEIIIYQQrUgCcCGEEEIIIVqRBOBCCCGEEEK0IrkJU4hmZULro2FyuBYvlYKtZ3SU6PTuHpQQbtXB04sJ4f501yr4+6kybpSWgsnk7mEJIYTbSAAuRDNSKpTMucebP47zxVOloIu6mr99X0ZFtSxdKG5fj4R3IPEBDXf4exDiVcPqQyqKK6rdPSwhhHAbCcCFaC4mD56N0PLaOH+C/DUA/CHShFKl4M3DJZhqbmGptu8+gZ0rzX/uMQSiXobgvubXy4fZHzsuHkY+Y3+O5bzIBdBrKOSegvefsj8v4Sh8ughOf3Nz2+Bp5r4Ks83HP/ORefv7T0GnnvBMCnj63OzLdn/ttsXtx6Tm8f4a/jTBnx6BWkwmJb8bGYBSCf+5X4exurzpbWd/B//8ExReNH8WR/8aBkw272vKnHB03jMfwYH3Hc8JgH3r4NBHN/fJ51wI4SSpAReiGfh26MBvhvry+nh/gjr6UmM0UWM0oengyZDO1SiqjWBU4a1WEeQbgIfShe++B983Bw3/32fmf+C7DTQHuLqCm8fc/YB534inID3J/vxnPoLf7zWftyHOHHxbTFxsPq924JBwFGauhmNbzcG3I4UX4cft9Y+7vrbbIIVCgZ/GB6VC4e6h/GL4eHXg8QG+LJ/Qke5d/KiugRqjEW9PDwZ2NkF1NdSo8FIp6erXGS+1C+upZ39n/ixPeNH8+ZrwImxbat5u0dQ5YTkv4ejNL7lQd06cSTcH35Z52Q4+567y0/jgoVK5exhC/CJJAC5EM3i4rx9LIgMI9PejpsaEUqFArYKfr5byQUYZ3XwUBHdQ8eQALesnq5kQ6uN84+lJ5gxep57m12Pmm3+f/rruseUljtvw9Ll53k+7nOu3QvfvczWO9494yvzFoPCic+21YSG+Gl4dF8zdXbXuHsovxvgwX954oCO9Av2oqTZ/yVGrFFwq0LM+w2CeEz4qpt+t5eMYFQ/f7YPC2S9AR1PN2evwSPPr8Ejz66OpdY9t6TmR9S1UGpw7vx3x9e7Aoshghvfyd/dQhPhFkhIUIZpBYAcFAT5qTCYFCoUJk8lIcZmJ4I4a1kzzwYQJL6WCLloVnXxU9Omi48k0Lw5lXXOuAy+bwNDTQfB++publ8+f3+G4Dct5RZdvbtu50vxz9wPw6Kqb2y1tzUo2B/62GUKLruHm89KWQb/ouvvra7stUSjw8erAm5OCmDnQlwk9PZj5yRUuXtchtwjemo7eCrpo1JhQoMAEJiPF5Sb8fDrw+kM9qDaa8FJBZx81XXxV9AkykF/jzdc/5znXgU9Aw6+bOidsz7PNateeE9pAczmK5XM+c/XNLwTtmUKBt6cX/z0xiGeG+TKttyePfFLNufxSTHLjrBDNRjLgQjSDj08YWHPwOvpyA0ZTDemZ15n44UWWf3mNgnIjyQcv08lDT4C2A9UmqKg2YjS68I+ZJfMGjrNtdz9ws/7aUWbc9rwQm8vqljKR2gHy7/eafzvKKNqOaeIf4NIPcOFI3f31td2G9Oqk5X/+oytT+2rJulHJ4BBv/ndaCMN6BCDFKLfmizNlvL6nkMJSPSaFkUMXbvDQ/13ipS05XNXX8F/pl9GYSgn086LGpKCyxoixxoUODDcaft3UOWFbgmKr9pzw9IGYJebg/u4HYNNL9mVh7VRXXw1/jurKnIiOXLxRxV2dPNn4SAiRoZ1QK6UcRYjmIgG4EM0gt6SUlf8q5S/fFvOPH6/x0o5CjlzVccFQw3V9NUdzqrlYAlDJ4QvFzN+ez7GrRc41Pi7eXIZiKfXYt878++7x9scF972ZkasdCFQabp43aGrjfXr6wNRl5mygbV1tbdrAm8e1M32Cg3ljfCCPD/TjRF45z2/P558/lzIu1IflUV24786u7h5iu1aoK+Wd70r574PF/PNkPq98WcihyzrOGaq5bqjmu6uVnC0Ck6mKE1dKeH5HPt9eKHSu8WFPmL/4Zf47KM7ca3497An741pjTmgDoWN358bdxoUGBrJkXCd+M6wjF4srefGLfP5+vJh77/Dmz9FdeCC8i7uHKMQvhpSgCNEcTCZKKypYkp6PQuWFqboCFKDw8kLjpeTI5Upe3XGNt6ZUs+9CBT9eq6ayysll2EY+Y/79P4+Yf/cYYr7xSxtY99ixC8w3iR3aAB1DzNssK5IMnnbzPN2/S18sl8+hbsZvwGTY/7/mlSam/6n+8Q2YbA5K2lkQfn+oH+Pv8uDn/HIWfJ7H91eK+S5Hz4ce3RnRowP/0T+AQxecLIcQDpgwVFWy6mABb3p4Y6wyr3ii8PCgg6cHZwuqeWVHAW971HA8r5rDOVWUV1U513SvoeaSj91rzZnnTj3Nry2rmdhydk5Y2JagPPORfVu2c2L0r803fsLN/h3NyXZkSE9fpvTpwMWiCp7dks+BC4UcvFSKr7eKqN4a/qNfR748nevuYQrxi6DQ6/VS1CWEE67pq1i4/TL/OOv80mkP9evCm9Fd+Mv+PMrKjTzUx5vxd3rx1uFi1v1YTV5xaQuOWDRE49mB6YO7cP66gX+dv5kdvTvYjwfCA/n7dzncMJTVe/7ku7xZNiGEvkHerTHcNuvJ1HNsPef8Epv39erI36Z048MjeegNRsaGejH9Hm/e+76UtRmVXC6UOeEuHTy8eWhAIPqKKnadyrM+KynEvwOPDglhy7F8Lhfp6j1/THdPEiKDiAz1baURC9F+SQZciBZ0pqCSLT8V81CYF2NCO6Dx8UWJiSXj1HybX0hesbtHePvSV5aR+v0VjLVuLDuTV8q5Aj3V1a4UJAtnXSquYuvJEsb28GL8XV74+vqhRMHzIz05eK1QAnA3KqsqZ+vxHEwmk92DSnOKy/ifA9nUyAPFhGg2UgMuRAs6d6OahLRrrNybi15XhlqpoKKigpRjpWTekItP7lZTU4PJaB9UmEwmCb5bUI7OyBtfXeePX+Vwo1iPWgE11ZVsPVnKj9dkTrhbTU0NRmPdQLu6ugaTrA0kRLORAFyIllSlB89KzutUpF0wYqzW8/GxG/znnhtkX7vR+PlC/NJUl4GqjGuVKj47D2Xlej4/eYM/7rlBZq6TN2EKIUQ7JyUoQrSCq6VV/P//KufzrGq+z6vhasktPJZeiF+AorJqVh018M1VIz/fgAsFt/BYeiGEaGckABeilVy9XsTV6+4ehRBtR0GRjh0N3NQnhBC/VFKCIoQQQgghRCuSAFwIIYQQQohWJAG4EEIIIYQQrUgCcCGEEEIIIVqRBOBCCCGEEEK0IgnAhRBCCCGEaEUSgAshhBBCCNGKJAAXQgghhBCiFUkALoQQQgghRCuSAFwIIYQQQohWJAG4EEIIIYQQrUgCcCGEEEIIIVqRBOBCCCGEEEK0IgnAhRBCCCGEaEUSgAshhBBCCNGK1O4egBDtzaCu3iz5lY+7hyHc6O3vywGju4fRZvTq6MF/j/N19zCEG739fTkYq909DCHaDQnAhXDRoK5eRHSS4Ot2FnmnhozLpe4eRpvR089D5sRtLvJODXvPF7t7GEK0G1KCIoQQQgghRCuSAFwIIYQQQohWJAG4EEIIIYQQrUhqwIVoZnt/vs7V6yV227w81IzuG0wXX48W7dtgMJCXl0doaCgGgwGdTkdQUFCL9ilEY/51tojsvBt225QKBb+6J4QenbxavP8TJ04wYMAAALKysggNDW3xPoUQoiESgAvRzLw81SQ8Nd5u25X8Ir47eZ4uvgH1nnfixAnrny3BQlNERUWxYcMGvvnmG/r27cu0adOa3JYQzaFIX15nTpSVV7D56wx6dOpa73lZWVno9XoA7rrrLnx8mrb60BtvvEFsbCwA3377LStWrGhSO0II0VwkABeimRlNRiorKwATANVVlRQV5td7/IkTJ3jxxRcJDAykU6dOACQlJTWpbx8fHzZs2MD69esZOHCgBN+iTTAZa82J6ioKrxfUe3x+fj6JiYmcOXOGPn36ALBo0aImZ65XrFjBu+++C8CSJUua1IYQQjQnCcCFaGYmo5EXX1zIwYMHra/f/7/1Do/Nz8/nxRdfZO3atXWy3vn5+eTn3wzca++3ZAdtt584cYIRI0YwYsQIDAZDncvtljbvuusu8vLyrNlFwFqqUl+flnODgoKkrEW4xISJVatWsWnTZvNro5HNm1LqPf75558nNja2zhdRg8HA+fPnra9rZ8UdzYmsrCy6du1qzXrblqOA/ZzQ6XR2n3+NRoNGo5E5IYRodhKAC9HMaqqrWPraYqoqKzAajVRVlpNXqAM0dY799NNPmTt3rsOSk127dpGYmEh0dDSFhYUApKamYjAYeOaZZ6zHFRQUsG3bNnx8fJg+fTpnz54F4PXXX6e4uNgaxLzzzju8+eabREdHM3DgQAD27NnD0aNHiY6O5tFHHyUnJ8dhn1lZWaxatco6rg0bNjBixIjm+0sTv2jGmhp+/cxTzJk9E1ONkaqqCnS6UkBV59hDhw7RqVMnh1dvzp8/z/Tp04mOjgbMn8WDBw+i1WrrnROrVq0iPj6eAQMGsHXrVl5++WXrHKk9J/r06cOnn37Krl27rNt8fX1lTgghmp0E4EI0s/IyPVcu/Ey5QY8JEyaTCV2VB/jUDcB//PFH4uPj621r2LBhxMfHo9frWbNmDQDr168nNDTUmtFLSUlh/fr1LFiwwHreiRMn8Pf3p7i42Pr6008/5fjx43YZwzFjxpCUlGQN0lNSUhz2GRoaanfM+vXrJdgQTquqquBK9mnKdaUYMYHJhBE1EFLn2MzMTEaOHNlge5Y5YwmInZkTBoOBjRs3WoP3+ubEhAkT6N27t8wJIUSLkgBciGYWEhTEkbwSQGvd5u2hJiLI3+HxtmUgtR09epSkpCQKCwsZMmQIUDdoHzJkiN2leoPBwBtvvMHbb79NYmIiAD/88ANz58516iY2R31mZWUxf/58Lly4wLBhw6y16kI4o39oNw7nFAE3P39KhYJ7wzo7PL60tOGnjNp+3rVabaNzAsxXhBYuXMj69eZyMJkTQgh3kgBciGY2oLsvA7r7OnXsxIkT2bJlS72Zs+joaGsg0bt3b1555RX8/f3Jy8uzlq3o9Xr8/W8G95999hmxsbF2Nam+vr6cOnXKqTE56vPdd9/ld7/7HdOmTePEiRNNvklU3J7uDtZwd3DdK0COjBo1ivnz5/P000/XGxxbPn/x8fGcP3++0Tnxww8/ADBixAhrAC5zQgjhThKAC+FGUVFRbNy4kVdffZVZs2ah1+vZsmWL9VJ6YWEhJ06csMuST58+nVmzZrFhwwYA1qxZw8KFC637t2/fTmpqql0/v/rVr3j55Zfp27cvYWFhaDSaeleUcNQnwKlTpwgLC5NAQ7So0NBQHnzwQZ555hkWLlyIRqNh+/btPP7449ZjLEt2njlzBo1G0+icSExMtN4UbSFzQgjhThKAC+FGPj4+vP/++3z22WckJSXh7+/Pb37zGwBCQkLo1KmT9R/3LVu2AOYsnmWpQYCFCxdaM+jR0dEsWrTI2r7lZsugoCC+/PJL3n33XXbu3MnEiRMJDQ1Fo9FYj2moz9/85je8++67bNiwgfj4ePbt29eSfy3iNvfKK6+we/du62f86aefJjQ0lKysLLts9O9+9ztCQ0MJDQ2td04MHDiQRx991HpFqLE5AVjrxEHmhBCiZSj0er3J3YMQoj24pq9i4fbLaHy8SBymcPdwhBt9cNaDjMulLJsQQt8gb3cPx62eTD1HYZWaDx70dPdQhBt9cNaDveeLSYgMIjLUuRI8IW5nSncPQAghhBBCiNuJBOBCCCGEEEK0IgnAhRBCCCGEaEUSgAshhBBCCNGKJAAXQgghhBCiFckyhEK4SFFewr+f8C5uUzWlCkBW/bBQVxuoqDBRUlKCn5+f/L4Nf5uqHD/VVAjhmATgQrhokHch3boNcPcwhBsNLM7huHwJs7pXmU1IyANotVp8fX3l9234e6Cxkn2X3P1JFKL9kABcCBf5aXzw8/Nr8X5UKhXFxcUYjUbUajUajQaTSZbtbwt8q04BQe4eRpth7BSKl5cXXl5eAPL7Nvzt/f0uIAwhhHMkABeiDVIoFBw9epRt27ZRVFRESEgIjz/+OL169XL30ASgDuwJl8rdPYw2Q1t6Ebjb3cMQbtThntGQk+PuYQjRbkgALkQbdPbsWf72tyRyc3NQq9WcOXOGqqoqnnvuOfz9/d09vNtedcFFJAN+k863Z4v3UVVVxa5du9i1axcVFRUMGzaMxx9/nK5du1JWViZXh9ys7Of9SAZcCOdJAC5EG5Sbm8vx4z8yd+4cpkyJ4S9/+SvHj/+IwWBwGICnpaUxdOhQgoODSUtL4/LlywD4+/szbtw4goODG+0zMzOTr7/+GoDx48cTHh5u176lze7duxMTE2Pdl5ycbP1z9+7dGTt2LFqt1uF+gLi4OHJzc9m6dat127Rp05waY1shGXB7LZ0BN5lMbNu2jY8//hiDwcCAAQMYPnw4vr6+lJaW4u3tTVVVld05GRkZAERERJCRkcHhw4et+2p/vuuTm5tLeno6xcXF9OvXjzFjxti1b2nT39+fKVOmWD/3jc3BpswJ2/lZew62BZIBF8I1sgyhEG2Q0WhEpVKi1+u5du0aFRUVqFQqFAqFw+NTUlLI+fc/fikpKWRnZwNw/PhxwsLCWLVqVYP9JSQkMGPGDOvrGTNmkJCQYNe+pc2EhAS7AOKll16y/jktLY2uXbuSlpbmcL9FTk4OSUlJAGRnZxMWFoZOp2twjG2JOQMuLFo6A15dXc3OnTspKirijjvuIDY2luHDh3Pjxg127txZJ/gGOHz4sDVAPnz4MOnp6QCUlJQwY8YMYmNjG/zMpaWlERYWxqVL5jsLk5KSiIqKsp5j2+bWrVuZP3++9dzG5qCrcyI5OdlufrZF5gy4EMJZkgEXog1RKs3fibt3705k5Bj27t1Leno6arWaiRMn4uvr61Q7M2fOJCIiAjAHzF27dmX69OkOs35paWkcOXKEAwcOWDN4s2bNYtSoUXbtWP583333sXLlSuLi4qxt2P55/vz5jB49Gr1e73C/Rb9+/azbs7KyyMzMtPbV1kkG3F5LZsAVCgX5+fkUFhaiUqmoqKjg6tWrXLlyha1bt3L48GEmT57caDvjxo2zft4WLVpEbGws27dv54knnqhzbG5uLo899hg//PCDdc7ExcURHx/Phg0brO1Y2oyLi0Oj0di10dgcdGVOpKen8+GHH7bp+SEZcCFcIxlwIdqIoqIiTp8+zY0bNygvL2fevHn079+fyspKxo4dyyOPPFLnH3lnaLVaEhMTrZeva0tLS+PFF1+0KxvRarXEx8fbXba3aCxTHRERwciRI60lAGDO4CUnJ9tlxm0VFBQ481baDMmA22vJDLinpyceHh4oFApUKhWFhYVs2bKFt956i6+++ory8qZ9EYqPj7cr+bCVnp7OCy+8UOcL6/z5861Zb1uNzQlHc9CVOXHvvfeybt06cnNzG+zHnSQDLoRrJAMuRBtQU1PD1q1byc/PJzo6mg0bNvCb3/yGYcOGkZGRwZQpU+jRo4fDS+3OaGjZxBs3btCtW7dG29i0aROHDx9m8+bNrFy5ssFjAwMDG23v5MmTJCcnk52dTXh4eJvO7tUmGXB7LZkBNxgM7N+/n6qqKhQKBQqFgitXrnDp0iWqqqqYOHEiKpWKmpoa18Zs84WztuLiYqdWHLIE4+np6bz33nsNHuvM0qX1zYlFixaRmppKWFgYiYmJLFiwoMHxu4NkwIVwjWTAhWgDqqqqOHToEAqFAk9PTy5evMh3331nDTi2bNnCli1b7Mo6XFFSUlLv6ikBAQFcvXrVqXays7MZPnx4o8FyQUGBXYBguUzv6MaxI0eOsHDhQqf6byskA26vpTLg5eXlbNu2jQ0bNlBRUYFSqUSpVKJQKPDx8WHcuHE89thjLgffYM5aBwQEONzn7+9vreFuTElJCQBTpkxp9DjbOejqnHjiiSfIy8vjxo0bLF++3KmxtSbJgAvhGgnAhWgjPD09+emnn9i4cSMGgwFPT0/r0mp+fn4EBASgUqlcbjczM5OUlBTGjRvncH9MTAxr1661u4yu0+lISkpi/Pjx1m0zZ85k+fLlFBUVkZqaWm9/lkvqja0yYal3TUpKYsaMGe3qJkx1YMsvu9eemDPgzcvT05MdO3awefNmdDodGo2GSZMm8corr7Bo0SISExOJj48nNDTU5bZ1Oh3Lli0jNjbW4f5x48bx1ltvkZmZabd93bp1TJs2ze64RYsWMW3aNBYvXlxvf43NQYvG5oRWqyUhIYG33nqrsbfY6jrcM9rdQxCiXZESFCHaAE9PTyZMmEBycjJZWVkMGTKE+++/nz179mAymTh79iwmk4l+/frh7e3daHuWcpHs7GzS0tJYvnx5vcv8xcTEcODAAUaNGkV8fDwlJSWkpKQQHx/vMIheuXIlo0aNsltazbIqyrFjxzhw4ACbN2+2O8d21RTbAAbMgXp8fDzvvPMOixYtavS9tQWyDri95s6Ae3h4oFar2b17Nzk5OWg0Gh544AHmz59Px44dAVxe+9t2FZSUlBRmz55tt6ygreDgYD755BOGDBlCYmIifn5+bN68mcDAQIc3bT7xxBNs3bqVffv2WdtsbA66MidslzVMT08nMTHR6ffdWmQdcCFco/rjH//Y9mayEG2QocrIzjMl9NZUMCi0edesVigU9OjRg8rKSsrLy5k7dy5DhgzhzJkzZGdnEx0dzdChQwkJCXGYBe/QoQN9+vRBq9XSoUMH62oqAwYMYNmyZQwYMKDB/idMmMD999/PlStX8PLy4g9/+APR0dEO2/f09OT+++8nNzeXXr162dV7jx8/nhUrVtC5c2frttr14Pfccw++vr506dKFPn36ADBs2DBOnDjBPffcg6enp+t/ga3skkHF4dxqHrjLly6a2zuP8emJG/SouMDogc0bfKlUKr788kuqq6uJiopi1qxZaLVaqqqqnLoXQqVScccdd1jnjIeHBwBBQUEsWbKEiRMnNnh+nz59ePbZZ7lw4QJgXprTdvlA2/YBRo8ezY8//siAAQManYOuzons7GxrqcvkyZPrzdy701WPEPZd0DGml4ZeAV7uHo4QbZ5Cr9fL48OEcMI1fRULt19mUpdiZo8f0uztq9VqPvvsM3bu3MnixYsJDQ1Fp9NRUlJCUFCQ9R/0W2GbSYO2+UCP9mD3/kP8z6Uglk0IoW9Q41ckfsmeTD3HXZpq3viP5rsJU6FQ4O3tTW5uLlVVVXTs2BEPD48WedqlzInmsWvXLlbnhJEQGURkqHPLpQpxO5MacCHakI4dO9K9e3f8/f0xmUz4+PgQHBzcLMG3aD5SA26vuWvATSYTZWVl+Pv7ExgYiFqtlkfNt3FSAy6Ea27va6dCtCFGo5GRI0cSERFBx44dm7SyQ2Mks9c8pAbcXks/CbMlyZxoHlIDLoRrJK0mRBthNBpRq9X4+vq2SPAtmo9kwO21xCooon2RDLgQrpEAXAghXCTrgNtrzxlw0TxkHXAhXCMBuBBCuEgy4PYkAy4kAy6EayQAF0IIF0kG3J5kwIVkwIVwjdyEKUQbYzKZKCws5JNPPuHo0aMoFAqio6OZNm0aAQEBVFRUSI24m6kDe8KlcncPo80wZ8CbbxlCR4qKiti2bRt79+7FaDQyduxYZsyYQWBgIJWVlTIn3KzDPaMhJ8fdwxCi3ZAAXIg2pqysjA0bNrB9+3a0Wi2jR48mMjISb29vCgoK8PWtu8ZuWloaQ4cOJTg42G5dY39/f7snVjqSm5vLd999Z7caREZGBgARERGA+VHaX3/9NXBzneSMjAwOHz5sPee+++4jIiLCrv9f6prKsgqKvZbOgJtMJj777DM+++wzlEolI0aMYOzYsfj6+lJYWIhWq61zju1nuPZndfz48Q6f8mrL9kmVls+2rX379nHy5Ml651hubi7p6ekUFxfTr18/u6du1p5f+/btIzg4uNExtWWyCooQrpESFCHamKKiIg4ePIjRaKRXr17MnDmT0NBQzp8/z2effeYw05eSkkLOv7NPKSkpZGdnA3D8+HHCwsJYtWpVvf3l5OSQkpJit+3w4cPWgCU5OZkZM2bUOe/w4cPWx3vXHoul/4SEBLtA5pdCasDttXQNeGVlJXv27KG8vJyQkBAeeeQR+vbty9WrV9m6davDOWH7Gbb9rJaUlDBjxgxiY2PR6XT19ml56mVJSQmjR4+2Bs06nY6oqCiSkpIAuHTpEmFhYaSlpVnPTUtLI4K/O1EAACAASURBVCwsjEuXLgGQlJREVFSUtT/bse3bt49ly5a16+AbpAZcCFdJBlyINkSlUnH9+nXKy8tRq9UUFhZy9OhRDAYDmzZtIjs7m9mzZzfazsyZM63ZtYSEBLp27cr06dOb9I98eno6H374YZ0MIMC4ceOIi4urt//77ruPlStXOjymPZMMuL2WzIBb5oRer0elUlFcXExGRgZKpZIvvviCH3/8kSeeeKLRdmw/q4sWLSI2Npbt27c3eK7t5/b06dNERESwfPlyhg8fzvLly637pk+fzpAhQ8jLy0On0/HYY4/xww8/WOdbXFwc8fHxbNiwwa7NzMxMli1bxj/+8Q+X/17aGsmAC+EayYAL0YZ4eHjg4eEBmAOPgoIC/vGPf/CXv/yFw4cPN+mJmFqtlsTERGsJiavuvfde1q1bR25ubp196enpJCcnk5yc7HB/QxnG9sxRBryoREf2lTw3jKb11PceWzIDrlar8fDwQKlUolQqKSkpYfv27fzlL3+x1oM3RXx8PFu3bm3wmOTkZFatWkVWVhZTpkwB4K233uL555+3Oy48PJypU6eSmZlJeno6L7zwQp0vu/Pnz7e7YlRSUsLSpUtJSkpyWELT3kgGXAjXSAAuRBuhUCjIz8/nyy+/pLq6GjDXvubl5XH69GlqamoYNWpUk4JwPz+/Jo9r0aJFREZGWktZnAmqN23aRHJyMsuWLWPx4sVN7rutqr0KSlGJjs+/PsS/Mk5xNvuqm0bVshp6jy2ZAS8sLGTbtm1UVFSgUCgAuH79OqdPn8ZgMHDfffehUqlcbtfZoNfPz48DBw6wZ88e67aG7qkoLi6mV69ejbabmJhIaGhouy89sZBVUIRwjQTgQrQBJpOJgoICPvzwQ7766itqamrw8vJCq9Wi0WgIDg5m5syZTJkypUkZv5KSEvz9/Zs8vieeeIK8vDxu3Lhhd+ndclk/Li6uTlCSnZ3N8OHDHZautHe2GXBLYPpYzDjmPDKRH06d+8UF4Y29x5bKgJeWlvL3v/+dzz//nMrKSry8vPD19UWj0RAUFMS0adN45JFHmrQCik6nIyAgoMFjLJ/tDz/80O4+CUdXeyz8/f2t90A0ZPXq1WRlZdnVjrdnkgEXwjVSAy5EG6BWq/n444/56quvqKysJDAwkEcffZShQ4daX2s0Gmt5iisyMzNJSUlh586dDvdrtVpOnjyJTqezZgXT09Pr1JprtVprPbltEO6IpQY8Pj6e1NRUp2p02xNLDbher+fzgz/wWMw4AvzNq9M8OfVBPt72FQC9e3Vz4yibh23w7eg9QstkwL29vfnggw/Yvn07ZWVldOzYkalTpxIZGUlFRQWdOnVCq9Xi6enpcts6nY5ly5axdOlSl8994YUXePvtt+3mQGZmJtu2bWPjxo2EhITw7LPPMm/ePLvs9rp165g2bZpdW+vWrWPUqFH06dOn3WfCpQZcCNdIAC6Em3l4eFBZWcnRo0fR6XR069aNGTNm8Mgjj1gD7oqKCpfa3LRpE4cPHyY7O5u0tDSWL19e72Xz8PBw+vXrx8MPP8yMGTM4duwYBQUF1uUDbZcVTE9PJzEx0XqubU2royUHV65cyahRoxpdCrG9UQf2pEPWNTKOnGHOww9aA1MAtVrFk1MfZMPWr8i/XsQdXTvj5eVJRz8tedcKAdrN63PZVzh87AxPTpvg8D1+tGUXnSu80BpLac51wNVqNQqFgsOHD1NYWGjNds+cOdP6JbGyshKTyeR0m7aroKSkpDB79my7pQEdsazgk5SUZA24ExISePjhh4mNjWXcuHHWObZjxw7AXJ7yySefMGTIEBITE/Hz82Pz5s0EBgbW+SKq1WrZvHkzQ4YM4dy5c+16jsg64EK4RvXHP/4xsfHDhBCGKiM7z5TQW1PBoNDm+4dSqVRiMpk4cuQIfn5+TJ8+nYceegilUklNTY1Tl9c7dOhAnz590Gq1dOjQwVonPmDAAJYtW8aAAQMaPH/GjBl07tyZkpIShg0bxh/+8AdrZjEzM5OSkhIAJk+eTGxsLGC+SdQ2I+/n50efPn3sxuLp6cn9999Pbm6uU3Wx7cW5n09yLf86g+8M5N7+dTOXSqUStVrFnkPHyblWiKGsHH9fDbsPZnDhSl67eb1z33f06BZU/3tUqbl09jS6gDDG3x3YbH+/SqUSlUrFoUOH8PLyYvLkyTz88MN4e3tTXV3t1JxQqVTccccdhISE2H1Wg4KCWLJkCRMnTmzw/MDAm+/nt7/9LZGRkQB4enoyZ84cOnToQElJCb169WLJkiX079/fenyfPn149tlnuXDhAmCeX5ZlDWuPrXPnzkRGRlJYWNiu58jpQ9/wL10nxvTS0CvAy93DEaLNU+j1eudTCELcxq7pq1i4/TKTuhQze/yQZm3bx8fHWtttMplczng7yzabDb/cB+W0tD0/5/DXjHJmhRQR5OfNg6OH2u0/ff4S32b8xMNRo1CrXb9BsC3Ze/hH1Gp1ve9xa1EIA0wXeOXJqGbtt0OHDoB5PiiVSgwGQ7O2byFzonnsu2jgT9/kkBAZRGRo3YeFCSHsyU2YQrQBBoOB8vJyysvLWyz4Fs3HsgrK3f36Ul1dzVf7v7Pu+yUF3wCR9w1s8D0aFcoWqQEvKyujrKyM8vLyFgu+RfORVVCEcI3UgAtxG5HMXvNQB/aES+WAOUDde/hHvtpvLtf4JQXfFo29R/MqKM1XA96aZE40D6kBF8I1kgEXQggX1V4H3JIl3n/k+C8u+LZo6D225Drgon2QDLgQrpEMuBBCuMg2A24Red9AN42m9dT3HttzBlw0D8mAC+EayYALIYSLamfAb3etlQH38PAgNzeX7OxscnNzm7QuvmgZkgEXwjWSAReijdLpdJSXl2MymfD29kar1VqXLBTu5SgDfjtrjQx4TU0NO3bsJCXlI65fv06XLl14+umneeCBB6zLbgr3kQy4EK6R/2sJ0cYYjUaysrJ46623eO6551i0aBG7d++mqqoKb29v1Gr53uxuzmTAjxw5wmuvvcZrr73GTz/91OjxP/30E6+99hpff/11cwzxlmRlZVkfQuOM1siAZ2dns3HjRtRqNaNGjQRg48ZUuyUEhftIBlwI10gALkQbo9frSUlJ4auvzI/6HjduHNHR0Xh7e5Obm1vvQ0gyMjJISEggNjaWhIQEMjIyrPsyMzOJjY21/uzbt8+6Ly0tzW5famoqOp2u3v1paWkArFq1yrotISHB7pzaGuvDIjU1tU7gZ3ue7RjqG1drUAc2HHBeu3aNOXPm0K9fP/z8/JgxYwZ6vb7e41euXMmMGTP49NNPyc3Nbe7huuTIkSOsXr2atWvX8rvf/a7BcVuYM+Atq7S0lOzsbO677z6WLFnKvffey4UL2fWOLzk5GY1GY/f3mZGRYX2QlO2fbc+xfP4s5zv6nGo0GutxGRkZaDQa68+qVausx8XGxtrts8xJ222xsbF2fezbt4+oqCjr/tpzq75za48jKirKbk7U3m9575b3aflp6jzqcM/oJp0nxO1KAnAh2pgbN27w44/mh5907dqVsWPH0rFjRzIyMvj4448dlqCkpaUxevRoRo0axeLFixk1ahSjR4+2Bto6nY6CggIWL17M7NmzmTRpkjUwuXz5MqGhoSxevJj4+HiOHz9O165dHe5fvHgxQ4eaH8jy/fffM23aNBYvXkxRUZH1Ud2ONNaHxXvvvUdSUpJdwGHpt6CgwNrf0KFD6x1Xa2gsA/7ll18C8OSTT1qXuTt58mS9x8+cOZPNmzc33wBvwfDhw/H39wdgzpw5aDSaRs9pjQy4p6cnnTt34tSpU3z00f9x+vRpgoIC8fb2rveckSNHsmzZslvqd/v27XavHQWoU6dORa/Xc+7cOVJSUsjMzLTu279/P3q9Hr1eT0REhHW7Xq8nLy+PgIAAax/79u1j0qRJrFy50rofYP78+Xb9OTrXdhx6vZ6lS5eydu1auy+0tvs3btxo3b569Wr0ej379+/nsccea8pfk2TAhXCRBOBCtCEeHh4UFxdTWVmJWq0mPz+fPXv2sGfPHj7++GOOHj3q8LzHHnuMH374gZiYGCIiIoiJiWH//v0899xz1mMCAwOt+6ZOnUqOTb1mr169iIiIYMyYMSxfvpwXXniBjz76qM7+iIgIgoODrdvvvvtuIiIimD9/PllZWQ2+t8b6yMjIYPjw4cTExLBnzx7rdku/gYGB1v4sY6hvXC2tsQy4I7ZBWW2hoaG3Mpxmpdfr+e6771iyZAnffPONU+e0ZAZcrVbj4eFB9+7dmTp1Krm5uXz0UQoFBQVMnTq1wf/uM2bM4MaNG3ZXg1yRmJjIihUr7LatXbuWxMTEBs8LCQlxqn2tVsvgwYMpLi4GYNmyZezYscMaqGu1WpYvX87JkyfrfH5qn1vbmDFjWLlyJUlJSU6NBbD7guAqyYAL4RoJwIVoQ1QqFZ6engAolUqKior4/PPP+dvf/sbx48et+2xlZGQwcuRIwsPD7bZHRERw9uxZh/2cPHkSrVZb7zhmzpzJ999/b32dlJRkLfVwFEhevXqVgIAAp95jfX1s2rSJhx56iHnz5pGSkuJUG42Nq6U0ZRUUX9/28XhujUbD5s2befLJJ/ntb3/r1DktlQEvKCjgn//8J5cuXeLAgQNMmTKFSZMmATBlyhQefvhh6yPr67NmzRrmzp3bpP79/PyIiYmxXkmyfEn08/OzO27btm1oNBrCwsKYPXu23dwaPXq0tbyjNp1OR3p6Ov369QPg4MGDjBkzps5x/fr1q1MKU/tcR2r/P8AyTtsSGlv79u1j5MiR9bbXEMmAC+EaCcCFaCMUCgXnz59n06ZNVFVVYTQaMZlMlJSUkJubi0ajYdKkSQ5XfAgMDGy0/W3bthEbG0tUVBSvvvpqnYC9ITExMdZSD9vs3uLFi4mNjSUlJYWlS5c63Z4jaWlpjBkzhvDwcE6ePOlULXR942ppjWXALcH2tWvXrI9RHzBgAJ9//rk18Fm5cmWbuOHSEUuw6Ez5CbRcBvzTTz/l4MGD1NTUsH37do4ePUrv3r1RKBQEBQVRVlZGdXV1g20EBwcTHx/v0k2ltubNm2ct19i0aRPz5s2rc4yltCMvL4+srCxSU1Ot+2xLUGxpNBq6du3KtGnTHAbdDWnqubYlKHFxcdbtL730EhqNhmXLltldlXKFZMCFcI0E4EK0AQqFgsuXL7Nu3Tq+/fZbjEYj/v7+BAUFERgYSO/evZk7dy5RUVEYjUa7c0NCQti2bVudNmtnzEaOHMnixYsJDAxsNBt79epVu7II21IP2+zes88+y+zZsykoKGgwo95YH2lpaZw9e9aazT579izp6emNtlHfuFpaYxnw8ePHM3ToUObMmcOcOXOYN28eoaGhHDp0iLVr1wLwwQcftNkA3FUtlQE/e/YsFRUV6HQ6SkpKyMrKwmg0olQq+eKLL/jf//1frl271mg7s2bNYvPmzVy9erXB40pKSupsCw8Pt5axHDlypMEvro2VhdjS6/Xs2LGD9957z7pt5MiRdjdIW5w8edLuC6ajcx2xXB1rzOrVq8nLyyMwMLDJV5IkAy6Ea2Q9MyHcTKFQoFQqWb9+PYcOHcJoNNK9e3eeeuophg4dSlVVVYPlHcHBwUydOpWEhAS7GyGXL19uV6tqqQFft24do0aNYujQoQ7rZzMzM6015Y2x1GRfvnyZd955h0WLFjn1nmv3kZaWxieffEK3bt0AiI+P57nnnuOJJ55wqr3W1tg64BqNhpSUFH766Sd8fHysXzReffVVXnjhBQD27t2Lj4+P9Zw777yTzZs3ExQU1LKDbwEttQ54p06d+Pbbb3n99dcpKSnB398fk8mEyWRi6NChjBkzhk6dOjU+Pq2WpUuX8txzz1lLNsLDw9m2bRtpaWnExMSQmZlJYmIi586dq3P+7NmzmTt3boM3GoP5S++xY8eIjIx06v2NGTOG6OhokpOTiYuLY+nSpUyaNIn9+/cTERFBbm4ub7/9NqNGjaozV2ufW5vlhs79+50LjLVaLWvWrGHixIkcOHDA+mVi586dlJaWsmbNGpKSkqzZ/dpzU9YBF8I1kgEXws1UKhVVVVWcPHkSg8FAz549eeqpp3jggQcICAhwKiBbt24dWVlZDB482Lr0WVFREQsWLKhzrFar5a9//SsLFy60brPUUkdFRTFjxgx27Nhhl+mzrbW2XWbNIi4ujl27djV4s1t9feTm5nLgwAHrDaSWGzWDgoIazcY1Nq6W4mwNeP/+/e2uJGg0Grp06QJAly5d7Eo8NBoN/fv3t+5vT1oqA/7www8TGhpKQUEBI0aMYMKECZSVlVFeXs6xY8f45ptvKC0tdaqtMWPGMGrUKOtrrVbLjh07SEhIQKPRMGPGDD755BOHX0pjYmIICgqyrmhTm6W2umvXroSGhtoFp7Y14I7KYBYsWEBSUhKZmZmMGTOGHTt2MHfuXGtNeUBAACtXrnTYr+25tuPQaDRs3LjRGsjXHmd9NenBwcG8+uqrLF68uJ6/xfpJBlwI1yj0er08Vk8IJ1zTV7Fw+2UmdSlm9vghzdaup6cn1dXV/OlPf0Kn0zF58mS7QMEVmZmZ6HQ6QkJC7AIJnU5HTk6OXVCdkZFBeHi4dR+Yg5Lal9hzc3PtVkyxHJOZmUlISIi19CM3N5fS0lKHl+ht26jdh6OxWc4BrO/DUX+OxtUa9vycw18zylk2IYS+QfUvg3c7eDL1HIOM53nlyagWaX/37t189NFH/P73v2fo0KF8//33fPbZZ8ycOZM77rgDjUYjT8JsA/ZdNPCnb3JIiAwiMrR93HAshDtJCYoQblZZWYm3t7e1XMRkMlFZWdmktuoLQB0Fp7ZLnTW0lFtwcLDD/bXbCw4OprS0tM7DTZYtW0Z4eHi9fdQXONc+3lF/rbn0oC1zBrz9lYq0lJbKgKtUKtRqNUajEU9PTyoqKujfvz/9+/dvkf5E05kz4GHuHoYQ7YYE4EK0AeXl9dcTtychISF1Ll+35uokraWxGvDbTUvVgAOEhYUxbdo0evTogVKprHMTsmgbpAZcCNdIAC6EaDZarfaWHubRXkgG3F5LZcBramro3r073bp1k+C7jZMMuBCukQBcCCFcJBnwWnJPkX+jG8aaKtQeXlRXVcjv2+x3nuYud38KhWhX6g3AK2tM7DhTRFWN3KMpwMdDyUN3d3T3MIRoEyQDbu/94r4c3V7471el8vs2/H2xBHq23lL8QrR79Qbg565X8PEPN8gsavgpY+L2cE8nNcO6a+ii8XD3UIRwO8mA2xvU1ZsPHvR09zCEG31wVsPe840/gEgIYdZgCUoNCn4urGmtsYg2rG8nCbxb25UrV8jLy6OmpobAwEB69OiBl5cXNTUyJ91NMuBCCCFuhdSAC9HG1NTU8NNPP/Hhhx+SmZmJn58fs2bNokePHnh6elJTU9PkZQpF85AMuBBCiFshTy8Qoo3R6/V8/PHHHD16lI4dOzJjxgwmTZqEWq3m/PnzDoNvy9MvLT8JCQnWB9k42m95YqWjp+HFxsaSkZFBampqnadL5ubmEhUV1Wiblp/Y2Fh0Oh0AgwcPthtTcnKywycDZmRk2LVh277tOcnJyWg0Gmv7tmyfOmg5rqGnEbrK2SdhCiGEEI5IAC5EG1NQUMDZs2fx8vIiICCA/v374+Hhwd69e/noo4/qPW///v3o9XrOnTtHr169CAsLswtOLfv1er1TSwWOGzeOlJQUu23p6ek8++yzjbap1+vJy8sjICCA7du3A7B8+XLefvttwPz0y6SkJGbNmlWn34iICGublrYaGrOlfYu0tLQ6x6xevdraTlxcXKPvvTHqwJZZdk8IIcTt4ZYDcJWHJ3cFaukeoEWpUjXHmIS4bXl5eWEwGKiursbDw4OrV6/yxRdfsHXrVlJTUzl16lSjbQQHBxMXF8fUqVPZs2dPk8cSHBxMUFAQmZmZ1m3vvfce48aNc+p8rVbL4MGDKS4235gVExNDWloaubm5bNiwgfj4eOtj5ZsqMTGRFStW2G1bu3at9amiLUUy4K7557FcwsLC7H7u6NGTAz/ntUr/Dz74IFlZWWRlZREfH98qfQohRENuKQBXomRQZy8+mRbAO9F+hPr5NNe4hLgtmUwmKioqAFAoFBgMBvbs2cNHH33E+fPn6dSpk9NtjRs3jsuXL1tfjx492lqG4awXX3yRLVu2AJCZmUlgYKDd498balOn05Genk6/fv2s2yxZ8Pqy367y8/MjJiaGffv2AebyleHDh+Pn52d33EsvvVSnVOZWSAbcNSaTiaqqCutPRbme4hvXGjwnJSWF3r17W39OnDjR5P5fffVVoqKiiIqKYtGiRU1uRwghmsst3ISppH+QByvH+zKkpz8Da2p4vdLI4t1lXC6pAZq4fnjmXvPv8Ejz79xTcOVHGPqY/WuAwDDoNRS++8S+jbvHg+7azeNsjwXz8XcMhOC+N8+1tK8rgNNf191v27Y2sGnvTYgGKBQKjh8/TmpqKpWVlRiNRoxGIxUVFSgUCkJCQpgyZUqTnwi4f/9+l59SOXbsWBISEli0aBFbtmxh9uzZTrVpCcjfe+89xowZY90eExPDY489xurVq285+20xb9481qxZw5gxY9i0aRPz5s3j66+/tjtm9erVzVJ6YiGroLjGZDKyfPlyNm78u2UL27durvf4V199FYCDBw8SFHTrf88TJkzg7Nmzt9yOEEI0l6ZlwBVqIkJ8WBPdmdHhHTGalChUHkwf6M+SkX4oVZ7mphVKUDifbQPg+OfmH4srP8LOleY/f/cJvP8UVPy7rrXSXCPKzpVwJNW+Hct5RTnmnw1xcOKLm8dbgvOdK80/lkBbd63u/tptC9HMFAoF586d45133rFm+rp06UJoaCg9e/Zk8ODB/Pa3v2Xs2LFOB9+1s89NodVqGTVqFJmZmaSkpDB27FinztPr9ezYsYP33nuvzr6pU6dy33333dK4bIWHh3Pjxg0yMjI4cuQI4eHhzdZ2fSQD7hqTycTvnlvA3j27SP96B7v+uZXycr3DY7Oysjhy5AgrVqyoE3yfOHHCLiseHx+PwWAA4J133rFu//Of/2w9Jz4+3jqnLOdbHDp0iAcffNB6Tu2se3x8fJ1t77zzjnWclnMtJS61paSk2JW8WNqrPV5Lm/X1lZKSYj3PYDDYXRGIj4+3Hp+SklLvuGz7Buz+Hmz/bDvmhvoVQtwalzPgCoWSod39+et4L+7r3YmqGiUmkwmF0cSV6+XsOafHWGIAlReh3TwI8zex/4oP5ZWGWx/thSPQYwiMfKbuvi5hN7PYtvpHmzPZhz66GbjX1qmnOdC+e7zj/fW13U75dPAmvHsIxzLr/oMhWp9Saf4e/OGHH3LmzBkUCgX33HMPc+bMoW/fvlRXV7tUNpKbm2u92dE2+9xUMTExLF26lFGjRrmUtR4zZgzR0dEkJyc3a/bZkdmzZzN37lyWL1/eov1YSAbcNdWVFeRczKTMoMNkMl/Zqa4xAXWvJh44cIC5c+c22J4lm/3ggw+Sl5fH8ePH2bNnD8ePHwfg9ddfZ+vWrUybNs3uvDfeeINhw4YBkJ+fz6xZs9iyZQsDBgywHjN79mx69+5t7SMlJYXo6GiSkpLIz89n5MiRLFiwgNDQUL766isAtm7dyrvvvlvnfoSGLFiwgAULFmAwGJg6dSqTJk0CcNiXrbfffpvo6Gi7bYmJiXZXp5o6rvz8fA4ePOhwn6N+hRBN53IGXKWE2H6eDO3lT41RBSYTSqUCpQryDUY0Pj4sGBvE/Pv9+evEznzyaFf+cL8PAZpmeErancPh0g/wP4/cLFWxuHbOnMWuXTLy0y5Ie90cZIfe77jdQVPMgf3O/3K8v7622yGlUs2T/QNYP9GL2fd2xctDloJvC6qrq8nMzMRgMNCnTx/mzp3Lvffei4+PT5165vpY6rEnTpxIr169WLduncP9tZfis12iz5GxY8eybds2YmJi6u2zvuX9FixYQFJSkt2NnC0hJiaGoKAgh2ME+xrw2NjYW+5PMuCu6RrYmdSjpWw9aWTbKdh+Wsmu8x706tqxSe1ZMr59+vQhNDSUnTt3snDhQnx8fPDx8WHWrFns3LnT7pyUlBSmTJlivY9i165dvPzyy3bBd3127dpF7969GTlypPUGX4PBwJ///Gfi4+N5+eWXrTcb13du79692bVrl3X7oUOHiI+PZ+rUqVy4cMG66o+jvixOnDjBxYsXGTlyZL1jdXZcjiQmJjq8SdWZfoUQrnE5+jKa4OsL1Uy6U889d6hRqKCwWE/yd6Xc3dmb5yO78tOl6zzYxxc/jR8qpZHfj4AdF6s5pL/Fh4cMfcxcy300FTa9BOPiHWfDazu2FUY8ZQ7CHck5BTFLzYF9SN9bG2MbplZ7MvfezvznuE7c4e/B25O7oFErWJ9RQHlVtbuHd9vy8PBAoVAQGRlJWVkZkyZNYtCgQVRXO//fZOPGjU3ab/lHv6FjtVqtU8c5alOr1XLs2DGXxtrQ+Gwz6bWz6l9++WW9xzV3Bl4y4K75Ve+O/Kq3c8F2eHg4a9asqXO/gS1LdvqJJ55wqiQiLy+P7du3k5qaWm+GtyGWrLTBYGDQoEHMnj3bepVp0aJFxMfHk5SU1OC5gDW4tWTfN2zYwMCBA/n973/fYF8Wb7zxBm+//bZdIF+bs+Oqbffu3QwcONDhFxJn+hVCuMblDLjRaCQts4jnvyzmdE4RV26UsnhXLku+KmbLiWKO5ZSx6fh1TNVVqJRQqi9j7eFiLhQ52VXH7uaMs0VRjn3g3GsoPLoK7n4A0m3+x2IpE6ldKtI/GiYuNpeg5DawhFunnubj0h38z6q+ttsRHy9PnooIZM3EzigVSv738HW81SqWPNCZ2MHBeKllSXh3qaioQKVS8cILL/CHB56bDgAAIABJREFUP/yBwYMHuxR8t2eOHrrTHKuUtDTJgLecESNGAPDnP//ZWt+9e/duhzXWFhMnTmTNmjUYDAYMBgMbNmxg4sSJ1v1xcXG89tprdueMGjWKN998s8F2G3Lx4kX69u1LaGhonbXoG5Ofn8+dd97JwIEDycvLcyqwTUxMZMqUKY3elNrUca1YsYKnn366yf0KIVzTtKjLWMXu8zrivrhB3PbrbPjRAOoKPHy98fNU8EO+gm0/l1GkKyb5cCErDhaRV1ToXNv9o6Hworls5OD75sB5wovmfZl7zWUgB9+H09+YM+AWtmUiugL7Noc+Zg6wt/yx4b6HPmYuRfkFemRIT5aO7YjRpGDV/mu8tvsai3fk4qVSsnScH4/f28vdQ7ytVVZWUllZSVVVFVVVVe4eTquxfeiOKw8JcjdZB7xlvf/++wAMGjSI3r17c+bMGUJDQ637LSUdoaGhDBgwgGnTpjF27FgGDRrEoEGD6Nmzp139t6NSk9DQUJKTk4mKiqpz42ZtlrKQQYMG8eabbwLw9NNP8/LLL9O7d2/69nXtyumAAQPo06cPgwYN4u9//7tdbbWjvgCGDRvW4FUBi4bGlZiYaP27A/ubL//0pz/h41N3KWFn+xVCuEah1+sdrhd4Kr+cpbtz+OJ8eSMtKMBkbmLuiO7M7uvJ5A/OE+Sl5I0of7r7qnl8ayHXy2qcH5VlKUC4uRwgQPZ3UPDv7HjtZQVt2S5DaFk20LJ84d3j6y4z6Bd8c9nDwouQ9W39+9upe+/oyusP+pJ2Rsf7R69RXlWDh0rJgvuDmdTbh0W7ivgpp6De8x/u7c2aKd3povFoxVG3Ldf0VSzcfplJXYqZPf6X+UVNOGfPzzn8NaOcZRNC6Bvk7e7huNWTqecorFLzwYPNcJ+PaFW2N5veqg/OerD3fDEJkUFEhvo2S5tC/JLd+h14ppvx+43yGsI6e7N9zp0YUXBnRw/CO6nY9rgnv95Vzqmr151rUxvouNyj19CbQbctR8dqA28G7mD+s+W17fG1z+3U077kpR2Xndj6IaeA+F0mcgp1VFaZvwxV1RhZf+wG2y6YuNBA8C2EsCc14EIIIW5Fsxb+7smu5PH/u8yBs/mM7maiT1ctKFX4eSnxUDbxwTyiWRiNNWTn5FNZYb8cZLGujAtXctw0KiHaJ6kBF78E8nAiIdynWdegKyoq5DAmugVoKalU4EMVp3JKmLe9iB+v1rMGtxBCtDOSARdCCHErmnkRaHOWe0dWGYn7dTzat4q13+r4/qoOk0ky4EK44sSJE5w7d47q6mp69erF4MGD0Wg0VFbe4nKe4papA3vCpUbujxFCCCHq0SJPYSmvqiHleDFbfoaichNGCb6FcJrRaORf//oXycnJXL58mS5duvDrX/8apVKJSqXC29ub8nIJ/txJMuBCCCFuRYst/myoqCS/tJLK22hJNSGaQ0lJCZs2beLixYvceeed/PrXvyY6Oprq6moyMjIaDL4HDx5Mamqq3bbk5GQ0Gg06Xd0ysNpPsMzMzCQ+Pt66Jnd8fLzdUyxjY2PrrNNt+wRNjUbDqlWr7PZbzrGMo/ZPeyQ14EIIIW6FPH1FiDYmLy+PS5cu4enpiY+PD926dQPM6wN//PHH9Z6XmZlJv379WLFihcP9tR/KkZaWZvc6NzeXIUOGEBkZaV2TOzIykiFDhjgM3uuza9cuh4+ej4uLQ6/Xs3//fqZOnWrtoz2SdcDtddWqyczMRKvVyu/b9HfnrC8b/6AIIaxufR1wcVuQdcBbZx1wb29vjh49ymuvvUZlZSUeHh7ce++93HXXXXz11VcArF+/3uG5CQkJPPTQQyQlJbFs2TLCw8MBcwa8pKSElJQUu8fCR0VFER0djZ+fH3FxcdbM9aJFi+q0O2jQIJ74f+zdeVyU97nw/88wIAgjCLIMrkEkRhIXXLNAFtcmGDCNWo2kMbHWX3hO49LKEzk5vjwmhz4PPo02seRQmzQ2IMYlEQKNIkk0alK34IIYg0jcWBRRZIZtYOb3x5y5ZWDYFBzQ6/16tTL38r2/My+i11z3dV/fOXOYO3cuMTExVovluLm5KYG0m5sb+/fvJz4+XllyvvE52dnZVvu7I+kDfstLm/MZYTzHmy9NsfdUhB3tu1DJf31TJH3AhWijTqkBF0LcHoPBwLVr1zCZTKhUKgwGA0ePHuX48ePo9XrGjx+PSqWy+VBzRkYGcXFx3Lx5k7///e/ExcUp+9zd3QkPD2ffvn2EhYWRnZ3NuHHjcHd3V4754YcfiImJaTLuoEGDKC8vb/N7CAkJISAggIyMDMLDw9v5CXQPUgNuTderc0pyampq2Lt3L9euXcPB4dYN24a//0ajEWdnZyIiInByun8TBPZW9eN+INDe0xCi25ASFCG6kIMHD5KcnExtbS11dXXU1NRQUVHBzZs3GTRoEDNmzLB53r59+5Rg96mnnuLPf/5zk2NeffVVJeu8detWXn311U57H7GxscTGxrardKU7kRpwa5qKzinJKSsrY8+ePXh5eeLn54uPjzc+Pj74+pp/9vX1xc3NldTUVAoLCztlDqJtej4Uau8pCNGtSAZciC7C8qDixYsXcXJyYtCgQXh5eVFTU4O3tzfPPfccDz/8sM3sd0pKChs3brQKvC3ZbougoCCuX79OdnY2hw8fJi4ujq+//lrZP3r0aLKysqzKSwDOnz/PE088YXPOzQXYGo2GFStW8MEHH7TrM+guJANurbMy4CaTid69PXj22WepqqzizJkf8fH1xc9PS48eTjg4OFBaeo3MzN3U19dbnVtcXExRkXmRMY1Go5RkNWR5oLjx73zjMfz9/dFqtcp2nU5HUVGRMmbj1/cjyYAL0T4SgAthZ46OjhiNRlJSUrhw4YJS9/3qq68ycOBA6uvrW7y1rtPpOHDggNUDjfv27SMlJcUqAAeIiopi/vz5VuUpFi+//DKBgYEMGDCAOXPmoNPpSE9PJyMjg9jYWACefvppYmJi+Pzzz9FoNMTFxbF48WKb85ozZw5TpkzhypUrt/OxdGnSB9yaOQM+tMPHNZlM1NXVUVlZyYkTJ/n73/+ORqPB09OT8PDnGDt2LDU11RiNRlQqldW5qampJCQkEBwcTFpaGqtWrVKeb8jIyGD27NlEREQAkJaWxpYtW5S7SDqdjoULF5Kbm0twcLDy54YNG5QHDy3PMeh0Ol544QXi4+M7/P13Jz0fCoUiWVVZiLaSEhQh7Ky+vh6DwUBBQQFVVVWMGDGCBQsWEBAQgFqtpkePHi2en56eTlRUlNW2sLAwNm7c2CRDHR4ejq+vr83abK1Wy7Fjx0hNTcXNzQ0/Pz++/fZbdu3ahUajAWDevHmMGzcOPz8/3NzcuHHjhhKc25KQkHBPLnctXVCsdVYGXK1W4+bmhkqlon+/fkydMoXZs2YRFTWPfv36UVNT0yTwbig6OpqUlBRKSkpYtWoVYM56z549m2PHjpGSkkJKSgrHjh1j9uzZFBcXA7Bw4UICAgI4fvw4KSkpHD9+nICAAJtfXOPi4liyZEmzWfT7hTkDLoRoK8mAC2Fnjo6OODo6Mm/ePGpqanj00UcJCAhocku9OXPmzLG53ZIRX7RokdX23btvtQtrvC8oKKjF7iSWrLetQKThNRuO13hbSEhIt+6AApIBb6yjM+AmkwmDwYBGoyEs7EmMRiO+fr6EhoVy40Y5P//8M+fPXyAsNJRe7r2aDcLPnz9PdnY2WVlZSgC+detWPvzwQ6tykaCgIFatWkVqaiqRkZGkpaU1+b2NjY3Fz8/P6nff0nP/Xn3YuD0kAy5E+0gALoSdGQwGHB0defHFF5VtbQ2+hX1IDbi1js6A5+XlceHCBUaOHElZWRmHDh0mNPQJioqKSEv7goqKCq5du8YDDwxi2LBhzY6TkZFBQUEBpaWlTJ06FYCCggJmzZrV5FhLR6CioiKlNKUhy10gi7S0NHJzc61ae97PpAZciPaRAFyILqCurs7eUxDtIBlwax2ZAa+srCQ9PR0XFxcef/xxLl++zOHDhxk7dizjxo1n9OgxXLt2lcsXCwkIDKCurr7Z1pzR0dHKXZ4pU6YwefJkoPmHhy1KS0tbnWdERASenp73dLvN9pAMuBDtIwG4EEK0k2TArXVkBtxkMlFbW0txcTG7d+8mLy8Pg8FAXl4eJSUlmExG5bgLly5SUXGTmzdvolarWxzX29sbgMjISJsPKO/Zs4fo6GhCQkL47rvvyMvLsypTyc7O5vHHH7c6Jz4+nhdeeIG+fftKDbhkwIVoFwnAhWinv5zz4IJT6xkyce/69mctvRyN9p5Gl9GRGXBXV1fGjh1LYmIix48fVxaRMhqNXL169X8CcBUqFZhM5nKt6dOn4+Pj02QsSw14YWEhubm5+Pv7ExQUxIcffkh0dDQLFy5Ep9MpzyRYgvItW7YwatQotmzZQt++fTlz5gwLFixg/37rBw01Gg0JCQnMnDmTbdu23ddtCCUDLkT7SAAuRDv5adTMCWx6u1vcP87fcKJMV2PvaXQZHZkBV6lUTJ48mYKCAnbt2sWjjz7K3Llz6d27d7P96MEciNfW1iqv+/fvz549e4iPj8fT05Nt27Ypvbw///xzkpOTldaBkZGRVg8zh4eHs3//fjZs2MD169cJCAjg2LFjSoCt0WgYPXo0YH6AMy4ujh07dihtDu9HkgEXon0kABeinfzcHOmpkprt+9mg3j0kAG+gM/qABwUFsX//foYMGYKzszNVVVXtOj88PLzZ2myNRsOiRYuadAFqKCQkhISEhGbn1jDYbula9wvJgAvRPtIHXAghxB3p6C4oRqMRZ2dnnJ2dm3QfEV2T9AEXon1azYD/v4m9mfHA3ZiK6KpWHTGhr5RsnxDCto7OgDs7OxMaGsrAgQPx9/fvsHFF55EMuBDtIxlwIYQQd6SjM+AGg4H6+nr69euHg4P8M9UdSAZciPaRGnAhOti3Z8q4XlFptc3JUc2YwX3wc295Wfk7VVlZSUlJCQEBAVRWVqLT6fD1lXZ5onN1Rg246F4kAy5E+0gALkQHc3ZSs3T2rR7DJpOJy1dv8ENuQYsBeE5OjvLzI488ctvXnzJlCsnJyXzzzTcMGzaMyMjI2x5LiLbo6Ax4Q7W1ta0uVKVWq3FxcbG5GI+4O6QLihDtIwG4EB3MaDRSW1sDmDCZoM5Qw41rJc0en5OTw5IlS/D29sbLywug2e4LrXF1dSU5OZmNGzcyfPhwCb7FXdFZGXCdTsdnn33G9evXUavVyoqXlkBbpVJRV1eHg4MDCxYswM3NrcPnINpGMuBCtM8dB+A5RdWMGtLXatuFKzcw1ejo5+V6p8O36MqVK3z00Ue8+eab5OTkUFJSwqRJkzr1mkK0xmQy8tZbb3Ho0GHAhLHeyNr3/mzz2CtXrrBkyRLWrVvXJOt95coVrly5orxuvL+goAC9Xm+1PScnhwkTJjBhwgQqKyspKCggICCgyZiDBw+mpKQEvV6v7LOUqjR3Tcu5vr6+NstaCgoKcHNzU/bl5OQwePBgXF1dqays5Ny5c7i5uSnzae79WbZZxikoKMDPzw9XV1eruwSWsS2fg+W1rWs3LMux/Nz4Wi1dV7SsszLgN2/eJC/vJ2bOnImLiwt1dXWoVA6oVGA0mnBwUFFeXs4HH/w3zz//vNXvuri7JAMuRPvccQDu7OhAf59bbaKMRiOlZWXcrGx+lbivvvqK7du3K69vN9vn6+vLsWPHmDNnDqWlpWzYsOG2xhGiI9XVGVi6OBpDTTVGkxFDbQ0lZTqgaTu17du3M3/+fJslJ5mZmaxatYqpU6dSVlYGwObNm6msrOS1115TjistLSUtLQ1XV1dmzJjB2bNnAXj77bcpLy9X/vv64IMP+NOf/sTUqVMZPnw4AHv37uXIkSNMnTqVF198kaKiIpvXLCgoYM2aNcq8kpOTmTBhgtV816xZw+OPP05UVBQAM2bMYMeOHTzyyCP84Q9/AOCnn37ixRdf5PXXX2/2/WVmZgIQFRVFQUEBU6ZMUcaZMWMGY8eOxcvLi+XLl3Pu3Dnl75LMzEy+++47fH19ra597tw5EhISSEhIsPq5srKSl156ifnz5xMVFdXidUXLOrMGvFevXowcOZLrZdc5cuQI3j7e+Pr64e3dB41GQ2lpKRqNptnyE51OR15eHhqNpslKldnZ2crPQUFBSstDyzm29gEUFxdT1CDb6+/vj1arJS8vD51OZ7Wt4bUsy9VnZ2c3GTMvLw9/f380Gk2z43dlkgEXon3uOACvN9azbt2fuXbNvDR3fX0dz74wB3CyefyKFSsoLy/nlVde6ZDbhZs3byYnJ6fZrJwQd1tNlY5LBaepqdRjwny7XF/fA1ybBuAnT54kOjq62bHGjh1LdHQ0er2etWvXArBx40YCAgL44x//CEBSUhIbN27k9ddfV87LycnBw8OD8vJy5fX27ds5ceKEVUY3LCxMCUgtY9m6ZkBAgNUxGzdubBKAA1y6dMkqS21hOTcnJ4cZM2Yoc7V1rYbWrFnDb37zG6ttb731lhIUBwQEMGnSJCorK3n77bfJzMxUvgC05rPPPmPy5Mk299m6rmheZ2XATSYTtbUGqqur+SnvJ7Zu3Yabxo3evT2IjIxk/Pjx1NbWYjQaUalUTc5fs2YNq1atIiIigtLSUq5cuWK1ZHxoaKiy77vvviM/P18JpC37ANLS0li8eDGxsbFoNBpSU1NJSEggODgYMH9pCw8PZ+XKlZSWluLt7U1aWho7d+5UlrcPDQ1V7jhZxk5JSVHmunLlSmJiYggJCWl2/K5MMuBCtM8dB+BGYz3Tpz9HTXUlRqORmuoqKgy1qJ2aBuBfffWVVUau8b6GWfFXXnlF+Qf+4MGD7Nixg/Lycl588UWlzCQ6OpqEhAQeeeQRDh48yPbt25V/2HNyckhOTqa8vJzo6Gj27dvHyZMnlfFffPFFAJvXbHhuw4yeuOXbQye5UaEnYtKj9p5Kp/n2kPn35cnxw9t13gB/LTllFUBvZZuzkyOP+LnbPL5hGUhjR44cISEhgbKyMkaNGgU0DdpHjRpl9d9UZWUl77zzDu+99x6rVq0C4NixY8yfP79N5RS2rllQUMDChQv5+eeflQy0LVlZWVy4cMFqW2VlJX/4wx/IzMxk6tSprV7LIjU1leHDh9OrV69m5/rVV1+xaNEiHnjAvFjBww8/3Or7s7yf9PR03nrrLY4dO9bu6wprnZUBd3R0pE8fL1QqFYGBgcyb9xIDBg7A19cXg8FAZWWlzcAbIDExkczMTEpKSpRMc0ZGBjNnzuT48ePKcZYgeM2aNaSmpiqrYzYMkHU6HTExMcTFxREXFweY//2xtZJmfHw8ISEh7Nu3j4SEBCUAb8zT05N9+/Y1u7+58bsqyYAL0T53HIBX6Sugdw9UdVU4mEz0UBmo1FXSy7NpdjsrK4tXXnnF5jhFRUWUlZXx1ltvodfrmTdvHmfPnuXgwYPMmzeP5ORkANauXYtGo2HChAnKLePKykrWrl2rBAWWLFtiYiJ+fn74+vryi1/8gr59+5KSksJbb72Fr68vmZmZNq/p6+vLvHnzAHjnnXfw9/eX2vIGvj10EkdHR4YM6kvaV/+6J4Nwy3u0/NyeIPwhfw0P+bdt9b5p06axY8cOm9lkgKlTpyrB9ZAhQ3jzzTfx8PCgpKREyQLr9Xo8PDyUcz777DPmzp1rdUeoV69enD59uk1zsnXNv/71r/zud78jMjKSnJycZsvGLOUclnMBdu/ejYeHh1IaY9ne3LUAKioqSE9P56OPPuKzzz5rdq6LFi1i9+7dBAQEkJSU1Kb3B+Zg649//GOTLz9tva6w1tEZ8Pr6eqqqqnB1deXRRx+jtrYWT09PBgcO5uzZfI4cOcLly4X8Yto0fHx9bAbhCQkJbNu2zarMIzw8nHXr1lmVg1i4u9v+ggzmpetXrlxJYGCgEoCfP39eKWFpXE5iOaclK1eu5OWXX+bzzz+3eWxr43c1kgEXon3uOAAvrzLydc4VjPX1AJgw4ejUkxD/pu3WysvLWyw7aZgNs2TuduzYQWJiohKgLF26tEnAsnHjRhYuXKhks5OTk0lMTGwSNOv1ery8vKxqOm1dU6PR8P3331NYWEhpaalVLd79zhKYTg4do2y714Lwxu8xa/9Rvj10kmEPP9Th15oyZQopKSmsWLGCefPmodfr2bFjh1JeUlZWRk5OjlWgOGPGjCZfSpcuXarsT09PZ/PmzVbXeeyxx/j973/PsGHDCAwMtHoYsjFb1wQ4ffo0gYGBt/XMRkFBATk5Oezbt69N1/rTn/5EcnJymzL2J06c4MqVK3z88cfMnz9f2Z6fn6/8WVZWRkFBAWCuFf/9739PQEBAk3KZ9lxX3NLRGfDjx49TUFBAaGgohYWFXLx4kWef/QU3bpRz+PBhKioqKL16lfHjx+Hj62NzjLNnzzap+Qbw9va2ep2dnY1Op1MC9uY0rsHOyMhQfqdWr16tXOvMmTOAORPeUhcirVbLzJkzSU5Otpnpbm78rkoy4EK0zx0H4M8M7wemftYbVWDrpuDAgQPJz89v9qGmhvWg8+bNIyoqivLycvz8/JRj3NzclLpWMGe7T548yeuvv64E4I3PaYmta/7hD3/Aw8ODyZMnN1sjej/64VguvXr2sAq+x44wB6X3ShBu6wvG5NAxZO0/yg/HcoHms2S3w9XVVcm2JiQk4OHhwW9/+1vA/OCVl5eXEvDu2LEDgAkTJiitBsH8pdTyhXTq1KksX75cGd/ysKWvry+7d+/mr3/9K7t27WLatGkEBATg5uamHNPSNX/729/y17/+leTkZKWkq7Hhw4dbLRs+depU3NzcmDJlCqdPnyYhIYHly5crpWDNXcvf35/f//73ynvy9/dXvrhbxrRo2HJxxYoVVtfetWuX1fzWrFnD8uXLmTVrlnInzs3NTZlzS9cVLevIDLherycrK4uePXvSs2dPiouLOXz4ME899RSjRo1i1KhR3LhRRnFRCX379aOmphrA5kOYOp2u1cxxfHy8Uq/dniC3uRKRDz/8kCtXrhAVFcWcOXNaHGPRokWMHDnSZqDe3UpQJAMuRPvccQCuUv6vddOnT2fGjBmMGDFCyb7l5OQoAXnj7DSY/1FPTk5WMoLHjh2zChgsta4tndMSW9fMzMxUHlbLysqif//+bXuD97AHK8/QQ93XKjC1GDviIWoN9SQkfYGbqwtDBvXFz9uTA0dPAXSb11kHsnlo8ACb73Fy6Bgyvv4XD1ae4bLriA74RG9xdXUlKiqqybMGkyZNarb0ydJqsLHG2emGD2Y2fHCz4baGxzR3zcbn2voS3XCcxnOxlJY03N7ctRpvb/hz4/fX1s/BUjbT+H0EBAQofxe1dF3Rso7MgDs4OODg4MDp06fZtGkTp0+fRqVSkZOTQ15e3v88cGk5WoVer6O8vFwpGbN45ZVXSE9PtwqCdTodaWlpVh2zUlJSKC4uZtq0aRw4cKDZgH3z5s3NllA2ZKkBnzJlCpMnT25S6tLYxx9/bHUHq7uSDLgQ7XNXF+J55JFHSExMZMqUKUrrsVGjRin/mGdmZhIdHU1ZWRmzZs0CzH+Jvvbaa1Z/iX700UfKz9OnT2/S/aThOV5eXlYPbjZm65pTp04lIiKCBx980Kq29n5Wqvak5Np16urqcXRUW+2rq6sn7+eLjAoOpJ9fHzSuPXF2duLpCeZAtbu8HvFQABeLrzb7HkuuXadU7dmBn6q4Wxpn+kXH6sgMuKurK2FhYRw+fJiUlBT8/Px46aWX6NOnD+Xl5Q0W4QGTCUwmH4YPH2F19wXMd4ZGjRpFeXk548ePp7CwkHXr1vHuu+82CbK1Wi0rVqwgJiZG+fJWWlqq1GBnZWWxatUqpawJrGu0bbU4TEhIYObMmS0G9QAhISF4enqyceNGYmJibvNTsz/JgAvRPnd9JcxJkyZx4sSJJotyTJ061aoLgiUod3V1VVoNNtwONOnRa7n13tw5gwcPtro939w1ExISlNaGwqzM2ZegIDWb0rJ4KWKyEqDW1dWzKS2LkOAhDBlkvSCTxrVnt3r9+Ohgzp4vbPY9BgUFkK6rR4oSup/GmX7RsToyA24ymZgwYQLTp08nPT2dJ598kvDwcDQaDSNHjmz2PKPRiMFgUF4HBQWRn5/Pe++9x549e/D09GTlypVWXUcsbQYB5syZw4kTJ5Se4d7e3sTHxwMQGRlp1U2lf//+7NmzR9k/evRoli9fzujRo5VjgoKCWLFiBXv37iU8PNzqWg1/BnPW/Pr161bjdzeSAReifVR6vd7m6gWnr1Sz8qsiJj7gwowH7va0RFey6ogJfWUNa6f3p7z0KsdO5/NShLk2flNaFqOGBTYJvruzs+cLbb5HD28flqZfws3VmVVj21h3Je5Jfz/rRPalClZP8meYr4u9p2NXL23OZ7BbHe8837FtCL/55hs++ugjZs2a1SRgFV1PZmYm7xYFEvukL08GSAtPIVpz1zPgonuzBNqb0rIA7rngG5p/j1f1hpZOE+K+1dFdUOrr63Fzc6NXr15SBthNSAZciPaRAFy0W8OA+14Lvi3uh/coREfp6D7gzs7OPPbYYwwePLjZRZ9E1yI14EK0j4O9JyC6pyGD+t7zgWlL7/HixYvy5338Z33FNcQt5gx4x6mrq6O+vh5vb28cHOSfqe7AZYjtxcSEELZJBlyIdnrY15n+/fvj7++PyWSSP++zP7VaLcM4zQlsL2R0P3qvcCB7Pjlv72kIO7pw08BAjTwbI0RbyUOYolUNH8L0cXOy93Ts5qrewNL0S0x3PMGcF5tf4e5OlJeXU1NTY3NpbYuePXvi7u6O0WjslDmI1u39sYj12dXyECbmhzBT82vtPQ3RBYT17yEPYQrRRq1mwGvLr1JYaECtVrd2qLg+PZr6AAAgAElEQVRHuTtr0Ve2fExiYiLr1q0DzC21nn/++WaP1ev1pKam8vbbb/Mf//EfvPTSSx053XYrKCjg3Xff5f3332/T8dWBT3XKPIqLi0lISMBkMqFWq1GpVJhMJiXQVqlU1NbW0qtXL373u9/Rq5f8I2cvdaUXAGlTKoQQ4va0GoD7GK8zZkznBByie/hxeyrpNL/646lTp1i3bh3btm3j3LlzxMTE8Oijj+Lj42Pz+IarItrb4cOH+fWvfw3As88+y7Zt21pdftwlfy+M6vgMuDn7Xc3rr7+OWq2mproGpx5OODo6YjQacXBQU1JSzD/+8QkVFRUSgNuRo/dAuFht72kIIYToploNwOs8B92NeaBWq8nNzaW2thYvLy8GDhxIfX39Xbm2aFl14FNw5nqz+48fPw7Aww8/rGw7efIkEydOtHn8+++/z6lTp8jKyurYid6GcePG8eKLL7J9+3ZWr17davANnZcBV6lUaDRuDBgwkIJz59i3fz/9+vXFy6sPDz4YRJ8+fXBycsTFpWnJQ0ZGBmPGjEGr1SrbEhMTWbRoEWBegnvv3r1cunQJMC8sotVqSUxMtBpn0aJFFBcXk5qaqmyzHAsoK/+FhISQnZ3NmTNnrFapLS4u5ujRo4SHhytzaDz+vUAy4EIIIe5Eq4+XO17v/Adrbty4wZo1a3jzzTdZvnw5//Ef/8HXX38tNa5dhEv+3nafU1xc3Akz6Xh6vR6Abdu28cMPP7TpnNv5PNrCaDRSU2OgtraG/HPnyNqdxRdfpJOauoOioiJUKhV1dXXKUtwNJSUlUdSoB++yZcsAc/Dt5+fHgQMHmpxnOaahoqIiZTnu8+fPExgYiE6nA+DQoUMcOnRI+XnBggVkZGRYnZuUlNTi+PcCR++ObbsnhBDi/tIlMuDZ2dmkpX3BU0+FERQUxK5dmXzxxRdMmDDBZrZP3F2tZcBtaZiJ7crc3Nx45513AOsMfks6KwPes2dPBg8OQK1WMzokhN69PRg4cCBOTk5UVVYpQXB75eXlERERQVxcnM39trLSwcHByvaCggLy8vIICQlpctyqVauIjY3lqaeeUpbRbsv43Z1kwIUQQtyJLpEBr6io4Pr1Gzz22ONERUXh6+tHaem1ZjPgc+fOVW6Fz507Fzc3N+V/sbGxLWZfs7OzmTt3rtW2xMRE5VZ5Xl4e0dHRyniWYxMTE62uYzm+4fVHjhxJXl7eHX8eXU1rGV9LsH3q1CnOnTsHwPDhw4mPjycqKgow11c3Lkforjo6A24wGCgrK0Oj0TBixEiqqqrx9vHGzc2NrKyv+Mc//kHiX//KuXPnUKlULXZIscXf35/c3FyrTHVDlt//5vaXlpY2O7a7uzsrVqzggw8+aPaY1sbvjiQDLoQQ4k7YPQOuUqnw8PBgwIB+pKenc/ToUS5dukhwcHCbO6/s37+fkJAQpXY1MDCQkpKSZjNyLVm7di0jR45UShMaevfdd21m8yzXT0xMZO3atcrt+3tFaxnwiRMnsmTJEmbOnAnAX/7yF3x8fKyWkO7Tp0+nz/Nu6cgMuMlkIjMzkxs3bvD0009z+vRpLly4QGRkBNXVNZSVXePmzQpulpdTW3t7rd60Wi27du1i6dKlxMbG8vHHH9vMZjeUm5tLYmIi58+fJygoqMXj58yZw5QpU5gxY8Ztza87kgy4tYe8pEuWLYHGYvIdusfdwI7Q01H6gAvRVq0G4OYMeOc0AndxccFoNDJmzBhmzZpFamoqP/74I0FBQbzwwgv06NGjXeNptVoWLVrEnj172Lt3r/IgWHtcv36d4ODgdp8HMH78ePbs2XNb53Zl5oxv811QwFxm0PjLScNtDeuCwVzucfr06Q6d593SkV1QysrK2L9/P4MHD8bR0ZHi4mLKysqYPHkyw4cPZ8SI4dy4cYPyG+X4af24fv36bT2crNVqSUlJITs7m9DQUPLz85U7Fy2ViBw+fLhNXyjj4+NZuXIlMTExTfbdiyUo0gXllv9vgi9X9QZ7T6PL0ZVcxnCtEoO6EN+hLf/9eS8Z27/1B9mFEHbKgBuNRg4ePEhhYSFDhgzh7NmzREREUFRUxDfffMO8efMYPnx4u2+1Wzz99NNKt4f2Wr16NTNnziQ8PJw33njDqpZ52bJlykNllqx3Q1lZWYwePfq2rtuV3U4N+L2sIzPgjo6OODk58f3333Px4kV+/vln+vbty759+zhy5AiOjmql7MRkMj9QqdfrcXS0/k/X09OTM2fOKL+T2dnZDBkypMn1QkJCWLVqFampqS0GxpYa8IkTJzJz5kwOHDjQ4h2lkJAQAgIC2Lp1621+Et2LZMBvkUVXmjp+Op+LDlXMnv9Ljpz4kbPnfyJi0qP2npYQoguxSwb8+vXrfPrppwwbNoz+/fuzY8cO+vbti5eXFwCVlZUUFhbi7++Pg0OrZeodKigoiAMHDpCcnMy0adNYv349YWFhQPMlKKGhoQAsXryY2NjYuzrfu6EtGfD7SUdmwL28vAgPD+fdd99lz549DBkyhOeff55+/frh4eFh8/ff29u7SY/1hQsXEhoaysWLF3F3d2fZsmXs3LkTwKqt4M2bN0lKSmLXrl3KuQ1r8yMjrd9XUFAQ0dHRfPDBByxfvrzF9xIbG4ufnx8RERHt+xC6IcmAi+YcP53PxeJrzA5/GoCxIx4CIO2rf0kQLoRQ2CUDbjAYuHbtGlVVVVy7do3r169TWlqqZLy3bNnC0KFDeeONN3B2dm73+Hv27CE6OrrNx9+8eRN3d3fltUajscr+WfpcN2f//v34+/szbdo03njjjduqPe/KJANurSMz4PX19UyYMIHnnnuO3bt3M23aNB599FFcXFwICgpq9jyj0WhVihISEkJ+fr4SaB87dszm+QMGDGDXrl3KnZ133323yTH+/v7Kw7NgLiFJTExEp9Mxfvx4ZXvDn8H8383+/fspLCxUttka/14gGXBhS+Pg20KCcCFEY3bJgLu4uDBo0CC+/vpr9u7di7u7O3379uXy5cuAOaM8cuTIJrfZW1NcXMx7770HoGStGwsKCiItLY2MjAzCw8PJy8tj1apV5Ofn2xyvrbRaLevXr2fp0qWkpKS0a95dnWTArXXGSpheXl44ODjg7++PWq3GYGh/Ta3lGYi2bofm67MbPz9hOa5h2ZWtBzNDQkKstt+L9d8gGXDRVHWtgb2HTrL4tZk2948d8RBHc/I4f7mEQf387vLshBBdTav1HZ2RAXd3d2fOnDkMGDCAnj17MnPmTEaPHk1lZSU6nY5z585RVFRkc8ERW0JDQ3Fzc2PatGkMGjSIDRs2NHusRqNh586dxMbG4ubmxsyZM9myZYuSEWzYVnD16tVs27ZNOXfZsmVN2hM2FBYWhqenJ5s3b27nJ9K1dVbf6+6qoz8Po9FIv379GDp0KP7+/h06tugc5gy4ELe49HBidvhT/GP7LqpqmnYs2pKxhxFDH5DgWwgBgEqv19uMck9fqWblV0W84HGBl57r+ACsR48e/OMf/+DUqVMsXryYfv368e2333Ly5EmioqJkAZ4uZPP2VNLrRrB2en983JzsPR27uao3sDT9EtMdTzDnxY7LgKvVaoxGo1IK1dYvnsJ+9v5YxPrsalZP8meYr/xdJW4pLr3O7v0/8OsXp9HT2dzJa0vGHgZo+zByWKCdZyeE6CrskgG3sCy0o1arqampYcKECfzmN7/psOC74cI5DRfPEe0jGXBrHf151NfXYzKZ6NWrlwTf3YRkwEVztN6eTAkdrWTCJfgWQthi15UwJ06cSFRUVJOODh1Fr9db/e9erUftbB298mN3J5+HkJUwRUssQXj8f6fg3VvTavD91ltvcerUqbs0OyFEV2C3lTBra2vRarVotVrq6uo65RqiY0gXFGudeUegpKSEyspKmz3wLdlxd3d3fH19b2tBHtExpAuKaI3W25MePZx4KLDlL2tRUVEcPXqU7du3Ex8fz/PPP3+XZiiEsCe7roQpugfpgmKtM7qgAFy4cIHVq1ejVqtxdHT8n8V3TFZlKdXV1Wg0GlatWqX0zRd3n3RBEW0xYeRQXFxabqX79ttv89xzzzFmzBgJvoW4j9gtAy66D8mAW+usDHhVVRW+vj4sXrwYk8lERUUFbm5uuLi4YDQacXBwoLi4mL/97UOqqyX4syfJgIuOUlBQwF/+8he+/vprrl692mklmUKIrkUy4KJVkgG31lkZcJVKhYuLC15eXpw6lcvOL7/E/39WiB03biwDBgygtrYWJyfbnWiys7PZunUrBQUFBAQEMGvWLKUnd15eHitXrlSOjY6OVnrlZ2RkkJSUpOyLjIxk+vTpyoJSjfdHRUURHh7OmjVr+OGHHwAICAggNjbW6pyMjAyuXzd/cbvXeuNLBly0xaHjZ3ho8ABcejTfPWrixIlWfwoh7g9dJgN+6NAhzp07R319PQ899BCjRo2iZ8+e1NY27acq7i7JgFvrrAy4yWTCYKijrq6Oa9dKycs7y/UbN+jd24OHHhqKSqVSOgc1lpGRwezZs9myZQuzZs2isLCQ0NBQdu7cSVhYGDqdjtLSUuLj4yksLOQXv/gF+fn5aLVaLl26pATsOp2OL7/8kgULFtjcDyi9yn/44QciIyMZOnQoGzZsIC4ujri4ODIyMli3bh0rV66851aFtZAMuBBCiDth9wx4bW0tX331FRs2bODatWv079+fBx54AAcHB9RqNc7OztTU1HTa9UXrJANurbMy4BqNhhEjhqNWqxk9ejRarRY/Xz9qamsoLy+nvLy82XNnz55ttfx8SEgI+/fvZ/78+Rw/fhwAb29vZaXKiIgIioqKlAWoBg0apGTLLZnxTz75hOXLlzfZ39DQoUMJCQlh4cKFxMfHA3Dp0iVmzpzZ7Gq09wLJgIu2GN+GGnAhxP3Jrn3AAQoLC9m+fTtlZWU88sgjvPHGG4SFhVFRUcHBgwdtBt9z584lOzvbapubm5vyc2JiIiNHjlT6f1uObdwXHMy37RtuW7NmTYvztXWMrfnExsYSHR1ttc1yrX379jUZNzo6Wllds/GcbK26eTdJH3BrHf151NbWUlxcjIuLCwEBg9Hp9Hh5eaHX69nwt7/x5z+/x3vvvc+ZM2dQqVRNOqRkZ2fz+OOPK8G3RUhICGfPnrV5zdzc3Baz07NmzVLKSwASEhKYO3cuc+fOJS8vr8nxhYWFeHp6AuZb6QkJCSQmJqLT6dr8OXQn0gdcCCHEnbBrH3AwZ8tKSkpwdnbG1dUVPz8/qqqqSEtL49NPP233eHl5eSQkJLBr1y6l/3fDzF3DvuAWERER6PV68vPzSUpKshlgNJSZmdnqMYcPH+bAgQMUFxc32de4Hra4uJiNGzdabbPMSa/X271+VvpeW+vIz8NgMPD555+TlZVFXV0dOTk5ZGRkUFdXh4dHbwIDAxk8eDAD+vfHzc0NBwfb/8l6e3u3eq20tDTmzp3LlClTWLFiRZOAvSXh4eHExMQQExOjlKAAxMTEMHfuXJKSkpQa86CgIA4cOMD58+fx8/Oz+YWzu5M+4KItDh0/Q3W13MEVQjRl1wx4z549qa+vx2g04ujoSH5+Pps2beLjjz/miy++4OrVq+0eU6fT4evrq9xabw+tVktwcHCrWbv4+HirB9oay8jIYOrUqURHR7Nnzx6rfREREeTl5VkF5p988gmrVq1q93zvFsmAW+vIz6O8vJzs7GwqKiqoqamhuLiYU6dOUV5+E19fX6ZOnUpExPP86le/wtPTkxs3bmAwGKzG8Pf3Jy0trcnYjX+PH3/8cWJiYvD29qZXr14tzquwsJCAgADltaUEJSQkxCpzvmDBAqKioigtLbXartFoiIuL49ixY/zbv/3bPZcJlwy4EEKIO2HXDHhNTQ3Xrl0DzB0gqqurOXjwIF9++SU3btwgMLD9S/eGhIQwdepURo4cSUZGRpP9LZV1FBcXk5uba5Xha+4aAQEBNscHcwA+Y8YMIiMj+eMf/9hk/5IlS/jkk08Ac5CUmZnJ5MmTrY5JS0tT5pqYmNjifDqbZMCtdeTn4ezsjIuLC19//TXvvPMOhw8fRqVSsWvXLt58803eeuvf+eMf/w/vvf8e//mfq4mPX0NlZaVVJxStVktERASxsbFWY8fFxVl9sbPUgG/YsIHY2Fibd2fAfBdp9uzZvPrqq63Of+jQoYSHhzNz5kw++OCDJvstWfaioqI2fR7dhWTARVu0VgOemJjIsGHDGDZsGF988UWLY+n1ejZt2sSwYcPYtGlTR09VCHGX2bULSlZWFjt27MBoNFJfX099fb0SXDzyyCP88pe/vK1xly9fzuTJk4mPjycpKcmqhKNh6YmFJdgF2L9/f5uy57GxsTzxxBM89ZR1NlSn03HgwAESEhIA8PX1JS8vz+p2f3h4OLGxsSxfvpy9e/eyYMGCJuNHRETYvfTEQrqgWOvIDLiHhwezZs3i0qVL5Ofn8/DDDzN37ly0Wi0jRoywKjmxLMjj4eHRpFfwhg0bWLhwISNHjiQ4OJi0tDReeeWVJkE5mLPT69evZ+nSpcrvWEJCAnv27KG0tJQrV66wc+dOq99Zy36A0aNHKw9nWixatIgpU6YwefJkCgsLlbaFubm5hIeHt6vcpTuQLijiTp06dYp169axbds2zp07R0xMDI8++mizfcDffPPNuzxDIURnsksXFKPRyLfffsvf/vY3ysrKcHZ2JigoCA8PDwwGA/7+/jz33HMMGtS24N/W7e2QkBBSUlKIjo4mIyOD8PDwZs+3BLtr1qwhKyvLZreHxjQaDStWrGiS9UtPT+fs2bNWD4Xu2LGjScBimVdsbCwHDhxotabcnqQLirWO7IJiNBp5+OGHmTp1KhkZGUyaNInhw4fj6OjY4p0Yo9FotUKmRqMhJSWFvLw8dDoda9eutfoiGRQUxOrVq5XXYWFhaDQadDodkZGRjB8/XhmncbDccL/lGIDVq1dbzfGTTz6hoqKCMWPG0LdvX8BcHnM75WBdnXRBEW3RUh9wS3eihx9+WNl28uTJZvuBv//++5w6dYqsrKzOmawQ4q666xlwJycnrl27xpYtWygtLcXV1ZXHH3+c+fPn4+Pjg9FoRK1WtzjG008/TUxMDJ9//rlSa7p48eImx+l0OmUhkLZYvny5ksVrSxA+Z84cpkyZwpUrV5RtH374odI/2TIHPz+/JgF4ZGQk06ZNIzw8vMv3SpYMuLXOqInv2bMnJpMJLy8vVCoV9fX1tzVOc5lmW4G15Xdco9G0GCRrtVqb+xuP1/C4ezHobkgy4KIzNFcWJoS499z1GvC6ujqqqqr4+eefMRgMTJgwgd/+9rf4+fnh4OCAo2Or3wmYN28e48aNw8/PDzc3N27cuKHcam/Yws/Pz4/Ro0dbZb8btvdr3DoQzLfa58+f3+aHxhISEpRWb5YsdsPgQ6PR8MorrzTpBKHVagkPD2+2zrZhDXjDbLo9SA24tY7+PFQqFcOGDePpp59m8ODBHTq26BxSAy7aor19wO/1L65CiFvskgHv06cPixYtQqVSMWHCBLy8vJpd4c8WS9Y7Li6uyb6QkBCbdd5gu/4brNsCBgUFKbcG2zJGUFCQ1bbdu3c3OcdSD974Wg3nbymZae092INkwK11RgY8KCiIgQMH4uzsbFVaIromyYCLO2UJtk+dOsW5c+cAGD58OPHx8Zw4cYKkpCSeffZZZsyYwaJFi+w5VSFEJ7jrGfDa2lqcnZ154YUXmDFjBv7+/u0Kvu+WuXPndqnFcOxJMuDWOvrzMJlMmEwmevToIcF3N6H27GvvKYhuoKU+4BMnTmTJkiXMnDmTmJgY/vKXv+Dj44OHh4dyTJ8+fe7WVIUQd5lKr9fb/Bf/9JVqVn5VxPMPqPj1Y523FL3o+j4+doOsM9dZO70/Pm5NHya6X1zVG1iafonPz8rDdwKeG+zC6kn+DPN1sfdURBf1pw+3ETVjEn59PO09FSFEF2P3lTBF1ycZcCGEaJ9vD50keMgD7Nx7lOpaQ+snCCHuK3ZdCVN0D7ISphBCtN23h07i6OjIi88+SeTUJ9iSsVeCcCGEFcmAi1ZJBlwIIdrGEnxPDh0DQF/fPkRMkSBcCGFNMuCiVZIBF0KI1jUOvi0kCBdCNGaXlTBt+fLLLzlx4gR1dXWMHz+eZ555Bo1GQ3W1PPBmb7ISphBCtKyurp6z5wv55bNP2tzv69WbHk6OlFwtY1A/v7s8OyFEV3PX+4A3VlVVRWpqKsnJyVRXVzN06FB8fX1Rq9XU1dXRo0cPamtrrc7Jy8vD39/fagXJ7Oxsq9Uri4uLKSoqAsw9ljUaTZOFd0JCQtDpdFbLwLe2AmZLY1iu01BxcTEVFRVWqwbqdDqKioqarCTY8D00fj/2JH3AhRCiZY6Oal6KnMiWjL1ETHmCvr63WgjW1dWzKS2LscMflOBbCAF0gQz45cuX+ec//4ler2fEiBH89re/ZcSIERQWFvLjjz/y5JNNswkrV64kJibGKkANDQ1VFq+ZO3cuubm5BAcHA7B69WqCgoIIDQ0lIiJCOSclJYW8vDxle25uLr6+vjYX02l4nebG2LJli9WqmwAvv/wy3t7eVgvwpKens2DBAkpKSqwC9obvoeHP9iYZcCGEaJ1LDydmhz9lFYRbgu9RwwIZMkj6xwshzOyeAS8sLOTatWv06NEDtVqNk5MT5eXlbNmyhby8PJsBeEuys7MpLS1tdjXLhoGwRUREhLJ9ypQprWafbY0xZMgQ1q1bZxWAZ2dnc+XKFby9va2O/fDDD1m8eDHp6enMmTOnTe/LniQDbuakdgCMPDdY+j4LcHYw4djqUzTiftMwCH/umQl88302IcFDJPgWQlixawa8Z8+eys9qtZr8/Hz+/ve/07t3bw4ePIivb/uXetZoNFy5coXi4mJlqd+GLCUkGo2mSQkI0CRYtsXWGMHBwXh6eloF71u3bmXFihWkpqYq51pKVd544w1efvnlbhGASwbcrLeLmv+a2p9Kg6xWKcDRAYK85ctYW1UajCz+4gL62np7T+WucDANpGhrJhecB/D591Xwfb69p9SlqFXwf58bSN9e9+/ibuL+ZtcMeGVlJefPm9scqlQqDAYDJ06cwGQyUVdXxzPPPINKpWrX8txBQUGsX7+ewMBAFi9eTGxsrFWZR3x8PACjR49m+fLlAJSWlpKdnU1hYSG5ubk2A/OGbI0BsHDhQrZu3UpISAjFxcUUFBQwa9Ysq3N37NhBeHi48uXAEpB3ZZIBv2WQp7O9pyBEt6SvrafKYCI1v7b1g+8RnxP8Pz/dP++5rZ4b7EJ5Vb0E4OK+ZbcMuNFoJDU1lR07dlBfX4/RaKSurg6TyYSzszMTJkxg5syZ7Qq+LcLCwigpKSE5ORk/Pz+rWmtb5SPfffcd8fHxpKWlkZ+f3+RBysZsjQHmBzLnz59PbGwsqampREVFNTkmKSmJ9evXk52dzbhx49ixY4dVEN8VSQZcCCGEEKLj2CUDbjAYSE9PZ9OmTej1enr16sXYsWPx8/PDYDCg1WqZMGFCiyUoOp1O+bm4uLjJfo1Gw6JFi7h582artdaWGvB9+/axdOnSZgPstoiLiyM9PZ2EhASOHz9u1TVl3759ACQkJCjbMjIyunwALhlwIYQQQoiOc9cz4M7Ozty4cYMvvviCGzdu4O7uzuTJk5k/fz5ubm6YTCbq61uuEYyKiuIXv/gFO3fuRKPREBMTw7vvvgtg1VZQp9ORlJTExx9/rJzbMCBuXPoRFhZGSkoKmzdvbjFgb2mMp556Cj8/P2U+DX355ZesX7+esLAwZVt0dDT79u2z2mbrOvZsSSgZcCGEEEKIjnPXM+C1tbUYDAbKy8txdnZm8uTJ/PrXv8bZ2Zm6uro2jREeHs6WLVuUTPKCBQuUgLmoqEip0fb09GT9+vVK8BoREaHsA3N7Qo1Gw+jRo5Vt8fHxxMTEMH36dJulKK2NodFo+PDDD3n66aeV15Z9BQUFTQLtuXPncvnyZWXs5q5zJ1n5OyUZcCGEEEKIjqPS6/U2i6xPX6lm5VdFvOBxgZee67ilyB0dHamrq+PIkSOoVCoefPBB3N3db6vWuzPl5eVZlbk01zXlfrB5eyrpdSNYO70/Pm7ywIwQov2u6g0sTb/E52dbXt3YxdmFpwa709sZMvIq0el1LR4vuqfnBruwepI/w3ylk5C4P931DHhdXR0qlYqxY8eiUqkAulzwDeZuJT/88IPyunHHk/uJZMCFEHfLi0N68p/PuOHlquadHnX8d7aaSsP90bpQCHH/sEsXFEvA3RUDb4v7Ndi2RWrAhRCdzuTErx5xY/VEdwZ5awAVy5804eAAfzqsx1Rfc3vj5n0LJ7649fqBcTBmtvnn2ko4mQ4/HwYXd3jkORg05taxulI4mAw3LkHv/hDyAngNNO/bvhz8h8Hjr8H5o3BkM4ydY32+EEI0o9V13Dp7JUzR9VUHdlwJkhBCNNazhwuzH9EQP9mDQb7u1Buh3miit5szof1UqIxGMDrSw1GNl6YPTg6t5o5uuVkMZ76Boc+Y/7crHnL+aQ6+P30DcjPhidfMgXPyIvM+gLIL8N4vzD8/8Zr5z//+pXk7mMcsOm0eJ3mRedv9GnyrVLj17InaQZaGFaKtWv2vxZwBF/czcwZcCCE6x7Qgd955ujf9+rhTX69CpVLhqFaRX6Ljox/0+Dmb8HV2YMaDbnw4VcWUwa7tv4h3ADww3vyzswZ+2gMXj8EL/we0w8zZ7wkvQ9pK8zHfbzRnuyctNu+ftNj8+vuN1uPu/pP5z+f/8/Y/gG7O06UnS8P8edjf3d5TEaLbsOtKmKJ7kBpwIURn6tdLRf/ePTCZHFCZjKhUUFsHfh5uvP3sQBxUoAJ8XB3w7eXIiL46rn/pwvf5V9p+kd1/An2ZOQse9CQc3WLervG+dXIQ2psAACAASURBVExv/1s/V98En0DrMXwCzdstznxj/jNiNfS4jS8F9wC1kzP/d5ov80f34vlAJ17YbKDwut7e0xKiy5MMuGiVZMCFEJ1p++lq/nTgGvrqSkwqI4d/LmPqx+f594xirtcYWb//El5qHT4ePalDhVoFaoztu0jIL+HZfzcHzd991DETHzDK/Gf2Z+ZSlPuMn7sb707TEjXSneKKOkZqnUn6ZV/GDvDEwUFl7+kJ0aV1iRrw+vp6kpOTeeONN/hf/+t/sX37dgwGA66u92dGoauRGnAhRGcqLi/n//2rgvX/Kmfn6VKW7ypj3wU9P900UFxh4PtLtZy/acKEgZzLN/m3L0s4eqmifRfxDjDXaHsNNNdu9xtu3m6p+a6thMObzRlyMD+seeabWzXfZRfMrx8Yd2tMV0+Yl2guZdm34c4+hG7mAR8f3nram9+M8aDghoGl/7xC+o8VhD3gStxkHyYM8rH3FIXo0uzSBaWhmzdvsmnTJlJTU1Gr1YwZM4ZRo0bh6OhIRUWFzQV6MjIyGDNmDFqtVtmWmJjIokXmB2F0Oh179+7l0qVLAERGRqLVaklMTLQaZ9GiRRQXF5OamqpssxzbnMTERCZOnGjVE7zhfCyrVzZcubLh/oyMDMC8mFBDOp2O5ORk5foZGRnK/Jt7D+PHj78rK2RKFxQhRGcrr67hrW+u4NCjJ8baKgBUzi64OTtysqiWf991jfXORrLyavj2Ui1VNe1sTWip1S67YM6Ea4fBrHdh6zJzYH01H9y8btVyj5kNN4rMD14OfcZ8zISXb3VQsRg0BkZGwsFPYEjoffMgZtiQ3sx+2JniCgMLdxTz3fnr7LtQgbuLI48NdOGlEG++L2hHiZAQ9xm7Z8AvX77Mnj17MBgMBAcH85vf/IZhw4Zx8eJF/vnPf9pcHTMpKYmioiKrbcuWLQPMgayfnx8HDhxocp7lmIaKioqUFTXPnz9PYGCg1QI8tsaYOXNms/M5dOgQhw4danZ/UlISs2fPbnKNvXv3smzZMqvjzp9vWv5jeQ83b94kNDTUarn6ziIZcCHE3WIJvgFMQD+PHkSN7UOfXj05WAivjPLg38b0wsej6UrFNg2dCK99AlN+b/7fH769FSQHPWl+/cRrMHsdvPw361ruSYvhjZ3m/W/sNL+2eO0TeOZ35p+n/N78utf9k/X97Oglln9dTvSX1/juvPkZoSsV1byeXsSqfXrisi7YeYZCdG12zYCrVCpKSkqoqKjA0dGRqqoqrl69ipOTE8nJyVy8eJHnn3++XWPm5eURERFBXFyczf2WLHlDwcHByvaCggLy8vJazCxHR0dbZdzbKyIigr1791plwdetW8fjjz9uddysWbNszsNyXXd3dw4dOtTpWXDJgAsh7OHnG7XsztPxy4dceWygM73ceuGshree7sHRsjJ2lbdhlUyNt/WDlo31cDVnw9t7fsNzWhvjHqSvrSLlaBHGRut5nCvVsX5/DbWGpskzIcQtds2Au7i44Oho/g6gVqs5f/48Gzdu5P333+df//qXslJme/j7+5Obm6uUejSWmJhIYmJis/tLS0tbvca8efPYtm0bxcXF7Z4fQFRUFLGxscrr7Oxsxo0bh7e39V/yW7duVeZry82bN21u72iSARdC2MPPN+r53+lXWf1VIdV6PS5OKurqDPzzjI78G/KQn70Z6uqor7cuBTKZoKbW0KUX2hOiK7BrF5SKigpycnIAcza8vr6en376icOHD1NdXW21XH1babVadu3aRVJSEiNHjmxTiUZubi6JiYnExsYSFBTUakZZo9GwcuVKVq9e3a65WfTt25fw8HBlbhs2bOCNN95o8/mJiYmsWbOGzMxM5s2bd1tzaA/pgiKEsAuDHpyqKapxZOcFqKutJPXUdWL3XOdsUevJEiGE6Krs1gdcp9Px6aefsmvXLoxGI2q1GjAvT+/u7s5TTz1FRETEbX2L1mq1pKSkkJ2dTWhoKPn5+cqDlS2VjRw+fFipB29NWFgYCQkJt12DPWvWLLZu3Yq/vz/Xr1+3+eBncyUoAD/88ANLlixBo2ljHeQdkD7gQgh7KtYZeOdgNVmXjGRfMZJfWm3vKQkhxB2xSw14bW0tn376KV988QXV1dV4eXkxefJkBg0ahMFgwM/Pj8DAQNzdba+q5enpyZkzZ5TgNDs7myFDhjQ5LiQkhFWrVpGamtpi4G2pAZ84cSIzZ87kwIEDbQps165dy7Rp0wgODla2eXh48O233yqvdTodaWlprF27tsncYmJieO+994iKimr1Wg0tWrSIefPm8cQTT/Dggw9adWTpDFIDLoSwt0ul5WyTpLcQ4h5x1zPgLi4ulJWV8dVXX6HX6/H09OT555/n1VdfxcHBXBFTWdnyggYLFy4kNDSUixcv4u7uzrJly9i5cyeAVVvBmzdvkpSUxK5du5RzG9ZTR0ZGWo0bFBREdHQ0H3zwAcuXL2/1vWi1WqKjo1m2bBkxMTEATJ8+nQULFgAwcuRItm3bxqpVq2xmuJcsWUJsbGyzD4xu3bpV6ajSuOWgRqPh448/Jjo6mt27d7c61zshGXAhhBBCiI5z1zPgBoP54YwePXrg5+fH9OnTeeGFF6iubvstxZCQEPLz85VA+9ixYzazwAMGDGDXrl1K8Pvuu+82Ocbf398qA71o0SISExPR6XQ2s+CNx7Bk1v39zUsYazQaSkpKSE9Pp7y8nJUrVxIWFqYcHxUVpRwbHh5uleVvuC8qKsqqD7it64eEhLBkyRLy8vI6NQsuGXAhhBBCiI6j0uv1NousT1+pZuVXRTz/gIpfP9ZxAbiDgwNqtZoLF8w9Qn18fHBycupyT0w3Xginf//+TRbPuV98fOwGWWeus3Z6f3zcnOw9HSFEN3RVb2Bp+iU+Pyv12wKeG+zC6kn+DPN1sfdUhLCLu54BNxqNGI1GJdMLdLngW1iTDLgQQgghRMexWxeUru5+zXbbIjXgQgghhBAdx659wEX3IH3AhRBCCCE6jl1XwhTdg6yEKYQQQgjRcSQDLlolGXAhhBBCiI4jGXDRKsmAd7y1a9eyZ88e9uzZw2uvvYazszOvvfaabJNtTbY5Orb6qI4QQohuxi4rYTZkMpkoKysjOTmZEydOoFarmT59Os8++yzu7u5UV1djNBo77fqiddIFpeP17NkTHx8fTCYTY8eOpa6ujrFjx+Lt7Q0g22QbAAMHDuTIkSOMGjWq3b9jQgghuq673ge8sbKyMjZs2EBWVhYeHh48+eST/OpXv8LPz4+qqio0Gg319fVW52RkZDBmzBir1SUTExOVRXF0Oh179+5V+nhHRkai1WqtVsEE8yI6DVfObHhsc9ozdkZGhtVS8TqdjvT0dObMmdPej8mupA94xzt27Bj9+/dXAi0hbNm0aRP/9V//xalTp+w9lTsmfcBFQ9IHXNzv7F4DfvnyZQ4ePAjAQw89xK9//WsGDRrETz/9xPbt25sE3wBJSUkUFRVZbVu2bBlgDnL9/Pw4cOBAk/MsxzRUVFREQkICAOfPnycwMBCdTmdzru0d293dnZUrVyqvP/jgA5vjdnVSA97x5s2bR2Zmpr2nIbq4l19+mbNnz9p7GkIIITqYXfuAq9Vqrl27Rk1NDY6Ojly9epWjR4/i7+9PcnIyZWVlVsvEt0VeXh4RERHExcXZ3G/JkjcUHBysbC8oKCAvL4+QkJA7HjssLIyEhAT27duHVqslMzOT3bt3t+v9dAXSB7zjnT17lrq6Ourr6ymsMPC//3mBelmPSgBqFbwf+QC9XdRkZmaSnJzMRx99ZO9pCSGE6EB2rQHv0aMHTk7mkga1Ws3ly5fZtGkTrq6unDt3jsDAwHaP6e/vT25uLhkZGTYX07GUijS3tHxpaWmHjr127VqmTZtGcHAw8fHx7X4/XYHUgHe8efPmMW/ePCZNmkR5VT3VRgf+eU5uzQt4YYgLhnojoMbPz4/x48fbe0pCCCE6mN0y4CqViqtXr/L9999bLUV/6dIl6uvrcXFx4cknn0StVtssQ2mOVqtl165dLF26lNjYWD7++GOb2eyGcnNzSUxM5Pz58wQFBTV7/O2MrdVqeeKJJ5rNqncHkgHveOPHj8fP7/9n783jorrvPe43u8IAoohgNEoUt6iRxK0CcUfjWMGKiQSsJl5KnaeJYq7eSFovl6SkD9yqtXnwWmOuJhCoW5XrJIox0SDEGBWjiCFAcUE2EQUHZJ/nj+kcZ5gZNhEUfu/Xa17D/M5vO8gZv+dzvssAg3blQmvu5Fxk+PDh5OTkiPce9J55o5h/uzRY7+/B1dWVqVOndtafpUAgEAg6iRaDMBc73uD1BR2fhq6kpIQ9e/aQkpJCXV0dvXv3xszMjIaGBvr06YOvry8LFy7EwcHBYGxgYCAbNmzQM2jt7OyorKzU65eeno63tze5ubm4urqa7LNy5UoUCgX79+8nNjZWCppsjtbMDRq3Fa0feNM9Py0kHjjMkfrxIgizA9ENwtRea1/8s5ot/VMIu+3T1dsTdAFHphWxMM2VxcN7SddadwzCvFDawH/PsO/q7Qi6kG0XqrG3bBRBmIIeTZco4NXV1Xz66aecOnWK+vp6BgwYQEBAACNHjqSurg4XFxccHR2xtrY2Ot7JyYmsrCzJmE1PT2f48OEG/Tw9PYmIiODw4cNGfb+1aH3AZ82aRUBAAKmpqchksmbPobVzKxQKoqOjkclkBAQE8OOPPzY775OIUMA7nqCgIN577z1ef/11vfYFCxYQtud+F+1K8KSxfPly3njjDWpqarp6Kx3Gsw5WePYVqWV7Mi8PtSM9X3zPCXo2ne4DbmNjw507dzh79izV1dUMHjyYV199FT8/P8zNNUlZqqub94UNCQnB29ubmzdv4uDgwLp16zh69CiAXlrBiooK4uLiOHbsmDRWN12gn5+f3rweHh4oFAq2b9/O+vXrDdZt69yHDx9m0qRJ0o1CcHCwXrrEpwXhA97x6AZh6vLFF18AQgEXaBBBmAKBQNA96fRKmI2NjVhYWODq6srIkSMJDAzE19eX2tpaqqurWzS+QaM+5+bmSu4pFy9exMfH0GgZPHgwx44dk/J6b9682aCPm5ubXqaV0NBQHBwcTKYibMvcAOHh4dLPq1evbuHMnkxEJcyOx1QawgULFhjtb4YZLo72/IePK7+ZPABHW9vHvUXBE4AIwhQIBILuSacr4HV1dbi5ufHXv/4VMzMzLCwsqKura/M8rq6uRpVkU+1gPAUhYJDRRFtER1tsBx5mNmnL3E3bZDLZU6d+g1DAHwemgjBNKeAya3PWvWjD737hiKq2ATvq2HK2qhN2KuhKRBCmQCAQdE+6xAf8wYMHgKYMvSgz/+QjfMA7nqlTpxqtuGrgA25mho2ZDf8xzZ7fTu1DL5te9O6l5t3pjWBmxtbz91E31ILaDNSAWRuSiR/4l5vVkhjN+/m9cCwaws9B2Q345q+Q9Y3m2At+IP8DRE3Un+PNz+DWZc04LYMngHwT9H1W8/n6eYj/141n+LmH/WqrIGUnfP/Zwzbt8fN74YdEzT6067iO1sz15R817X2fBe9/g7H/emoQNRHmbYCXXjU8vwPrNeeyKFK//8iZMHSS/v51z811dMu/x8dIcnJytwnCbC2p2XfJunlbr83GypI5EwYzwP7xB4FnZGQwduxYQFMXwt3d/bGvKRAIeh5dmgf8ScZYnu+eilDAOx5TQZi6CriZGbjY2/L2S71RTHHErndvGho0N6xWlpYMtKmBmgbAEkeZOX1sepFf8YCGxrY/UTLguz1wOxf+/VuwbuLuMnLmQ6MdNAY4aAxWWX/YNh/yzjw0wDO+0PxcdkNjQA95SdP+f/+pWaOpoau9EVi6GTxeftiuNeS17dnfwr51YD/g4ZwtkbQJRszQP6eXXtW8tOt2oOFtaWmJk70tt+9WtGt8dwzCbIm6hkY++Ld5em1lFZWc+D6TAfbOJsfl5eVJmaiee+45bNvppvXBBx8QGBgIwJkzZ/jwww/bNY9AIBA0R6f7gAuePoQPeMeTk5PD8uXLDdp1fcAtzM35zYv2vDW1H7LetjQ2qDE3M8PKQs3ZaxXEXa5haB8LBsksWDNRxt/9bPF5tgNTepXdgOvnWu6nS+2/3GJsZA8//3hYo1T3fRZyTj+cO+sbmL3W0Ng9Fg1Tlusb3wDnEjXqurbd42XN53OJrdvbyJmaPRz/c9vO6RF43kXG/zvHhUF925d2Lzk5maCgoA7e1ZONurGR2toa6fWg6j737hSb7F9SUoJCoSAkJITY2FhiY2MpLjbdvyU+/PBDzpw5w5kzZ/jDH/7Q7nkEAoGgOYQCLmgRoYB3PLqVMHVp6gPeqEYqVGVuBnUN9eTeqWdIP3s+DXSguq6efr0tcLG3xt7GjF0yG5YkWXLx5iO6DP1iBZRd1yjMfZ+FV7c+VLSzvnnoiqLrUvLJv24oZigeunloDfihk6GiCE7Ggk8I1P4rZ759f+Pr93Ez3m7r1Pzn5sj6RqNuf7L84f4eE2Zm5gxykrF5fn9mPGfLWOeBrPhHAVkllW1yu+uJQZhqdSPvvPPv/N///d+/PqtRKpNM9n/77bcJDAwkNjZWr72kpISSkhLps9atRItWMddtz8vLY8CAAZLqreuOojvnc889h0ql0pvfzs4OOzs7k2tqx7q4uODi4tKq34VAIOi+dFklTMHTg/AB73hMBWHq+oA3NDay84IKG+r53dQ+WFtZsP9iGR+ermLh8N74Pu/IscsF/OecAch621NfX01+RR3V9WaPvsG+z8Lyj6HoKhx6D/auhd8e1Bxr6oKi5c3PIPUTjZE9cZnGzePMp5pj2+Y/7Hf93EPDu8ZEIGmNiSxEVXcNP7fFCHcdrblBiA/VqOePAXMzMyY848jWV/rzgmsvfiyoZtKg3myZ78rvT9zh3M2y1m+3BwZhNjQ08If3NvDu+rdpbGykrraGsnv3AcO6EN9//z19+/Y1SCkLmqcHERER+Pr6Ulam+Z0nJiZSVVXFm2++KfUrLS0lKSkJW1tbYmJiUCgUjB07lsOHD/POO++Qk5MDwPbt2/nzn/+Mr68v48aNY8SIERw4cIDk5GSpzd7e3uiaeXl5xMTESPuKj49nypQpHf2rEwgETxEtuqBoFPDHT01NDSqVivv370v+jmZmHWBICB4ZjQIu6EhMBWFqFHANajWUqFS8f/o+m7+7x64fSln7ZRlZ9yq53aBGVVPPpVI1+ffVNDRWc+TKXZb9o4Sfi+61bhMjZ2pU4bIbGleRHxI1wZa69B0Cdn1bf2Iz39K8n0sEVSncvKgJjAw/91At//mUxhDu+yx8u13TT5cpyzVGfNFV/faJyzTzZX+r+Zz9rebzxGWazy/4ac6htuqhi8vImYZ7nLhMs/bNi60/rzYw1X0gW19xxnuIHSdyVYQcLuFYVgVzh9vx3/P6MXmoCXXfCD3RBaW25gG3rv3EjZwMbuZeofBGNuX3bhvtm52dzbRp00zONXHiRBQKBWFhYVLbnj17cHd3JzExkcTERFauXMmePXv0xlVVVZGQkICvry+gUcIPHDjApUuXiI2NZfXq1cyePVtS3bVtptZ0d3eX3GMiIiIM1hMIBD2PLlfAGxoauH79Op9++ilZWVnY2dkREBDA3Llzsbe3p6amxqBYiaBzEQp4x9PqSphqqGuo4YOUOszMzVH/61owt+6NnbU5X+dW8+9HiomY/YArJXXcq2mkUd1KF4cRMzTG7v/8SvN55EyY+47mZ+X7Gt9t0CjFr259OE7XBeVNnQwmoDFstQa01g/cXUfBnbJck/Vk7jsQ/Dc4tV1fHQ8/p3FR6W3/0KUFNOr7kJc0AZgntj50jVm6+WEA5i9WQHUF/Pe/fMR1XWF0sbYF/z/qz9+BjB7Qi8GOVhz7uYL1yUXkllax/GAVO/3N8XSzYfzAXpy91rq5emIQ5rOuLqTcuAs8vPGzsrRg8gjjTzru3zddUfHcuXPExsZSVlbGhAmaJx6XL19GoVBIfSZMmGDgvvL+++8TFhYmGcoXL15k5cqVrQrsNLZmXl4eISEhXLt2jYkTJ9K3bxtuagUCQbeky33Ay8rK+Pjjj/nuu+8YOHAgM2fOxMfHBwsLCwoKCnByMvzSjYmJwd/fHw8PD6ktMDCQhIQEQFOaft++feTl5QEQGRmJh4eHFNmuJSEhgezsbDZt2iS1KRQKo0V9dNfRMmPGDCmvt1KpBDTZU5RKJXFxcQA4OTkRFhaGh4eHXnvTfZg6p8jISIqKirh16xbLli3T22d0dDTbt2/nwoULUrv2XAFUKhUhISFs2bJFT22NiYmRxri7uxMeHo5MJjN5zsIHvONpcyVMdSPqhoeGdb1azXg3WzbNcaWyppGK+l6sniSjQW3O9kt1FN1rRZlna1uYvUbzaor8D5pXU8KNBGW6jn6Y+g/059Rtb3rM2tb4Ota2MO1NzaspHi8bBmdq6fuscdcYMGx3HW14LtpsKI/IvvQC7tb0Jz2/grxSjYvNbVUN731dyqiBTnzxY34LMzykJ1bCHDfYnnGDWxe06uXlRUhICCtWrDBqHPv6+krG9fDhw3n33XdxdHSkuLhY8s+urKzE0dFRGnPxoubJyJQpUyQD3N7enqtXmzyRMYGxNf/2t7/x1ltv4efnR0ZGhoHBLxAIeh5droDn5+dz9epVrKysGDJkCPPmzcPR0ZG0tDQuXLjAb3/7W4MxFy5cYM6cOXptSUmaIJ2ioiK8vb3Zu3cvS5cuBTTVLrV9Tp8+rTdOpVJRWlpKdHQ0BQUFzJ8/n9zcXKPuAbpzqFQqIiMjpQI9ukV78vPzcXd3Z+nSpZw9e5aAgAB+/PFHXnrpJQYOHEhWVha7du0iOvph7mFT57RhwwY8PT353e9+x8KFC5HJZCiVSvr06YNMJuPChQv4+fkxcuRIvXMFOHXqFJmZmRw+fFivAJDumJ07dxIVFUVUVJSJfyGhgD8OTAVhGijgJvj+5gN2nGlgqqsZs0b2wcraHrW6kfdeNif5Zimt9UIRdDwV1Q84eOGGQfuVgntcKWjbP0xPDMJsC+7u7syZM4c333yTsLAw7OzsOHLkCK+99hqgEXgyMjKk9IQA/v7+BAUFER8fD8CWLVv03EUiIiJIS0vTW+cXv/gF77zzDqNHj2bYsGHY2dmZzA9ubE2Aq1evMmzYMGF8CwQCoIsVcCsrK8rLy6mtrcXS0pKCggJOnTrFgAED2L9/f6vK0jelsLCQRYsWmczj7enpadDm7OyMp6cnnp6eLFq0iMLCQpMGuO4ckyZNMtlnyJAh0pzr1q0DNAFV2nm1a7YGmUyGQqEgPj6e0NBQwsPDOXbsmHR85MiRRueKi4tj9+7drFy50qACp3ZMSEiI3o2AMYQC3vG0tRJmU7Lv1PJfx8tZMsacSc9Y07evHWUVlWw7U87Pd4TLVnehJwZhtpV3332XEydOSGr1ihUrcHd355///Cd9+/aVDN5Dhw4BGmU7Pj5e6h8WFiYFRI4bN44lS5ZIWUrGjRsHgIuLC8ePH+dvf/sbx44dY968eZIBrvUTB40AYmzN3/zmN/ztb38jPj4ehUJBSkrKY/2dCASCJ58uVcAtLS2xttZEtpubm1NSUsK+ffuwtrampKSEUaNGtXlODw8PSktLCQ8P5+233zYwpLUuJC+++CLr1683GJ+ZmdmsO4Z2jtLSUpydnZtVjkGjyLeWDRs24OxsvNBEUFAQXl5eODo6IpfL9c5Ld5zWDaeoqIjS0lI8PT3x8vIiPT3dqJFuys1HF6GAdzytroRpiloV2MB3JZYcyq7ltXH32XqmnG1n73K/Rhjg3YWeWAmzPcyePdvgaZKxNi1TpkwxmoVEG0hp7LO7u7vRojy6irapNZuObZoSUSAQ9Dy6TAE3MzMjJyeHY8eOoVarpbL0d+7cQa1W069fP1555RXMzMykPMitQSaTcfz4cXbs2MGwYcPYvHmznvq7YcMGqZ+WpKQkyajeuHGjnh+2MbRz7Ny5k5iYGKOGfGxsLCdPnqS0tNTA7cUUq1atklxJtPvSPa/g4GBWrVpFbm5us+MATp48yapVqwCNX/q+ffv0DHBdo33Lli3N7kso4B1PayphtogaCipq+M8zNXx6tZaM4lphfHczemIQpkAgEPQEukwBz8vLY8eOHVy+rClj7eDggIWFBfX19Tg7O+Pn58fLL7/cJuNbl9DQUIKCgli8eDGTJ0+WjE9jKvC0adPYsGED0dHR2Nu3HPyjnaM59w25XM4rr7xCZGRki4q6FlOuJFrmzJnDhQsXDJRTY+M+/PBDXFxcOHz4MKWlpaSlpemp9atWrcLe3p6tW7e2uD+hgHc8poIwW62A63Dr9l1uGc/SJnjK6YlBmAKBQNAT6BIFvKqqil27dpGeno6ZmRnPPvssK1asYOzYsdTV1dGvX79mx7u7u+spuomJiSxatMign0wmY9KkSWRlZTVr2Gr9sXfu3ImXlxcvvfRSsz7gWlQqE8VC0PiA+/j4EB0djUKh4Pjx4y3O11FkZ2czZswYSakHjVqvVCol33it0Z6fn8/27duNqvhahALe8bS2EqagZyOCMAUCgaB70ukKuJWVFVVVVWRmZlJXV8fo0aMJDg7Gx8dHKrxTW1vb7Bxvv/028+bN44cffsDZ2ZmkpCQpdZRuWsHSUk2Bj/DwcGmsbhrByMhIvXllMhkfffQRYWFhki+1MbRz6K5rCk9PT3x9fdmxY4dBIGRHoetOEhwcTGpqKsHBwXo3Hdo0jU2DU0NDQ5k7dy5z5swxeZMiFPCOpzWVMAUCEYQpEAgE3ZNOV8DNzc2xsbFh9OjRqNVq/P39mTRpEnV1da2ew9XVlR9//JH09HQAPWPZzc1Nz89b15+7qS+2NmWfriHu4+ODTCZDpVIZdc3QnWPnzp1SH91SyE3LIq9evZrsDE9BwQAAIABJREFU7Gzps4eHh4HxHxkZqZdCULuW7v5NjdNV4t3c3BgxYoTBXNrzMrbWZ5991mwxC6GAdzzNV8IUCrhAgwjCFAgEgu6JWWVlpVEn66sl1Ww6Ucgvh5rx6190rAtKr169JN9utVrdouLdFegWqwHTWVN6Arsv3uOrrLtsWTiI/nZWXb2dbsHzzz8vBWFqr7Uv/llN1gp7RgoFvEdyZFoRC9NcWTy8l3StWVhYYGlp2S2CMG9X1hF2JJ97VdX8aVIDvXr1orq6Wrz3wPfEXDN+LDMncrYbo116dfWfpkDQJXSJD3h78nt3Nv7+/nqFcVobSNkdEQp4x9PmSpiCHkl3DMIca1PGM8+MwcbGhpqaGvHeA9/H3PqJH2k+/a1A0N3p8kqYTyotpSLsSQgf8I7nUSthCnoG3TEI09baUqo9oC0f/zjezc3NMTMzo6FBo7bb2dk91vXEe+vfnew17wJBT6ZFA7z8+lXyh/amt70jNZUqbOxk4r0HvVv36k3V5RNg/WJn/D32GB61EqagZyCCMNvPlStXUCqV3L17l/79+7N48WKGDh3a7tS2AoFA0JG0aIBvKR6O8qtqQOs2Uinee9j7z2XjmdZyVkZBG3jkSpiCHoEIwmwfN2/eZPv2/+Hnn7OktvLyct566y369u3bhTsTCAQCDS0a4Osny/Dv+EKYgqeIiHNWVFY9/UFgTxIdUglT0O0RlTDbR0lJCRcvXsTP75f4+/vz8ce7uHjxRyoqKowa4EqlUqr/oFQqyc/PB8DR0ZEZM2a0WBdix44d0s+6hd+0pKSkkJmZaXK+7Oxsvv76awBmzZql5wKpuzfQ1L1YuHBhj45LEgi6A+ZdvQGBoCeSk5PD8uXLDdoXLFjQBbsRPKkkJycTFBTU1dt46mhsbMTMzIza2joqKyupr6+X6kwYIy4ujsLCQunn69evA3Dp0iWGDRtGTExMs+utW7cOgIqKCry9vaUUuSqVirlz5xIbGwtolPlhw4ahVCqlseHh4QQEBEifAwIC9GpX6O4tJiaGmzdvCuNbIOgGtKiACwSCjkdUwhS0hu4YhPk40RrZLi4uTJ06hdTUVFJTUwGYMWOGFPzZEkuXLpVU7PDwcAYMGIC/v3+zwfm6hda01ZejoqKYNGkSUVFR0jF/f38mTJhAcXExp06d4ocffiA1NVUyqoOCgvDy8tLbA2iU8Ly8PMmYFwgETzdCARcIuoDmKmEKBFpEEGbrUalUXLt2jcrKSmpra/n1r3/N2LFjqampYerUqbz22ms4Ojq2eV6ZTEZERITkImKKHTt2EBMTQ15eHgsXLgTgL3/5C2+//bZePw8PDxYtWkR2djZKpZK1a9fqKdoymQyFQsHZs2eltqysLOLi4oiOjm7z/gUCwZOJMMAFgi6g+UqYAoEG4YLSeo4dO8bevXu5efMmu3fvxtzcHC8vL8zNzVm4cCHDhg1r99wODg6t7peamsqpU6ektub8x+/evcvAgQNbnHfVqlUEBwcL1xOBoBvxyAZ4zp16hg0bpvd6YGbLjduqlgc/IiUlJcyZM4eqqioOHz5MXFzcY19TIOgIgoKCSE5ONmgXCrhAl+XLl5OTk9PV23gqSElJoa6ujl69enHjxg3Onj2LhYUF5ubmJCcnk5SUxP377cswVFFR0aJ6HhoaSmhoKLt379b7v6ioqMjkGCcnJwoKClpc/+jRo4SHh5Odnd36TQsEgieaRzbAGxsbqKurkV7V1ZVUqSpM9q+qquJPf/oTw4cPl17txcXFhSVLljB+/HgSEhL41a9+1e65BILOxFQQplDABboIBbz1WFtbk5OTQ2JiIvfv38fKykrK+W1lZYWlZftCnrKzs4mLi2PGjBltHrtmzRq2bdtmMF9SUhKenp7I5XK2bt2KSvVQsFKpVMTGxjJr1iypTSaTsX//fgICAvT6CgSCp5dHDsJsbGxg2bJAbty4AYC6sZGYj3aAmbVB36qqKhYtWsTKlSu5dOmSVBXrUVi9ejWrV69+5HkEgs7EWBDm2kkyFoxZwBxzmy7cmaCruJ5VxNxhdkCD1CaCMFvPjBkz2L59Ozk5OYwePZopU6aQkZGBWq0mPz8fS0tLXnjhBezt7Vuca9++fZw9e5br16+jVCqJiopqdSrC2NhYKegyPDycxYsXExgYyIwZM6T5jh49CoBcLic1NRUvLy8UCgUVFRXExcWhUCgMAj49PDzYuHEjixcv5vjx4+35FQkEgieIR1bAGxoa2LlzO8oj/+BI0n4O7oujrtZ4ztrjx48zZ84cgoODDYzvuLg4PVV8+/bt0rHt27dL7X/605+kdl31XPulZWy+EydOoFAo9OaPi4szueaJEyekNoVCQVVVlcG5KBQKvceMw4cPJyMjA4Bly5bprd3c+Wn3AZobFN15dPtnZGSY3JfumIyMDOn3oPtz0z0rFAq9MY/yJELQdowFYQ6yt+SLL76gt1m9ePXAF8AAO31NRARhtp6ZM2dK1S6DgoIYNWoU1tbWODo6MmHCBKZNm2bS+A4ODsbNzU36eciQIQB4eXmRmpqKXC5vdu3NmzdLP+/evVvqL5PJOH78OMHBwQCMHz+eY8eO4ePzMNNRVFQUu3fvBjQ+5Pv379fLqKK7t2XLlrFq1SrhiiIQdAMeWQGvul/OrbxyamseoFaraWyop/K+GX1sDL/ojh07pmcQNsXX15fY2FhKSkqYNm0aq1ev5vDhw5w6dYpLly4B8P7773P48GH8/PykcSUlJaSlpUmfT5w4wZEjR0hLS8PFxQWA2bNnk5GRQWxsrJTGKS4uzuias2fPlvwuN27cyPHjx/XWa4nExEQA8vLymDt3rjSXsbV02bZtG76+vnpthw4dYuzYsQCMHTu23fvS3ggY44MPPmDixImtOzlBh9BcJUyBQIuohNl67O3tGTRoENbW1jzzzDM0Njbi4+PD6NGjGTRoULMuKLoGdnPGtm6RHoBBgwYhl8v1DOaW5jeGp6enQfEeU2OXLVvW7FwCgeDp4JEV8Hs1lhy8WMn/ZTZw5GojX/xsRp7KFkdZrzbPlZyczPDhw5k2bRoRERGAxmgPCwvD1tYWW1tbgoKCOHbsmN64iIgIPcP+wIEDhIWFScZ3W9fMy8tj48aNLFu2jH379pkM3ImIiDDqx65V4+fOndviWloyMjK4ceMG06ZNM7nX1u6rKVVVVXz44YesWLHC4FhcXBwLFy4U5Zk7GVNBmMIHXKCLCMJsG7a2tvTv3x97e3saGxuRyWQMHTq03f7fAoFA8Lh45G+lueNdgeZ947SMGzeOlJQUSdFtilYhrqqqYvz48dJju+Y4ceIE48aNMzlnSxhbMyQkhLfeeouwsDCjRpKWiIgIaY9aI1yrvv/+978nNjZWzzhv7vw++OADtm3b1ux6rd1XU7Zt28Yf//hH7Ozs9NqLi4s5cuQIiYmJek8QBI+fnJwc6uvraWho0GsXCrhAl+TkZOLj4/nkk0+6eitPPI2NjUydOpXnn3+efv36SQGYHUlLSrZAIBC0lk7NA75kyRL+/Oc/c/jwYUCjzLaUOnDevHls2bKFqqoqqqqqiI+PZ968edJxY8qu7pj2cO3aNcaPH49MJuPIkSNtGltYWIi7uztjx45t1u1Dl4iICBYuXNiiYt+efSUnJ3Pjxg2mTJlicCw0NJTf//73rZrHGPX1DS13EhhQX9/QLgX81E93SL5covf6OrOUu5V1j3O7gOZazcvLk34uKSl57GsKRBBmW2hsbMTS0hInJycaGxsfiwEuEAgEHUWnPpdzcXHh+PHjxMTE8M477wAPI8fhoYsGwJ///GcA/Pz8KCgoYPz48QC88847en7Pf/zjHw0COpuO2bFjh0HJ7+bWjIiIYO7cuUycOJHp06e36Rx9fX3ZvXs3w4cP1zs3U2sBTJw4sVVqf3P78vf31/usUCgkt5ym7i5a3nnnnXY/OUg6cYaa2loWz/XC0tKiXXP0ROrrG/jH8VTGjhvf5kqYA50dmDd5BAAa20LN5dwCyu6U4WRnZXKcNtgWaPe/N8DcuXOJj4/nm2++YfTo0W2KixC0DxGEKRAIBN0Ts8rKSqMywdWSajadKGTW0F74D+3sbQkehabBpo9KxDk1J05bUlgk/Cg7iv9vcR7xF/qSdl1T3MN9aC3/z3w1Fpf/j1/+8pdGx2QVVzPrRXdAc8nW1VZzMesm9Q1mPNvfsEJeRkYGa9euxdnZWfLxf5S/ie+//549e/Ywbtw4kfrzMfDTTz+RqBpJZVUNWxYOor+dFZ9//nm3CcK8XVlH2JF8RliUsCnA8ImcoOfwzYWfiM2yIXK2G6Nd2h4vJhB0B4RFJWgV5RUWnP7Ajps/pzN8yEAmjh8FQNY/b3Im/YpQwltAq3xP9Xyekc8Nxt3dh1DF73hruicVtuMJ31sPNDSrgDeqG1i3bh0FBQVSxqGwjf+JmUVvg74lJSWsXbuWrVu3GqjeJSUlei4kTY/n5eVRWVmp156RkcGUKVOYMmWK5I7i7u5udIz2Zy1a1ypTa2r7P/fccx1SG6A7sXz5ct544w1qaoyndhUIBALB04kwwLshY8eO7TD1W5fvz13i5XEPjW+Akc8NBuAfx1OFEW6CpsY3IPlTn7v0E38/nQU8A2h8wE0p4LU11YT/xzrqamtoVDdQV1PDP4tV9JYZGuAHDhxg5cqVRl1OkpOTiYiIwNfXl7KyMkCTOrOqqoo333xT6ldaWkpSUhK2trb4+/tL2Tjef/99ysvLpYDif//3f+fnn39mxIgRLFmyhJ9//plTp05x7tw5fH19WbJkCYWFhUbXPHHiBAcOHJD2pZs6VCCCMNuDWq1GpVJx6NAhTp8+TWNjI9OnT+dXv/oVzs7OVFdX09jY2NXbFAgEPRxhgAtahZW6loEuTnrGt5aRzw3mQXUN//P5EexltgwfMpABzk6kntc8Nu/pn+vq65k17UXJ+AYIDAxkxYoVzJ8/n2+vZtBLXQNYNquAV6oqyMstoramGlCjVqu5X9MLW/v+Bn0vX77cbM79iRMnolAoqKysZMuWLQDs2bMHd3d3PvzwQ0CTonLPnj167iYZGRk4OjpSXl4OwMGDB3F0dOSrr76S+syePRsfHx+DnPvG1pw9ezazZ8+mqqqK999/n+Tk5FbFQ/QURBBm26mrq2Pv3r0cPHgQCwsLJk+ejLe3N3Z2dty9exc7OzsDA1w3v7c2t7cu2dnZfP311wDMmjXLoEqlSqXi1KlT5OfnM2jQIKZPn45MpnELKyoq4vz589Kc2dnZFBUV6RXj0WXHjh0GayiVSl566SW92gHp6emoVCq9eYqKiqQ6GU3rDKSkpFBRUYFcLpf6aTF2zgKB4PEiDHBBq2jAgp/z8nlQM4reNtZ6xx7U1HImPROvic/T19EemW1vbGysmDFFEwTb0z+X3bvP+ctZjHruWekJwZQpU3B1deVu+X2u3SqmBo1vd3MKeF8nZ26oHjxsMANbRytc+hh329B1A2nKuXPniI2NpaysjAkTJgCGRvuECRP0nqRUVVVJ6TK1gb1paWnNGvotrXnixAlCQ0MZOlQTaPL888+3aq6eggjCbDtVVVWcPHmSmpoaRo0axbJlyxg9ejT//Oc/SUlJ4dVXXzUYExcXh7u7O0OGDCE8PJz8/HypuE54eDhKpVL6Ow8ICEAul0vl5rOzs5kwYQJr1qxhyJAhpKam8uqrr3Lx4kU8PDwoLCwkLi5OMnwDAgIMalnosm7dOoYPH86PP/6ot7+BAwfqGdUbNmygpKREr19hYSHr1q0DMCgO9Lvf/Y4xY8Ygl8spLCwkNja21deuQCDoeIQBLmgVjWYWeL7wPJ8eOMavl8yTjPAHNbV8euAYvj4v4erspDdGZttbfAaGPDMAe5ktnyd9xeuL5mBpacHUqVOROTiyV3mS4SMnoM5qoCUf8FED7QHjpbSbMm/ePA4dOmQ0/SQ8zEkPmhz27777Lo6OjhQXF0tuK5WVlTg6OkpjDh48SGBgoJ6LSNMxzWFszdDQUI4fP467u3uLKUl7IqISZtuwsLCgtLSUyspKLCwsKC8v5/Lly1haWnLgwAF++uknowY4wNKlS/H09GTMmDEkJCQAGuX5hx9+IDU1VVK0g4KC8PLykvoHBASwd+9ePQV5/PjxbNq0SZoHNCr58uXL2b9/v9EquLooFAp27NhhssJmUVERHh4eeHh4kJKSoqeCT5s2zaCcvVKpZMyYMXpzjBkzpsUKngKB4PEhDHBBq7AwV/OfB6yxNvdkc8o/ce2vMbaLbt/FydGT+KsWQEXXbvKJRsaDmtF8eCKHAc5OZH+yjCE+b8HQZdypNAM0OdWbU8Dbwty5c0lISGDjxo0EBQVRWVnJoUOHJPeSsrIyMjIy9FRyf39/goKCiI+PB2DLli2EhYVJx7VFm3TRHWNnZ4eLi4tJH25jawJcunSJkpISdu/ezcqVKx/53LsTIgizbVhaWmJlZYWZmRkWFhaUlZVx6NAhUlJSyMvLa7bi7759+zh79iwnT54kMjIS0Biua9eulYxvAJlMhkKh4OzZs1K7sXLxq1at0muLiopi7dq1Bu4rxggKCmLx4sVGXUkAPvvsM+RyOQ4ODnz55Zd6BrizszPu7u4olUppX3FxcQQHB+vd5GZmZkqpcidPnoynp2eL+xIIBB1Hiwa4uraa7OybeHp6kp6eLt572PuECRMYfvsY0yZN4o0XXOnT25KycjPOXc4EYOLMEfR1bJ0qK7DlVlE9WXk/seu7i9wqU/Og3oLrd2tJvHoPsOmwSpi2trZ88sknHDx4kNjYWBwdHfnNb34DgJubG3379pXU6EOHDgEat5j4+Hj27NkDQFhYmKSg+/r6sn79emn+cePGGR2jUChwcXHBzs5O6tPcmtqx48aNY+PGjR1y7t0JEYTZNu7du8dXX31FXV0dZmZmgKbib0FBAWZmZsybNw8LCwuDCrRN+d///V+ioqK4e/cuAwcONNlPpVIZKMvGSEpKYvjw4ZLbSkvIZDI2bdpEZGSk0YD6uLg4SZWfP38+4eHhejcJb7/9NmFhYcjlcrKzs3F3d2/2PAQCQefTYh7wxY43eH1B24rRCLoXuy/e46usu1JuYoCi0rsABm4ngpa5fquYiN+/S3BwMLNnz9bLud9cHnBB98ZYHvCMjAxOnz7Nb3/7267e3iPzOPOAq9Vq7t+/z/79+0lKSqKmpgYbGxssLS2pq6vD1tYWb29vAgICjBbACgwMZMOGDZIKbGdnR2VlJQqFArlcbqBwa5XjWbNmERAQoOeHrUU7R3p6OtHR0cyYMYPr16+3aIRrx+nuKzo6Wtpfeno6K1eulPy3Y2NjiYqKQi6XS2slJCQQGBjIli1b2LZtG0uXLgWQjun26wpEHnCBoBUKeL3TkMeycGVlJUePHkWtVmNubi6165YPbmxsZNCgQUydOlVSMwSdT6/cU8B4vTZheLefIc8MYMqUKW2uhCnoeYggzNbRq1cvdu/ejVKp5MGDB/Tt2xe5XM6kSZOora2lX79+9OnTp8155uVyOVu3btXLaqJSqYiNjWX//v2SO4muuwdoUmyuWLFCb67Q0FAUCgWJiYksW7asVetv2bKFefPm6ans+/bt01tL61rS9CZBoVCwbds2lEolUVFRpKent+ncBQLB46VFA9zy7nWg40th5ubm8uWXX/CrX/0KCwsL1Gq1ZGQ3NjZiaWlJcXExX375JaNHj6ZPnz4dvgdB66geNh2y7nb1NroVU6dONerb2VE+4ILugQjCbBkrKyvMzc357rvvKCsro3///vzyl79k2bJlksFdXV3d4jy6PuBr1qwBNAZ4amoqXl5eKBQKKioqiIuLQ6FQSMb3/v379bKg/Pjjj6SmphrNdBIdHY2XlxfPPPOMyTSEuri6uqJQKFi3bh0bNmxApVKhVCoNFPcXXniBoqIivTYfHx9+97vfmVTcdX3AwTBrikAgeLx0mQJeX1+Pm5srfn5+3Cm9w40bNxjq7k6fPn0wNzfD3Nyc69evc+PGTZNFE4qKiigsLMTNzU3PmFGpVGRnZ0ufdYNLtGOMHQNNSimVSiV99vDwQCaT6akH2jbtWoWFhXh4eEjrNp1T61Pd3PxPMsYUcGNoi8voVkhsqb9MJqN/f8M81t2ByspKSkpKjP4+goKCeO+993j99df12oUCLtBFBGG2jFqtyYnv7OyMWq1mzpw5+Pn5YWFh0SrDGzQqsjYPeHBwsJ6aHBUVxdKlSzl79iwODg56yjdovsOLi4s5cuQI5eXlyOVyoqOjpe91Nzc3Kbe9TCZj//79nD9/3uReNm/erPdZaxi7ubmhUqmMGtQfffQR9+/f11sLYPfu3dJedY+5ubmJFIQCQRfTZQo4QF1dPeXl5Xz9zTccOnSIgQMH0qdPH1577VWGDx/OgwcP9FxStKhUKkJCQsjMzGTMmDHS+86dO5HJZGRnZ+Pt7c2iRYvIzMzExcWF48ePA3D48GFiY2MZM2YMpaWlpKWlsXnzZulLbtOmTZSWluLs7AxAZGQkHh4e0nzaMbm5ubi6upKdnS350mnX1Z0PwNvbW/LpMzX/k0xrFPDg4GDu3LnDtWvXWLJkCR988IHJvleuXOF//ud/+Oqrr/jDH/5gYIR2ByorK/n+++/55JNP2Lhxo0F+65ycHOrr6w2CwYQCLtBFBGG2TH19PdbW1kRFRaFWq7G2tqaurs7o/x2maKkIjaenZ7NZQmQymUm3EldXV735tekDdYv/wMNiOMaUaN02Y3vVVdN1j+vuWXcfrq6uQvEWCLqYLlPALSwssLOzw9LSkmHDhuE7dy4jRo7E0dEBBweHZqPUQ0JCcHd31wsgCQ8PJyoqSlIHFi1aJB2fO3eungqtUCikL5+ioiLmzZunVwksOjra6Jetdr6YmBgOHz5s9AtMm4PVVPqo5uZ/UmlJAf/66685f/483377LdeuXePXv/41q1atMqmEnz59mrFjx+pVT+xuXLt2jZiYGK5du4ZSqWTo0KHY2dlJx4OCgggKCmL27Nl644QCLtBFVMJsHVVVVQCYmZlRV1fXxbsRCASClul0BbyxsZHGxkZcXV3x9Z2HWq1m1KiRuLj0p7q6muzsHC5fzmDWrJlGAy+LiopISkoyyCUcHh7OgAEDjD6e06rNxnB1dSUqKkoviCYrK0s6bsxQdnBwMDmfs7MzCoXCZPqo1sz/pNGSAq71Pezfvz8lJSWApmS5KQM8NDSUK1eusHXr1o7f7BPC0KFD6devH6BRtnSNb9Dk3TUWhPnFF1/g6+tLRUUFDg4O4r0HvQOY1eu7moggzO6LKP0uEPRsOlUBV6vVXLhwgYaGBgYPHkxhYSG9e/dmwoQXyMzMJCXlNGVlZTQ2NjJu3Fisra0N5igsLGTRokUG7U39qEtLS0lPT6egoIDMzMxm3TwGDhzI3bsPDcxdu3ZJRruuyp6enq4XAW8KHx8fYmNj9VR3XUzN/6TSWh9wXe7fv/94NvOUYGdnx2uvvcbUqVO5fPmywXFjQZiW927wyoIF9O/fH5lMhr29vXjvQe937txhQs1lTps9zJ8ugjAFAoGge9KpCvjt27f5/PPP8fHxYdSoUWRkZHD9+nXGjRvHnDlzmT59Ojdv3uR++X3c3Z/jzp1Soyp4aWlpi2ulpaURHR1NUlISubm5bQp0NOUiop3v6NGjLfpta9NHGcsP+7S5oLQnC4qHhweVlZVUVVXRv39/bt++ja2trYES3J3R+nLPmjXL4JixIMzeNjZ88cUX/OY3v8HGxgbgsbxbWFhQVVXF/fv36d27N7169Xqs64n31r/3GvWy3rUmgjAFAoGge9KpCnh9fT1VVVVkZWVhZWVFYWEh5ubmXLlyhVu3bmFlpdmOWq3mTuodCgsLefDggZ4R7unpSVpaGtnZ2XpGcHp6OtOmTZM+a33AU1JSCAsLa1Zp3rlzJ35+fi3uPyEhQfIZ11YhM4U2fZRumqenlZYU8BdeeAGAzz//XAoqGjNmDO+++y5fffUVV69e5eWXX24xOLMnYSoI83H7gJuZmfHll1+SlJRERUUFHh4erFy5ksGDBz/WdQWto+m1JoIwBQKBoHti3lIHjQLeMQwYMICXXnqJM2fO8NFHH3H37l1GjRpFWVkZ165d49q161y/foMbN26Sm/tPKiru4+XlZaCa7t27lwkTJqBUKklPTycxMRFvb2+io6MN1vTx8cHJyYnExESp7fr166Snp5OSkoJCoSA7O1svgj0rK4v09HTS09MNcqu6urqyceNGNmzY0OL5BgUFNeuq8rRQPaz5SqjPP/88n376Kd999x0VFRV88cUX2NnZsXjxYtauXQvA2rVr9ZRgW1tb5syZYzJQtbsTFBREcnKyQfsXX3zxWNdNT0/n4493cfv2bSwsLDh//jx///teamtrH+u6gtbR9FoTQZjtRyv4VFVVUVNTo1drQiAQCLqaTlXALSwsCAkJoaSkhIsXLzJv3jz8/f2RyWTMnz/f5Liamho9pVAul3P69Gl27tzJ3bt3cXd35+LFi5IiLpPJePHFF6X+2jK+CxcuZNCgQZw8eZLo6GicnJwMygy/+OKLHD58WPqszQmr63e+bNkyLl26RHZ2tt5aTdeVyWRER0fr3Ri8+OKLT3ze76a0xgd80qRJTJo0Sa9t1qxZktHdNGOMu7s7f/3rXzt0n08TpoIwH7cCfuvWLXJycti48V1mzpxBZOT7XL16VUrl1hSlUslLL72Eq6urXto0R0dHZsyY0aobqKKiIk6ePGk0TZtKpZLyJwN62YOaO6ads7y8nDFjxuilYdPm7Nd182p6Hg4ODibHGHtqNXny5E5xG2t6rYkgzLajVqspLCxk7969nDt3DktLS1555RX8/PxwcnKirq6O+vr6rt6mQCDo4XSqAq5l2LBhODg4MG7cOMzNzSWVwtQkUwqTAAAgAElEQVTLWEpCT09PYmNjSUhIICoqyqAwwvr166XPMpmM2NhYZDIZcrmchIQEEhISiI2NNYhEX79+vXQ8ISFBOt7UhUW7pu5aTdfV7lN37Pr165/4vN9NaUkBF7Sd5iphPk7UajVWVlYUFBRw9epVKisrsba2NqkMxsXFSYWr4uLiuH5d831w6dIlhg0bRkxMTItrfvbZZ6xatcrgaVJ6ejoDBgzg0qVLBmOaO6ZUKhk2bBg3b94EIDY2lrlz50oFrs6ePcvZs2ebPY/58+fr7cfYmNjYWOl8O4um11pycjJBQUGduoenndraWhITE6Wy9JMmTWLu3LnY2dlRUlJitLBbTEwMgYGBBAYGEh4erlcsDTR/j6YK16SnpxMeHi6NVyqVgKbomrYtMDCw2WtFd5zunrQF5ZRKZbPHY2JijM5fVFREYGCgXj9j52lqr0qlUmrTPi0WCAQdQ6fnAdcqbTY2Ntjb23fo3ILHQ3uyoAiap7MrYVpYWAAwatQoZs6cwYkTJzh27BgODg4sWLAAKyurVs2zdOlSSQnWpv709/dv9qYyOTmZXbt28dlnn0k3qCqVCm9vb70nV1qaO1ZUVMSrr76qdyw0NBSFQkF8fHyri4ts3rzZZGyIdo6TJ0/qnW9n0PRaE0GYbef+/fucO3cOtVqNq6src+fOZeDAgVy6dImUlBRWrVplMObChQv4+fkxcuRIvvrqKxYvXiwVbwNNmfrU1FSDzFZKpVKqQbF06VLgYUYulUpFaWmp9AS0uSefSUlJZGZmMn36dKnfhQsXmDNnDoBewR7dPWuPX7hwgaSkJJYvX653Y3/48GGSkpIkl0nd89y5c6dUO8PUXvPz83F3d5cqgQYEBBhNLCAQCNpOpyvgdnZ2+Pn58d577zF27NgOnVvweBAKeMeTk5PD8uXLDdofhwJ+69Ytzp8/z/Xr16mqqiIkJIQRI0ZQX1+PXC7H19cXS8sW78UNkMlkRERE8PXXX5vsk5KSwqRJk1i4cCFxcXFS+6lTp1izZo1Rw725YydPnjR6LCQkhJMnT7Z675MnT8bJyYmUlJRWj+kMhAL+aFhaWlJeXk51dTWWlpbcuXOHtLQ00tLS+Pzzz0lNTTU5duTIkXh6erJ+/XrS0tKkdpVKxQ8//EBUVBT79u2T2rU3g6mpqcjlcqlapu7fprOzs9F2Y+gWkmsPa9as0XOfBNi/f79B2l7teTZ9+mtqr0OGDMHT05PQ0FBycnLavT+BQKBPiwZ4RyvgNTU1WFhY8MwzzwhV5ylBo8oJOhJTQZgdrYCrVCri4uI4efIkubm5fPzxx1hYWDBixAjMzMzw9vbG3t6+TWW7dWmuKBXAl19+ySuvvIJMJsPLy0syePPz8xkyxPh3S3PHysvLTR5rK5s2bSIyMtLA3aAraXqtiSDMtmFhYYGVlRVmZmaYm5tTUVGBUqnko48+4ty5c9KToOZo6mZx6tQpfH19kcvlKJVK6e/l5MmTREREtKhsN3VNMYVcLicvL0+KR2grr7zyil7xN6VSSUBAgEG/DRs2SC4ob7/9dqv32tSFTCAQPBpd4gMueLoQCnjH01wlzI5EpVJx5coVevXqhYWFBdevXycjI0Py+f78889JSkoyGmfRGioqKnB0dDS59l/+8hcyMzPZsWMHd+/e5csvvwQ0QZym/Kvbe6ytuLq6EhAQQHx8fIfM1xE0vdZEEGbrUavV5Ofns2/fPmpra1Gr1ajVasrLy7lx4wbm5ubMnDkTc3Pj/+1pDdMJEyawd+9eqV2pVOLv7w9ojORTpzQ3SeXl5Xo3oLr+1VqmTZvGhg0b2LBhAy+99FKL5xAZGdmqDFvGkMlkBAcHS8bz1q1bjT49WbVqFRs2bEChUOg9hTO119jYWAIDA1m+fDmnT59u194EAoEhna6AazEzM6Ompobq6upmX/X19SJ1VBcjFPCOx1QQZkcr4Obm5vTq1YvvvvuOxMRE6uvrsbGxobGxETMzM4YNG8aIESNMGiXNkZ2dTVxcHDNmzDB6/NSpU3qPv2fMmCEpiDNmzOAvf/mLgdrY3mO6ufwdHR31/FRVKhVJSUm4ubkZ7DE0NLRLgi1N0fRaEy4orae0tJQ9e/Zw8uRJ6uvrkclk9OvXDycnJ4YMGcLrr7+OXC43GoQJDw3T4uJiyT2jqKiIPXv2sGnTJkkZ1hq4gwYN0vs78/f3x8/Pj6SkJKlN162jNRmDPDw88PX11Uub2xaWL19OXFwc6enpTJo0yag6r3VBCQ0N1XO1MbVXuVwuBaA+bRm8BIInmU6thKmLtiqmlZUV5ubmmJmZSYoFaAz0uro6Bg8e3KYgMUHH055KmILmMRWEqa2E2VE4OTkxb948du/eTVFREd7e3kyaNImsrCzq6+tJT0+nrq6OYcOGtcoI37dvH2fPnuX69esolUqioqJMGhZxcXFERkbq+ZNev36dU6dOIZfLpXz+ERERODg4sH//fj777DNcXV3bfMzZ2VlKc7hw4UIp0O6FF15g//79REREmNzn7t278fb2ZvPmzW399XY4Ta81EYTZOmxtbSVXq/r6elxcXFi2bBne3t7U1dXRt2/fFoUcrWGqi9bNRBvsCLBy5UqKioqYPn06r776qpTK1sPDo0PcmVavXo2XlxcuLi5S26BBgyRFWyaTkZ2dTVJSEjt37tQb6+rqipOTk5R6tzlau9chQ4bg4+NDdHQ0CoVCLzhVIBC0n07PgqLl5s2bXL2aSUhICBYWFnpFEhobG7GysuLWrVucPp3Kyy+/jJOT02PZh6BlRBaUjqezKmFaWVkhl8spKCggLy+P1157jQEDBuDi4oKHhwcLFy5k6NChJn1jg4ODJeU4ODhYysbg5eVFeHh4s4rYjBkzDALP3njjDcmXVC6Xk5ubKwWOaQ3sth7btGmTXk5vmUxGcXGxlEO86XHdcwJNqtC9e/cycOBAk+feWYhKmG3H0tKSxsZGLl++jEqlYsiQIbz22mssWLBAym3f3kJTH374IceOHdO7eQsODpby2l+8eJGAgAC2bt2Ks7MzSUlJrFmzRuqr9avW0lxFZi0ymYyPPvpIrzaGXC4nLi4OLy8vxowZQ1JSEnv37jV6/YWEhLBhwwaT2Xs2bNgg7VXX1aalvXp6euLr68uOHTtanW1IIBCYxqyystJo9NXVkmo2nShkseMNXl/Q8T7AFy5c4B//OMAHH0Rx8+YNfrr6E0OGDqVPnz7069eX3r17c+3aNT755H9ZvXo1ffv2lcZmZ2fj5uam9+XTND1UUVGRlPfXw8MDmUxmENzi6emJSqXSe5xt7EvL2Hq66M6rO153bplMpmeMaI81bTd2LiqVisLCQklhyc7ONtindozueTc91/ay++I9vsq6y5aFg+hvJ55EdARvvvkmQUFBzJ49W7rW/AaUU5VztkMVcABra2s+/vhjMjMzWbduHQMGDJCKkdjY2HSIi1fT4jWdVbimO/HNN99w3clT71rLyMjg9OnT/Pa3v+3q7T0ytyvrCDuSzwiLEjYFTOmwea2srLC0tGTTpk2UlZXh6+vL7Nmz2+RWZeo7vul3Meh/H+uOV6lU0v812n5NXaVMXRPG1klPT9ebz9Q6xvZfVFQk3TToHtOOB3Bzc9MremVsr9qb5ab9HvXa/ubCT8Rm2RA5243RLr0eaS6B4GmlyxRwtVpNTU0dlZUqzp79gYMHD+Lm5kafPo4EBQUxYsQIk49dN23aZHCH7+3tTWVlJaApapCZmcmYMWMApMfg3t7eej6pCQkJZGdnS+2ZmZm4uLgYPGLTPu5uWmQnPT2dlStX4uLigrOzszQnQGJiIqtWrZLWe/HFF6XxMTExREREsGjRIkpLSykpKWH//v3SF7ruuYDmCzQ6Olpvv5s3b9ZTIbRjzp8/T1xcHKWlpaSlpUnrt0Z5MYVQwDuezq6E+eyzz6JWq3FyckKtVmNpadmu1IOCx4uohNl26urqsLS05L/+67+kJ6nV1dVtmsNUikBjhqYx0cTYeJlMZjA+JiaGCxcuSJ+1/y8YW8dYm6l9Nm3XVeybFqkzhrG9Np2nuX4CgaDtdJkPuLW1NU5OfbCyssJzwgTsZTKeH/s8Dg4OqNVq6urq2jVveno6paWlJosFGDNEFy1aJLXPnTtXT41ISUlhzZo1BgZ4UVERK1euZPfu3QZfSCkpKezatYvc3FyDL7AdO3aQnJxMcXGxpFZo00W1tsDBtGnT2L9/v15pbi1af8T09HTJaH9UhA94x9NcJcyOVsDr6+vx8vJiypQpUgBmRyMeSXcMTa+15ORk/vjHP3LlypUu3NWTz4MHD7p6C63C399fz59cBDUKBD2XTs+C0tDQwIMHD3BxcWHWrNnU19fz7JBneW7Yc+Tl5ZF0OIm/J/6d4uLidj0al8lklJSUmMxZmp6eTnp6usmSulolW0tCQgJvvPEGa9as0Sva8dlnn6FQKIyqAZGRkURHRxs1sGJjY4mNjdX74pXL5bi4uLQ6/6uzs7OUw7gzEFlQOp7OygMOD2Mqevfu/ViMb0HH0fRaW758uSh+0o3w8PCQMo20pjiPQCDovnRqHvDGxkZOnjzJd999R319Pbm5uVy8+CNWVlbk598iJeU0F3/8kcyrV6moqGiXAe7h4cFHH33EsGHDCA8PN4j0jo6OJjo6mkOHDkltpaWlpKeno1QqyczMlL4UVSoVqampeHh48Morr+ipyRcuXDBZICMtLc3kY7qcnByjX7pNDf+W8PHx4e7du+0u2tAWRB7wjqczK2EKnh5EJUyBQCDoGXSqD3hxcTEHDx5k5syZ2Nra8vPPP1NQUMCkSZOYM2cOc+bMpqCggPvl93l26BBKSorbtY6Pjw/FxcXEx8czYMAAPXcPYy4ZaWlpREdHk5SURG5urtT31KlTeHl5kZ6ejkwmY8+ePURHR+sF2ZhCpVKZfLzY3LG2sGXLFubNm9dq15X2InzAO56goCApCFOXx+UDLng6aHqtiUqYAoFA0D3pVAXc3NwctVrN+fPnOXDgADdv3qSmpoYzZ87wt7/t4H//dzfJycl89/137Nu3l/37D/DgwQOj0ey6xq8xdxOZTEZoaCgREREcOXKk2X1pfcCPHj1KWFiY1L5161bu3r0rqebDhw+XqqD5+fmZ9K9esWKFyTWNHdMWCmmaJUVLQUGB0TSMrq6uKBQKgwwUHY1QwDuezqqEaYy6ujoePHjAgwcPpFgLUezqyUBUwhQIBIKeQacq4K6urkyfPp34+HjOnDnD4MGDmTx5MnZ2dtjbOxgU2xk8uDfTpk3D3t5erz04OJj58+dz9OhRZDIZGzZskIpo6KZTUqlUxMXFsXv3bmmsrstGU1cQHx8fEhISSExMlKr76RrZ2dnZKBQK5HI5CxcuZNeuXSgUCkJCQlCpVCQkJBAbG0tYWBgTJkygvLycyZMnU1BQQGZmJuvXrzd6bOvWrWzevFlSxdesWcPixYuJjo5GpVLx6quvmiwBHBQUxOLFi9v079BWhALe8XRWJUxdGhoauHHjBp999hk//fQTtra2LFmyBF9fX+zt7ampqWl3SXpBx2AsD7gIwmwft2/f5s6dOzQ2NuLg4ICbmxvW1tbib1wgEDwRdGoWFLVazWuvvUZ+fj7nzp1j4cKFzJ49G1tbW37xi1+YHFdXV6f3pamtohcbGwtoSghrq+AVFhYSHR0NaKoAfvTRR5I/9qJFi6RjoAmWlMlkvPjii1KbtoKYvb09a9eu1duHh4eHlItbJpPxj3/8g/j4eKKjo3FycpLUcw8PD3Jzc9m2bRsnT57E3d2d8PBwo8ecnJwMCoWEh4frzXv06FHpHJruVyaTSQq9Lk37PQoiC0rH01mVMHUpKytj165dpKam4ubmxvTp0/Hx8cHCwoLCwkL69OljMCYmJgZ/f388PDz0Uqg5OTlJGXdMkZ2dzaFDh/SyB2nLeMvlclQqFUeOHJEK6mhTsimVSuLi4qQxwcHByOVyvfW115SuK5dKpSIkJIQtW7YY3NwUFRWxbds28vLy9OZ80hCVMB8dtVpNTk4Oe/bs4cqVK9ja2hIQEIBcLpcM8PYW5hEIBIKOokvygLu5udG7d288PDwwNzdvc85WwOR//h4eHiZdQ0y16xoIMplMMuyNoXtM6+ZiLAWbq6srUVFRRudo7lhL83p4eBjkI/f09DQ4N2P92otQwDuezqqEqUt+fj5XrlzBysqKoUOHsmDBAvr06cOZM2c4f/680b+3CxcuSGnTLly4gJ+fHyNHjqSgoIC4uDi2bt1qsjS1SqXSy3ms3YOWqKgo7t27J5XM1hrT+fn5uLu7s3TpUgCpGqXu+jt37iQqKkrvOjp16hSZmZkcPnxY71y0+foVCoXBnE8aohLmo1NbW0t8fDwpKSkMHDhQemLZq1cv8vPz6devn8GYwMBAqbZESkoKkZGRpKWlAUg1FwIDA0lKSgJg+PDhUu2G9PR0vL29OXr0qJ6QYmdnp1fPQSAQCHTpVB9w0KjZdnZ22NnZ4ejo2KFzCx4Pwge84zGVhvBx+YBbWVlRXl5ObW0tlpaWFBYW8u233/Ltt98SHx/f6mw6I0eOxNPTE7lcTkJCAiUlJXrpOdtCXl4eISEhRlOyDRkyRGrXVbO164eEhEhqthatu1nTG2htvv7Q0FCjcz5JNL3WRBBm27l37x4//fQT1tbW9OnThxdeeAFbW1u+//57Pv300xbHz58/n+joaCorK6msrNS7mTt9+jSVlZUoFAq2bNkitQ8fPpzIyMhmA/MFAoFAl05XwO3s7PjlL3+Jl5cXAwcOFI8CnwKEAt5+SkpKOHjwoEH7sGHDuHz5MtnZ2VTXN2JpNxUwf2wKuKWlJdbW1oAmGLq4uJi9e/diY2NDUVERo0aNate8CoWCzMxMPeWvtQQHB7Ny5UqioqIMnmbFxsZy8uRJ4GElW12aBiYXFRVRWlqKp6enlLnI09OT7OxsXFxcnprqfb1yT2HxYDB/33MUS3Mz6uvr+f/Ze/e4KOu8//85nIVRxEjANCMcLVYTtLQVVEqlAwW6oV8JuKXMZZ3v/tawlV+y3Ty8bRf3C6XWr6Vcv7Z6i0FIKSzjKmppCluajrZE6YiEi3IQTzCAnGZ+f3DP5Rw5hY6Hz/Px4DEzn+tzusYZ53W9r/ehvb2djz76yKLvr371K4YPH26HXd6+uLi4oNVqpQvNuro69u3bx4ULF9i9ezf19fW9mqen/NwNDQ1MnDhReh0YGEhYWBjbtm0TRakEAkGvuOWVMNva2nBwcMDb21uI7zuE1oemwRlh2ekPlZWVuLi4EB4ebrPP7j17cNXWACNumg94eXk5RUVF6PV66a++vh69Xs+wYcN49tlnkclk6PX6AV/bFhEREYwdO5bU1FTWr19PZmamJHwiIiKsuoskJydLOfONLZAHDhxg8eLF0tjt27cTHByMVqvtc459e3I9YCYuxSUMcnPhmWeesdmvqKiIyspKIcDN0Ov1UrEpmUxGS0sLBw4c4Ouvv+bq1asEBAT0OEdubi4hISEolUpiY2NN4gxCQ0OBGy4oxiQmJjJx4kSrFYoFAoHAnB4F+FuaEfz31oF1QxHcWZy+3MY03x4/KgIbeHp6MnbsWJvH//nPr6G56/lAW8D1ej3nzp3jr3/9q5QvfvDgwTg6OtLZ2cl9991HZGQkM2bM6Jf4rqysJCQkpN/7M8RsqFQqUlNTpVgGgwuKOYsXL2bw4MGsX7/eRBitWbOG4cOHk5+fT319PSUlJaSlpeHn5yf57d4JdN1tcmZID5+Zb7755tZt6g5Co9Hw3//937S2tqLT6dDr9TQ2NtLY2Mh9993Hs88+i4ODQ7cVYSMiIpg8eTLvv/8+ISEh7NmzRxLUhw8fJjg4GLVaTVBQkIWP9+bNm0lKSrIZbyQQCAQGelRVtdoOarUdt2IvgtsaIcBvBQNtAb9+/TqbNm3i2LFjAIwaNYqEhATGjx9Pe3v7z7IOq1QqVCqVlOHHHIP41Wg0UvagzMxMk7SgBiZPnsyCBQt6XNPgA15VVcWHH37IihUr0Gg0BAYGSsGcABs3bkSlUhEREUFkZCQpKSlSwKZWq6W6uvq2LAN+PWAm1JTYext3JOfPn2fjxo2o1Wrpzo6Hhwetra14enoSFRXFjBkzuhXfBgyB8o899hjvv/++RdC8LZem4OBgvLy8+h0XIRAI7h2EqhIIbiMG0gLu7OxMfX0933//Pe3t7YwbN464uDhmzpwpFd7pqxuYwQWkrKyMwMBA8vLybFZ19fX1Ze3atQQFBREZGUlZWRkRERGSeDFOK1hQUEBubq401tgH3JCe0JjExETmzJnD7Nmz2b59O3FxcSaiKCYmhuzsbCIiIti4cSNLlixh4sSJBAYGUlZWZuE+cLtgsIALeo+DgwNubm5s2bJFEt/+/v7ExcUxadIk2tvbkcvl/So29e9//9tqe3dBy6mpqcTHx/d5LYFAcG8hBLhAcBsxkBZwmUyGi4sL48aNQ6/XM3fuXKZOnSpVv+wNq1evlnywjbM8+Pn59crPNTExkaioKKqrqy3GzJ07V0pxuHHjRknIR0VFmWT+MLQb7wVg69atNDY28sorr1ikFZw+fbo0Ti6Xk52djUajQavVolAobF402BthAe8fOp2OU6dOodVqCQwMJD4+nl/+8pc4OXX9xHV09P4uroeHh/R80aJFJjUWjH3AT5w4YXW8r68vixcvltIYCgQCgTWEABcIbiMG0gLe1taGj4+PVCVWp9P12eJt7KbRnctGTEyMyWvjQje+vr5Wxbqt+Xrb31Y/A+ZuArejy4k5wgLed5ycnHBwcODxxx9HoVDw3HPPMXXqVDo6OnotvI19tm3l7rbl122tDsPChQul4nACgUBgDSHABYLbiIH2AW9paRmwubrD2P8abt9CN7c7wgLed9ra2pDJZLzxxhsmbQKBQHA7IwS4QHAbcTMrYd5M7pQ827c7wgLeP1pbW+29BYFAIOgTQoALBDeRYcOG8emnn/LPf/6z234dY+cCA28BF9xZXA+YSeflUr75+gu++frrbvsGBQXdol0JBAKBYKDpVoA7oueRYY63ai+C2xg9t65Ay91EQEAA77zzjkX7Rx99RGhoKOPHj+eHuuuk7q8Grt2xFnDBwOBWfpC2IY/x//7XGu736MpiU1VVJcS2QCAQ3GXYFOAB97nycpAX7Z1CeAnA3dmB+z3ErfGB4sknn7QaQCgs4Pc21wNmwqkr0uuioiL+9Kc/8f3339txVwKBQCAYaGwKcBdHGZGPet3KvQgE9wyxsbH84Q9/4OWXXzZpvxUW8JqaGq5du4ZOp2PYsGEMHz4cJycnOjs7b/ragu7p8gF/THodHx/PK6+8InycBQKB4C5D+IALBHbgzJkzdHR0WIjem2kB7+jooLS0lM2bN/PTTz8xdOhQ4uPjeeqpp3B1daW9vb1POcIFA481C/i2bdv4+OOP7birO5MzZ85w9uxZOjo68PPz4xe/+AUeHh7iMy4QCG4LHOy9AYHgXiQ2NpaioiKL9ptpAb948SIff/wxx44dw8vLi/nz5/P000/j4ODATz/9ZFWYZGRkoNFoLNpramrIyMggJiYGpVKJSqWy6KNWq0lJSSEmJoaYmBipj0ajISMjQ3oeExNjsYZ5XvF7hS4L+A18fHxMihIJekan06FWq3n33Xd555132Lx5M+fPn8fBwQFHR0fc3Nwsxmg0GtRqNWq1mpqaGqvzGo7boqamxup4rVZr8vk2fm1rXeM+Wq3W6rrGbcbzWPu+GopQGZ6b77GmpsbqeZvvzXid7tYTCAQ9IwS4QGAHpkyZgo+Pj0X7rl27btqa58+fp7KykkGDBuHj48PkyZORyWTs27ePrVu3Wh1z/Phx6YfbgEajISAggCFDhpCcnExMTAzr16+XRDWASqUiISGBkJAQkpOTSU5OZuzYsUCXoDCUoNdqtRQUFJCammqyRkFBwUCe+h3D9YCZJq99fX158skn7bSbO5Pr16/z6aef8sMPP+Dj40NcXBzPP/88MpmMsrIyrl+/bjEmNTWV5ORk0tPTCQgI4NChQ9IxlUqFh4cH6enppKen4+HhYXLBqdVqiYmJ4ZlnniE9PZ1nnnmGmJgYE8Fr+HxrtVrmzZsnHbO1rvEYjUZDaGgoGzZsMNmzoSqn+TzR0dFMnDjR5BxSU1MloZyamkpAQIDJ9zo/P5/8/Hyb55yUlIRGo2Hnzp2kp6eTkJBAQkIC6enp7Ny5sy//PAKB4H8QLigCgR2wFYR5syzgrq6uNDU10dHRgZOTE+fOnWPXrl0MHz68z2J33bp1bNq0yaTS344dO/Dx8SE+Ph6ABQsWUFtb26uS75GRkfj7+6NSqaTqmfcq5j7gIgiz71y6dImzZ8/i7OyMh4cHo0ePxsnJib1791JcXGxxsWcgPT2d4OBgDh06RGZmJtOnT0etVrNgwQJOnDghVVLVaDQEBQVRXl6Or68vS5Yswd/f36QaZkpKCmlpaaSlpZmskZaWxuuvv26SN9/auuZMmzaNvLw8oqKibFZ/NcwDXZbr0NBQaY/mLFq0iA8//JAVK1ZYHDt06BDr16+3OtbQ33AxkJiYaHUvAoGgZ4QFXCCwA7ZcUG6mBVyn0wHg4ODA1atXUalUbN26lZ9++gkvr94HXG/ZsoUXXnjBpE0ulxMZGUl1dTUHDhxg1apVvRLfBlJSUkhJSbGwtt9rmFvA4+PjOXPmjJ12c+fh6upKW1ubdKFZXV1Nfn4+2dnZfPrpp5w+fdrm2FOnTqFWq8nMzESpVAKwfft2Nm3aJIlvAIVCwapVq8jPz6empoaCggILoZ2SksJ7771n0paTkwNgcZFpbV1zvL29SU1NZfXq1b16H4KDg1m2bBkHDhywenzJkiUUFRVZdR9ZvXo16enpNoW+QCAYGIQFXCCwA7aCMG+WBUG4B2sAACAASURBVFytVlNYWIhOp0Ov16PT6bh69SoymYyRI0cSFRWFTCZDr+9d2tHuxPW1a9cYMmSI9DojI0NyOTG2EprPt3LlSptWuXsFaxZwEYTZezo6Orh69Sp6vR6ZTEZ7ezvHjh3ju+++o7Gxkccee8zm53zTpk14e3tTX19PQ0MDABUVFcyfP9+ir+HzXV1dTWRkpMVx8+9HQUEBZWVlnDx5slfrWmP69OlkZmaiVqt7VXl29OjRXLt2zebx9PR0UlNTLb6TJSUl0vzGvuh+fn5ClAsEA4iwgAsEduBWWsB/+OEHPvjgA8rKypDJZNx///2MGjWKBx54gEmTJvHb3/6WKVOm9Fp8jxkzxqrlrL6+HrlczsiRI02Exty5c4mKiurR1WXhwoU2rXL3CuYWcBGE2TdOnDjB5s2baW1tpbOzk7a2NhobG7ly5Qq+vr68+OKLNsemp6eTnZ3Njh07WLBggdTe012Z+vr6HvcVGRlJSEiI1WBlW+taY926dSQkJPS4Xm8IDg6WXL/MMZxzdXU16enphIaGmviICwSCn4+wgAsEdsBWEOZAWsAdHBxobGzkb3/7G+Xl5Tg5OfHII4+QkJBAQEAAnZ2dDB48uM/zKpVKlEolO3bskCx9hh9xhUKBn58fCxYsICIigoiICBQKRa9dSwxWuXsVcwu4CMLsHTKZjFOnTvHXv/4VjUaDo6Mjo0aNwsvLi9bWVry8vIiMjGTy5Mk9XmgaW6+joqLIzs628Ms+cOAASqWS4OBgSkpK0Gg0Jm4qarWaadOmmYxJT09n3rx5jBgxwqoFuzcuW76+viiVSouATHO0Wi2ZmZnk5eV12y8lJYWQkBDi4uIkq/6iRYsoLCxk4cKFKBQKsrOze5WVqKamRrKQG54bvvd9cUcTCO4VhAAXCOzAraiEKZPJaG5u5vTp07S3tzNx4kQSEhKYMGECMpkM6Lpl3xPJycl4e3sDXf6hiYmJNDQ04OPjQ2RkJGVlZQwfPpzMzEyg68f2xIkTREdHs379ery9vSkoKGDZsmU9rhUcHMykSZPu7SwoohJmn3B0dMTV1ZWsrCw0Gg0ODg784he/YNGiRTzyyCN0dHTg6ura4zynTp0C4MiRI5J4fuGFF9i0aRNKpZIlS5ag1Wollw2DKM/NzSUoKIjc3FxGjBjBqVOnWLx4MYcPHzaZXy6Xk5mZSXR0NHl5eZJgt7Zud8TGxjJv3jyb+79w4QLr168nLi7O5KLAGgbXr8WLF7N27VoAkpKSCAoK4tq1a0yZMgWtVktZWRlhYWHdzhUQEMCJEyfQarWSVX/btm2ACNYUCKwhBLhAYAduRSVMZ2dn3N3defLJJ5HJZMybN49HHnmkTxUvV69ebWK99vPzA7qyIcTHx1NdXY1cLrf4oVcoFJw8eVLKP7xx40bJCqZQKKRgMuPnBpYuXcrs2bP7dc53OqISZt/R6XR0dnZy9uxZmpqaePzxx3n11Vd59NFHkclkODs7SwHItpg0aZLkYuHv78+OHTuALoG6Y8cOtm3bRnp6OtBlFTfOABQREcHhw4fZuHEjV65cwd/f3yRrilwuZ9KkSUDX5z0tLY2dO3eyYsWKbtc1jDF+bnhtSA9oa//GGVEMxw3fP+Pn0OX69d133zFy5Ehpj+Xl5WzdupX09HS8vLxIS0szCR419DVm2bJl+Pn5odVqJbEeGBjY7fsuENzLyJqamnrn+CkQCAYMV1dXKQjzh7rrpO6vJsrnGs1njgxoJUxXV1cpIK2zs7NXFm+Bffjyyy+p9Apm36krrHthJPd7OLN///67JgjzYlM7SYVVjHWsIzV66oDN6+zsjLOzM1u2bEGr1RISEkJgYKD4rN/GfHn8RzJPubJ6lh+PDrcsjCQQ3AsIC7hAYAdiY2OJjY1l1qxZJu0DnQVFWE7vLMwt4CIIs2fa29vR6/WSVVomkwnxLRAIbntEFhSBwA7YoxKm4PZHVMLsH4a7SeIuj0AguFMQAlwgsAO3uhKm4M6gywJ+g6KiImJjY+20G4FAIBDcLIQAFwjsgD0qYQpuf0QlTIFAILg3EAJcILADZ86cIT4+3qJdWMDvbYQFXCAQCO4NhAAXCOyAPS3g33//PUVFRezevZsff/wRnU6Hs7PzTV9X0DOiEqZAIBDcG4gsKAKBHbgVlTDNaW9vp7i4mE2bNkmV6pYsWcLYsWNxdnZGJpPR1tZ209YX9IyohDlwHDt2DLVaTVtbGwqFgunTp+Pp6SkyAwkEgtsCYQEXCOxAd5UwbxbV1dXk5ORw7tw5Hn74YZYsWcLMmTNpbW3l5MmTVsV3TEwMHh4eeHh4MHHiRDQajcnxlJQUlEqlSZtWqyUlJUUa5+Hh0W274dFARkYGGRkZ0muNRsOcOXOk1xs2bGDixInSnozLcqvVapP5jefZsGGDyTGlUolare7r23hTMbeACxeUvtPZ2cnBgwdZu3YtWVlZHDp0CAcHB5ydndHr9QwaNMikf01NDTU1NSZthgJSNTU1qNVq6c9WP/P5DP3Nvy/dodFoUKvV3c5nbQ8GtFqtST9jzF9rtVppb92Ns3V+tvYgEAh6jxDgAoEdsOWCcjMt4OfPn+fChQu4ubnh6emJv78/7e3t7Nq1SyqvbY3Dhw/T1NTEBx98QFBQkMmxo0ePUlxcbPKDXFhYyNWrV6mtraWpqYmmpqZu2xctWsShQ4ek8UVFRSbvzbFjxwgPDwe6xHleXh579uyhqamJPXv2kJeXZyLCIyMjaWpqory8XCpPbmDt2rU0NTVRW1tLREQEoaGht5UIN/cBF0GYfaelpYUdO3Zw4cIF/P39WbJkCbNnz6atrY1vvvmGlpYWk/7V1dUkJSVJr2tqaoiOjkYul5Ofn09CQoJUefLYsWMmY4OCgvjwww9N2ozHBAUFmVwEWkOj0TBx4kSUSiXp6en4+PiYjOlpD8bzhIaGkp6eTnJyMnPmzJHEc2hoqEXf1NRUi3EJCQkmF7upqakWFxH5+flS1U2BQNB/hAAXCOyArSDMm2UBHzRoEG1tbXR2duLk5MTZs2fZvn07n3zyCZ999hn//ve/e5xj+vTpJq9VKhXh4eEolUoOHDggtV+7dg1/f3+Tctfdtc+YMYOvv/4a6BI/hhLeBlH/1VdfMXv2bLRaLatWrWLHjh3S3QNfX1+2bt3K8uXLLfbr6+tLYGCghQUPusp5R0REsHbtWrZv397jud8qhAX853Px4kWqqqqkCplDhgxBr9eze/duPvnkE4v+hpLthgux999/n7S0NOm4UqkkOzub7Oxsk3Lshw4dYtmyZaxatcpiTsOY2tpaq8cNaLVagoKCSEtLY+/evdKYoqIiVCpVj3swJzIykuzsbPbu3csTTzzBtm3bunmnLMedPHnS5L0QCAQ3DyHABQI7cKst4O3t7TQ2NgJdlQKbm5v56quv2LlzJ5cuXeLBBx/scY6cnBzGjBkjvVapVMydO5eoqCjWrFkjtcfGxnL8+HFiYmJMfshttYeFhUnvxYEDB5gxYwbh4eGSpW/Lli0EBwej0WiIjIy0EPDWXHmgS8CXlZXh5+dn85ymTJlCRUVFj+d+qzC3gIsgzL7h6uqKXq9Hp9Ph5OREdXU127dvZ8OGDezcuZPa2lqr45KTk0lPT6empgaVSmUicisrKyX3DOOLuezsbF555RWWLVtmcgfHGPPPqjkHDx5k0aJFJuvJ5XJSU1PJysrqcQ/dMXr06F71A6ivr0etVkui33BRIhAIbh5CgAsEduBWV8I8fPgwBQUF6HQ62tvbaWtro6GhgcbGRsaMGcPcuXORyWRWx4aGhuLh4UF+fj55eXlAl+WuuLgYhUKBr68vw4cPl25Vy+VysrOziYuLIyEhQXIPsdXu6+tLXV0dWq2Wr776irCwMJ588kmKi4vRaDQsWrSoT+daUFCAh4cHAQEBbN682aZAvx0RlTB/Hq2trZw7dw6dTodMJkOn01FWVsauXbuorq7moYcesvo5NwjOpKQkE+s3dF1oGtw/qqurAdPP/3PPPWfhwmUQzBkZGd1+fquqqpg4caJFu7lwt7YHaxgL6eXLl/f64q2kpIT09HTWr1+PQqHotcgXCAT9R2RBEQjswK2qhKnX6zl69Ch/+ctfuHjxIk5OTowePRp3d3fa29sZMWIE8+fPZ8yYMej1eqtzHD582MIiVlhYyJkzZ0wCKHfu3MmKFSuk1xEREcycOZOQkBCioqKk87XWHhcXx8GDB9FoNPj6+uLr68tvf/tbHnvsMWbMmAGAQqGgoKAArVZrIlBqampMLPOG2+kZGRns27evW2vekSNHmDRpUh/e0ZuLeRaUoqIi/vSnP/H999/bb1N3EF9//TWbNm2itbVVKkuv0+lwdHREoVDwq1/9yubYuLg4UlJSLFw8lEoliYmJJm0HDx4kJCQEtVqNXC5ny5YtpKenS59LlUrF0aNHAdi7d2+3e25oaOjxvKztwRoGIe3l5WX1e2sLw3cGuuIstm3b1qv1BAJB/xEWcIHADtyKPOBOTk5otVqysrKora3FxcWFKVOmkJKSQnp6Ou+88w4rV640Ea+9ZdOmTZSXl0vBlLZ8XbVardUgQvP2J598kvXr1/PEE09IbSEhIWzatInJkycDXVbBVatWMW/ePMk/XKPREB8fz8qVKy3WWLFiBUVFRVb9WbVaLTk5OSxfvpylS5f2+fxvFqISZv9wdHTkm2++YdOmTVy8eBEXFxeCg4OZO3cuERERxMTEkJSURFBQkM0LzREjRhAYGNir9davX8+VK1ckq/SYMWM4ePCG+5BSqWTv3r2Eh4ebBAib8/TTT5OVlWVhce7vhaFBSGdmZlqIb+M1Lly4gJeXl9U5hgwZ0uv1jIOvbT0XCATWERZwgcAOnDlzho6ODjo7O03aB9ICrtPpaG5u5uzZs7S3txMSEsJrr73GyJEjTfr0FYOribEFXy6XS9lMysrKpKDIMWPGkJubi6+vLxs2bLDaDl0BniUlJVJmBugKzjTc5jewYsUKhgwZQkBAgDTPypUrWbhwodW9ZmZmEh0dTXFxMQDLly+X9rBs2TLKy8t79NO9lVizgG/bto2PP/7Yfpu6zXFycsLZ2ZnPPvuMyspKXFxcePzxx3n11VcZNWpUvz7jxhjcSaDrcz548GAAE7cTjUaDUqm0sJ4vXbqUkJAQnn76aZPPsQGFQkFERATz5s0jNTUVuVzOvn37WLVqlU1/9f6wbNky5s2bR3p6OlqtlgULFnD48GHpuMF1RavVkpeXZ/I9PHXqlMl+jUlKSiIqKoqFCxcSEBBAU1MTarWa9PT0bjMr3e385es6Kq6ImgqCLv6fJ+9ntJerRbsQ4AKBHYiNjSU2NpZZs2aZtO/atYtf//rXA7KGs7MzQ4cOZf78+chkMp5++mlGjRplIfq7w9qPqEKhsHpbPTMzE+gS09ZuXycmJnZ7W9uQltDAwoULrQrr7uYJDg422bNCoZAyO/S0/u3A9YCZcOqK9FoEYfZMR0cHDg4OnD9/nuvXrzNlyhSWLFmCn59fn8S3XC63sDqPHDmSAwcOkJ6eDsCkSZMIDAzk9ddfN+mnUCgk32njC1y5XM7mzZst3LOMSUtLQ6VSSd+fSZMmUVtbK10YGs/X1/0bSElJYdu2bZJ7yu7duyULuVwux9vbWzrH1NRUKePRpEmTTFIOrl692mQ/YWFh0h2qZcuWAeDn50dYWFiv9ny3UvxTI8XnO+y9DcFtwKghDvzyfJNVAS5ramqyfj9OIBDcND766CNCQ0MZP348P9RdJ3V/NVE+1wgb693rH9ze4OR04xpbr9f3SXwLbi1ffvkltZcbKOx4jHUvjOR+D2fq6+upqqqyyL9+J3KxqZ2kwirGOtaRGj11wOZ1cnLCxcWFPXv20NLSwoQJExg5cuRt91k3L2ojl8utWsV7g7lblZ+f3x0VbPzl8R/JPOXK6ll+PDrczd7bGXBeziknv1xYwAXwyDBHUqZ789L4YRbHhAVcILAD3VXCHCgLOHRZBwV3DuYWcBGE2TOGQMuZM2/4z99u4hu6gpSPHz8uvZ40aZJNq3hPGKzVBuLi4rrNDy4QCG4/hAAXCOxAbGwsf/jDH3j55ZdN2m9mJUzB7Y+5D3h8fDyvvPIKra2t9tvUHcDP9fO+FfRXbFvjXvavFgjuFoQAFwjsgLUgzL+c9aT5zC7qH7WdKk1w9/JL4L0rjxEw+EabCMIUCASCuxMhwAUCO2AtCPOhITKen/Y83127/W6fC24BdZZNIghTILg7kTk4MHLYYIYPgu8uddLeLIof3WsIAS4Q2AFrlTBnjHJl166/8+KLL9ppVwJ78mMdPObjSlPzDXcTUQlTILg7GSX34N0Zg3jqITeW/uMKBaedae1st/e2BLcQUYhHILADt6oSpuDOpqioiNjYWHtvQyAQDBgOKIa58X+edueFXwxl2NDBrJntxfzAQTg4Ott7c4JbiBDgAoEduBWVMAV3PqISZv/54osvSE1NJTk5mU8++YSmpiYGDRpk720J7nEeGubOmqc8eSn4PhwdXWjvhNHDB/O7KR44OzkCLl0dXXxA3weJdiwX0h6/8ffZCmhrhpoful7X/HCjb9rjXf0Nz43/NF91tX+2ouu1tTWga+7975mOtTbOsL6t9Wp+uDHG8Kd623TvhrG29nWHIlxQBAI7cCsqYQrufEQQZt/p6OjgH//4B1u2bKGhoYExY8agUChwd3fn+vXruLq6WmSVUalUVFVVAV2Fb8xT+mk0Gr744gsAq1UttVotBw8epKqqipEjRzJz5kypkE5NTQ3Hjh2T5tRoNNTU1EjFbszZsGGDVDDKuIy9+bzWqKmpMSmcExUVJd1pM57XfF/djVOpVEyePNnkjp0hD7l5uXtB9/gPH84fp8l4cfww0Duh1+txkMG1hhbyS7U4NrfgqnNk1HB3XgjQUlLtwbcXmtDp+5Dl59Wt4OIBH/0KHnoCHpjQ85hxT8FLGV3Cd/tySPm25zGnD8A3W+E3n8OwB3u/P+P1zEn5tusCYPtymBzdtzlvAY4yB8LGP8i/L17ldM3Vnz2fsIALBHagPxbwfaV1ZB+uMPkrPH6Bay03P2izubmZiooK6XldnZWIQcGAI4Iw+05zczO7du3i8uXLjB49moSEBKZNm0ZDQwNffvml1ZSOWVlZVFZWAl1VI42Fb0pKCtHRN8RAdHQ0KSkp0muNRoOPjw/FxcUAFBcX4+Pjg0ajAaC6upqsrCygS/RGR0d3W4Bn+fLlVp+rVCp8fHxQqVQ2x1ZXV0sVNRsaGnjmmWekfRjPZb4v43GVlZUEBARIRYOysrKorq42GXvkyBGOHDlicx8C6zxyn54Xxw3G0cFZEt/IZOiR4X//YN5+bgR/fN6Hd8O9eee5B8iY5cnkUbYvuHrEtY9jrzd0ieO+UPF1l7V6oGj9n2BUF4+Bm3MAkDk4EvmoNx/MGsTqsGH4DPn5d9OEBVwgsAPWgjChewv4Q75e/DrStILgv8ovcKn+Ep6DbP9HW1paKj0fP358P3bbxZw5c9i2bRtffvkljz76KFFRUf2eS9A7RBBm36mrq6O2tlaqAtvR0UFzczM7d+7k66+/tlkmff78+QQHBxMYGCjl2VapVBw9epTi4mLJ8hwbG0tISIjUPzo6mtzcXBOr+WOPPUZqaqpJvm6tVkt8fDx5eXl9qlppbLVesmQJoaGhNDU12ewfGBhoMuaLL77oVcVN43FHjx6lurq635U6BdY5UetA1slrvDrFCUcnV5qbm1lz+DLNWviPX97Hjn/Vs2SCCw+OGEqnzoFQfweeON3G0XMNvV/k4/iux6nxMDYMLlf2PObUlzfcOuav7d06Y8NgYhTsSe/6m78WFDNuHO/OTcR4PWNru6EtdkOXVd3gNmNYw07IZDKeGXsf7z53H/7D3Bjr7YKHE/xGdZHzVxr7Pa8Q4AKBHeiuEqatLCiduk7a2loBPQDtba00Xrtsc43S0lJef/11vL29GTasqwyuwcrVV9zd3dm2bRtbtmxhwoQJQnzfIkQlzL7h6uoqCW8nJyeqq6vJzs7m0KFDnDx5EhcXF5tjt2/fzpEjRzhw4ACrV68GugT466+/buL2IZfLUSqVHDlyRGo3d1lZuHAhixcvNmlLS0vj9ddf/1miNjg4mGnTpqFWqwfc/aOsrIwNGzZQWVlJeHi4EN83geordbxdMghnRwfmjBvEpm+u8d43zfg66gnyd+fjY5d5fvQwRvrpaGprI+f4Jfac7eMdzle3gu+jfRtjcAkp3dXl/vGbz3se4+IOEf8JM5fCnv/TNe53u28cNwjrmh9uXBSYr2fO77+Cd2bAtzkwevKN9meSYfKCruefregS8LcID1c3ZgYM5Z05Q/H2cOHdr+oY7zuIiEeGkN4mI+0rB76vudavuYUAFwjsQH8qYep0nURHz6eyshK9Xo9ep+P9jX9D5uBm0beuro7XX3+d9evXW1i96+rqTFxIzI9XVFTQ1NRk0l5aWsrUqVOZOnWq5I7i7+9vdYzhuYHhw4dL61pb09D/4Ycfxt3d3eJcKioq8PDwkOYpLS2V+jY3N3P27Fk8PDyk/dg6P0ObYZ6Kigp8fHxwd3c3uUtgmNvavszXrq2txd/f3+S5+VrG6xjm6O2dCFEJs2+0tLTw3Xff0dnZiUwmQ6/Xc/bsWcrLy2lvb2fWrFk4ODj0WDnzb3/7G2lpaVy5coURI0bY7KfVagkMDOxxXwUFBYwZM4a0tLQ+n5M53t7e3R43FtLvvfce5eXlfZrfy8uLrKws5s6dK0T4QKPXU93QQupX7WwsdeN0bTMtHZ04DB2Eu6sLjddh3dct/GnoVX6obWXNPxuovPozv/sGMX4sr0swl/6Pm6O/lTtrrf3IRS73hqEj+78/Y1zcIXI1FKRC5TFwtfw9MKF0V1ff3+2G6rIbFwHGz+Xdf196YsrD3mTMlvOgpzNrSy6xvriO0V6u3OfxAHMDPWjSOfPrPCHABYI7BltBmN1ZwNvb2vjrR+/T3taKTqejvbWFMzWNuLlbCvDPPvuMhIQEq0KvqKiIVatWER4ezuXLXRb0nJwcmpubefXVV6V+9fX1FBQU4O7uzty5c6VsHG+//TbXrl0jMzOT5uZmfv/733P69GnGjh3LSy+9xOnTpzl48CDffvst4eHhvPTSS1RXV1tdc//+/Xz22WfSvkpKSiSBbCAjI4Np06YRFxcHwNy5c9m5cyfjx4/n97//PQCnT5/mpZdeYunSpTbPz+BzHxcXR0VFBXPmzJHmmTt3Lo8//jjDhg1jxYoVnD171uq+jNc+e/YsmZmZZGZmmjxvbm7m5ZdfJiEhgbi4ODIyMlAqlYwfP578/HzeeOONXmc2EUGYvaejo4N9+/axdetW2tragK4S9Z2dnTg7OzNp0iReeuklm+Lb4FKSmJiIh4cHaWlpeHl5ceHCBZvWZrlcTllZWY97i4yMJCwsjJSUlJ8twuvr67sNxDTw2GOPUVtb26u+YOqCMmTIkF67rgj6ip7qxnaqG41zfssY5OLEYA9n9pe34ltylf+cPphZDzrx3w3tdPRwwdgjsRvgH38ydTMxDpw0dgl5Jtn0mHG7MQbxC13956/tvdg1Xu/VrabHxj8Ph/9v137n/ql385kzgP7jx89eJacUhrg58Oevqmlu6+RySzsvfVrN//e8D5+e7J/4BiHABQK7YK0SJnRvAW9uvMq/z9bQdr0F0KPT62lqccHNfZhF33/9618olUqbcz3++OMolUqamppYt24dAFu2bMHf3581a9YAXcFXW7ZsYenSpdK40tJSPD09uXat6z+dzz//HE9PT/bt2yf1mTVrFtOnT5cEqWEua2vOmjWLWbNm0dzczNtvv01RUZEktI2pqqoysVIbMMxfWlrK3Llzpb1aW8uYjIwMXnvtNZO2t956S7pg8ff379W+rPH5558ze/Zsi/bm5mays7MJDw/v1TwggjB7i7OzM7t37+aTTz6hsbERDw8PpkyZgkKhoK2tjWHDhhEYGMjIkX2z1EVERLB+/XqT7CNarZbMzEzy8vIkgapSqUzcUHJycli0aJHJXImJiSiVSnJycli4cGG/ztMQgNmdMDb3ATdGo9FIY48cOWJyF6u/HDp0iODgYORyufQ+aLVa1Gq1zUwvAlOa23U0tOrYEDkCn0Eyhspd8R7mTNocd7QOTeSeqOl5kskLbrhpmDN6sm23ElsZT6y5iBjWgS6hPN7K75X5ON9HTdewtp75GOO9mvc37mu8B8WMG33l3r3L5NILrrVqWXfUEVeZjua2GxdC5y41oNztzMWrwgdcILijsBWE2Z0F3NXDi2MXm4AhUtvgQa7c72n9Nl13gVrffvstmZmZXL58maCgIMBStAcFBZn4jDc3N/PHP/6R999/n1WrVgFQUlLSrdDvac39+/eTmJjIQw89BMAvfvELq2P37dvHuXPnTNoM1veioiILUWttLQP5+flMmDCBwYMH29xrb/dlTkVFBYWFhbz11lucOHHC5Njbb79NUlISW7Zs6dVcIIIwe4OLiwuOjo6oVCouXLjAoEGDCA0NZcmSJdx3333o9XrJIt4dxj7gy5YtA7oEeHFxMSEhISiVShoaGsjKykKpVEpCNi8vj6CgIJYtW8bo0aM5efIkxcXF7Nmzx2KN9PR0QkJCeOCBB3otTg0ZWQzz5uXl9fatMWHt2rUEBQWxdu1aGhoaWLVqlYl7isF1xXCOxusY3hvAIv4jMzOTsLAwEhMTWbBgAU1NTWg0GjIzM4UA7yV1zXqWF17C1+0aO+YN5WHvIYCM5jYdLR0ye2/vnkfbeA1rzjnnL176WfMKAS4Q2IH+VMIMfmgoMLRX8z/zzDPs3LmTqVOnWj0eHh4uiesxY8bw5ptv4unpSW1trWQFbmpqwtPTUxrz+eefExMTY+IiYj6mO6ytqFofvgAAIABJREFUmZiYyN69e/H395dSolnD4M5hGAuwd+9ePD09JXcOQ7uttQAaGxspLCzk448/5vPPbQca9XZf5mRkZLBmzRqLix+DGJ86dWqfBLgIwuyZjo4OZDIZbW1tuLu7ExYWxqJFixg8eHCvfefj4uKkPOBxcXEm1uy0tDTmz5/PkSNHGDJkiInlG7qs0bW1tRQWFnLt2jUiIiJIT0+XLOZ+fn7SZ1cul5OXl8exY8ds7mXt2rVWn8fExPQYRG28ljmJiYlMmTKFI0eOMGrUKMrLy6X/g/z8/KQL6SFDhrBnzx7pmPF7Y8D4roxSqZRcdHJzc6X3pLcX5gLobG/lYnsrnToXyhqcGdXRTt216/znl5f4R1n/LayC2xshwAUCO2ArCLM7C3hfmDNnDtnZ2axcuZLY2FiamprYuXOn5F5y+fJlSktLTYTi3LlziY2NZdu2bQCsW7eOpKQk6XhhYSE5OTkm6xiPMQRKmvtwG7C2JsB3331HXV0dmzdvJiEhoU/nWVFRQWlpKYcOHerVWu+++y7btm2zGuxpjq19GayG5eXlXL58WcqPXlRUxBtvvIG/v7+Fu8yqVasoKSnp07mBCMLsLY6OjqxYsYK2tjZGjhzJ0KFDewy0NMY8i4k5wcHB3WYdkcvlNt1KfH19TeZXKBQoFAqT4j9wowCQsfuILVcSMC3SA12iODg4uNtzsXUevr6+NteyNp+x8cDYym3oK5fLhfW7H1xuaSPlUBNntA6cqNWR92MTHTq9vbcluEkIAS4Q2IGbXQnT3d1dsvJmZmbi6enJr3/9a6DL2jVs2DDJmrZz506gyzprSDUIkJSUJFnQw8PDWbFihTT/hAkTrI5RKpUMHz4cDw8PqU93axqnNly5cqXVc5kwYQJ+fn7S6/DwcDw8PJgzZw4//PADmZmZrFixgn/961/druXn58cbb7whnZOfnx8eHh4mcxqwta/w8HAL14KMjAxWrFjB/PnzJb9fDw8Pac8TJkzgpZdeki5MjN+XnhBBmD2j0+lobm42uQPSF/EtENxOfF/TxJtFTeh0/PzgS8FtjaypqUlcXgkEt5hXX31VCsL8oe46qfurefohNxz/9fcBsYALbg2lpaUmwaY/hx9//JEc7TiamltZ98JI7vdwprS0lMOHD/Ob3/xmAHZrXy42tZNUWMVYxzpSo627RgnuDb48/iOZp1xZPcuPR4dbZnG603k5p5z88p7jDgR3P48McyRlujcvjbdMliBK0QsEdqA/lTAFtx/mlv6BRgRhCgQCwd2JEOACgR3orhKm4M7B39/fJE3jQFNUVERsbOxNm18gEAgE9kEIcIHADsTGxkqFYYwRFnCBMfHx8b0u2iMQCASCOwchwAUCO3DmzBni4+Mt2oUFXGCMsIALBALB3YnIgiIQ2IH+VMIU3HuISph9x1B4p7CwkC+//JL29namTZvG/Pnz8fb2pqWlBb1e5B4QCAT2RVjABQI7YC0IU9feyq5du7h48SKtra3i8R57tIYIwuw7nZ2dbN++nS1btlBRUcH999/Pk08+ibu7O9euXcPJydLulJGRQUxMDDExMaSkpKDV3qh7p9VqycnJkY7n5OSYHAdQq9WkpKRI49VqtXRMo9GQkXGjfLZKpZJKylsjJibG5jG1Wm21wE1MTIzFnBkZGWg0GpvnkZKSQk1NjdW+1vaRk5NjkXtcIBD0H2EBFwjsgLUgTJfq73ju+ecZNGgQcrmcwYMHi8d76LGiooIJ8ia+br7x37KohNl3mpqa2L9/P01NTYwbN46XX36ZiRMncu7cOf75z39alFIHOH78OFFRUYwbN46NGzeSlpZGWloaWq2WefPmoVAoSE5OBmDjxo1s2rSJvXv3Al2CesGCBeTm5jJ//nwuXLhAaGgou3fvZvr06Wi1Wo4fPw50Cej169ezY8cOm/svKCiweWz79u0UFxejVqtNCuoUFBRQVlbGzJkzpQqcx48fZ/bs2QDSeTzxxBPSeQBW+9rax6ZNm6irqyM2NlYaJxAI+o8Q4AKBHbBWCdN53Ax27cqVCua4uroOyKObmxtXr15FJpPR1NRk89HDwwM3N7cBW1c89u0RYFjLBeBB6bWohNk3HBwcuHjxomTpbm5uprKykvvuu4/t27fz3XffWRXgAOPGjZMqSRYXFwNd1V8VCoVJnvfMzEzJ4hwREcGCBQs4ceKEVJ4+ODiYw4cPk5CQwMmTJ6VxNTU1JCQkUFxc3C8Bq9VqOXr0KGlpaWzfvt2ioqXhoiEtLc1ibFpaGtHR0d1W1uwOtVrNE088AcDBgwd7rBwqEAh6RghwgcAOWKuE6VZ+kNk3wQe8qqqKv/zlL7i7u+Po6IhMJkOv15v4wba1tTFq1ChiY2Nxc7v7CmPcKXR4jYbGG/8uohJm33B2dsbZ2RmZTIajoyMXL17ks88+46uvvkKj0TBkyBCbY5OTk/H29qasrEyqdpqfn2/V5SMsLIyqqirUajXTpk2TxLeB4OBgk+w19fX1JCUlkZeX12/r8cGDBwkPDyciIoKUlBRSUlJM5oqIiCArK8vCOg7w3nvvUVtb2691ocvy/txzz+Hr60tqaqoQ4ALBACAEuEBgB6wFYV4PmGliAR8oamtraWxs4LXXFuPg4EBHRwdOTk7IZA7odJ04Oztz7tw5du/eQ3NzsxDgdsTpSiXGFnARhNk3tFothw8fpr29HZlMhkwm4/z585w7d47Ozk6mT5+Og4OD1VL1ixcvZty4cRw5coT4+HjJxaQnwezt7d3jvurq6qirq8PPz69/J0aXq0tSUhLQJbatWaJXr16NUqmU9m6M4Tw0Gg2pqakAxMXF9UpMq1QqybJeVlZGTU2N1ToGAoGg9wgBLhDYAWtBmDfLAg7g6emJv78/p06d4vhxNaNHj2bo0KE8/LA/np6eyGQyE1cIAyqVismTJ5v82G7YsEG6la3Vajl48CBVVVUAREVF4evraxGslZiYSE1NDfn5+VKboa/5OiqViiFDhjB9+nSpryGoLTg42GKekSNH3jUWOXMLuAjC7D1NTU3k5+fz2Wef0d7eLlnC9Xo9Hh4eTJ06lejoaKviG264oAQHB7N8+XIA6TtjblFuaGhg1KhR+Pn5WfXZNg/SDAwMRKlUMm/ePHbs2NFnK3hNTQ1btmzhypUrQJcIvnr1qsXnXqFQEB4eTk5Ojkn7mDFj0Gg0KBQK/Pz8SE5OJjk5WfredodKpeLMmTNSUOaZM2c4cOAACxcu7NM5CAQCU0QWFIHADlgLwuyygA98HnC9Xk9raxstLS2Uln7P3wv+Tl7edrZvz5VuS7e3t1sdm5WVRXV1tUmbQZxotVp8fHwkf1lrfYyprq6WfGkrKysJCAiQhIrxOllZWTz77LNShgaAI0eOcOTIEYt57ja6LOA3EHnAe4eLiwsFBQXs3LmTpqYmhgwZwosvvshbb71FSkoKf/zjH/n1r3/NAw880ONcxuJ5/vz5LF682CRDiEajISsri7CwMHx9fYmMjCQlJcVkjrS0NFatWmXSNn36dKKjo636aPfEgQMHWLVqlSScN2/eTHFxscl3xMDSpUtZs2YN9fX1UptSqUSpVKLVapHL5QQHB5tY7v39/dm+fbv0Oicnh8jISKBLgOfm5kpr7969mzVr1gBw6NAhKfvKhg0bpP2Yvx8CgcASYQEXCOyAtSDMm2UBd3d3Z/ToB3F2dubJqVPx8/VljGIMTk5OdHR0cP369X7Nq9FoiIyMtCkorAV8BQYGSu0VFRVoNBoL6yLA2rVrSUpKIjs72+rcxvPcTZhbwEUQZs+4uLjg6OjIgQMHqK+vZ+jQoYSHh/PKK6/g4eEBQEtLS4/zGHzACwoKyM3NBbruuOTm5hIUFERkZCT19fWUlJSwe/du6QJ648aNLFmyhIkTJxIYGEhBQQGLFi2yKkITExOJiYkxuYtkDeMUgNnZ2axZs4Y9e/aYXLTHxcVZtUTL5XI++OADnn32WZN1Gxoa8PHxkc6jrq5Oyojyu9/9jmeeeYajR49K78GJEyeoqamhuLjY4oJ3+PDhaDQaysrKOHnyJBERERw4cIApU6bg6+vLe++9168LDYHgXkIIcIHADlgLwhxoH/COjg5aWloYNmwYTzwxhdbWVh4Y+QCXr1zm0KHDXLhwntbWNmJiFiKTyfo8v5+fH2VlZVI2CHMMbii2XESMLXTmTJkyhZMnT3Lo0CETVxQDZWVl0vxTpkyxKuLvRMx9wEUQZs90dnbi4ODA4MGDeeCBB5g1axbR0dE4Ojr2SnhDl++0wfK9bt06E6EbERFBbW2tZAU3/6zJ5XKys7PRaDRotVqL8QqFgtWrV0uvN27caJFz25jDhw9btG3evNnijtnSpUulu0bmY6ZPn87hw4dNgkNXrFjB0qVL0Wg0yOVyk2O+vr6cPHlScvUyXPhqtVry8vIs9rN161bgRiwLmL5v5eXlNs9PIBB0IQS4QGAHrAVhDqQFXK/Xk5+fj4uLC8HBwZSWlqLVapk9exbXrjVw7lwlly5dpr2tjdbWVpydnfu8hq+vL3v27CEpKYmUlBQ2b97coxA2COfKykoUCkW3/VNTU4mPj+82Z/LdhrkFXARh9oxOp8PBwYH/+q//orOzk8GDB+Pg4NCnapfmWUzMMbht9GcOc7FrmCsjI0PKDw4wadIkVqxYYXUda23G8/ZlTHfnYe3iwtp5WQvANG4TAZrg5uTAEyNEQPu9TG1TB+g7bR4XAlwgsAPWgjAH0gJeXV3N/v37mTlzJs7OzlRWVnL58mVCQkL45S9/ybRpv+TixYs0a5vx8/OjprbGZnBad/j6+pKdnY1arSY0NJTy8nLpx7e7W+xHjx7t0Y/b19eX6Ohotm3bZnHsbnVBMbeAiyDMntHr9TQ3N0vuJoa22525c+eaFL8RxW3uLnzkjvxttou9tyGwIzWtHrz2j8s2jwsBLhDYAWtBmANpAXd2dsbBwYFDhw5RXl5OeXk5gYGBfPHFF5w8eRJXVxfJ7UQmk3HlylU6OztxdHQ0mcfLy8skC4RarWbMmDEW6wUHB7Nq1Sry8/O7FcYG4fz0008THR3dY1GSxMREJk6cSEREBKNHj+7PW3FHYS0PuKiEeXfSk9VdIBDc3QgBLhDYAWtBmANpAR8xYgTPP/88GzZs4MSJE4wbN46nn36aYcOG4erqipPTja++wVo4cuRIi0IlS5YsITQ0lH//+98MGTKE5cuXs3v3bgCTdIANDQ1kZWVJBUwAk1SE5tUHFQoFSqWSDz/8kBUrVnR7Lps3byY0NJS1a9f24524szC3gIsgTIFAILg7EQJcILADN7sSZnt7O88//zxnz57l66+/JioqiieffBJXV1cmTJhgc1xHR4eJK0pwcDDl5eWS0DYuuW3MqFGjTLI0WBPLfn5+xMXFSa8TExPZsGEDWq2WuLg4qUiJ8XPDHnJzcxkxYoTVee4mRCVMgUAguDcQAlwgsAO3qhKml5cXzs7OjB49GplMRltbW5/n8PX1tepWYqsdbPt/m2dDMfQzbreWMcW4zdfX964pvGOOqIQpEAgE9waiEI9AYAdsVcJ8fgDzgHd0dODj48ODDz7Yq3LZAvvT4WXq5y6CMAWCu5NPDp/lIX9/i7+iE+dvyfqzZ8+moqKCiooKlErlLVlTYIoQ4AKBHbgVlTDd3NyYNWsWy5cvvycCGO8GRCXMn49er6e+vp4NGzbwyiuv8Oqrr5KdnU1LSwuDBg2yCDQWCOyBXqdHr+uQ/jo72mhqvIwe2xl8srKyGDNmjPRXWlra7/VXrlzJnDlzmDNnTo9xOIKbg3BBEQjswK2ohNnR0YFMJsPT05OOjo4Bm1dw8+gc7AuNN16LIMy+097ezqeffsrf//53Bg0aRGhoKGFhYXh4eHDp0iUGDx5sMcY4J7e/vz8pKSlSdh6tVkthYaEUBxEVFcULL7xgkr1HrVazfft2Kioq8Pf3Z/78+VLmII1Gw86dOyWRYyjdbsuNyrgKpvlc5sfhRtEclUqFSqXiypUrJu2GY1lZWSZjNBoNqampUptSqZSKXhnv0Xisl5cXSUlJIoPLAKAHPv/8czZt6orv0Ov1rM34o83+K1euBKCkpIThw4f/7PVnzZrFmTNnfvY8gv4jBLhAYAesBWEu/nEs6y7tIumiZeVHwd1P4TT4zVc65hlleRRBmH1Hq9VSUlJCR0cHDzzwAFFRUTz88MP8+OOPfPXVV8THx1uMOX78OFFRUYwbN46NGzeSlpZGWloaWq2WefPmoVAopLLtGzduZNOmTezduxfoEqsLFiwgNzeX+fPnc+HCBUJDQ9m9ezfTp09Hq9VK4l6tVrN+/fpui0sVFBRIlS1PnTpFQkICcXFxkoA3Pm5ApVKxfv16UlNTLdJ6KpVKrly5glKpNDmm1Wqpr68nPT2dCxcu8Oyzz0p5/KuqqqR+VVVV0oXAhQsXCAoKMsn3L+g/z4TPZtbTM9DpdLS3XqdZe81qv4qKCo4ePcq+ffssjpWWljJ37lzpdXh4OO+88w7u7u7s37+fNWvW8NNPPxEeHs6qVasYPnw4SqUSpVLJ+PHjpfEGMf7NN9/whz/8gZ9++onXXnuNkSNHsmrVKpP5lUqlzTUXLlzIt99+C3RlwjKOcxKYIgS4QGAHrAVhAjz//PMkbWm0MUpwryGCMPuGo6Mjly9fpqWlBScnJ65cucK3335LW1sb+fn5nDlzxqoABxg3bhzBwcFERERQXFwMQGFhIQqFwqRoVGZmJjExMahUKiIiIliwYIFJdqDg4GAOHz5MQkICJ0+elMbV1NSQkJDQY+57wxyGx7CwMAICAli6dKk0zrxiZVVVFdHR0ZIF24DBIm5sDTfG29ub4OBggoODiYyMpLq62qqwHj16dK/6CXqPXqejpuoMLU1adLpOdDodel0nYHmHpri4mISEhG7nMwjo2bNnU1tbC3QFue/duxd/f3+ysrJYt24da9asMRn3xz/+kccffxyAuro6YmNj2blzJ+PHj5f6xMXFMWbMGGkNg+uL+Zr+/v7k5OQAXRcNc+bMEVb2bhACXCCwA9aCMIH/8QEXFnBBFyIIs284OTnh4tJVZMrBwYErV65QUFDAwYMHuXDhAvfff7/NscnJyXh7e1NWVibls8/Pz7caoBYWFkZVVRVqtZpp06ZZuGQEBwebCI/6+nqSkpLIy8vrc8VLX19fIiMj0Wg0kvA2uKEYytcbCltB18W9YQ2VStXrALuysrIe96bVanvVT9AzilH3s+NY7Y20r3o9yGQEjxvWr/kMBdLCw8Mlwf3GG2/g7+8P3BDRxgI8KyuLF154gZKSEqDrjtsbb7xhIr77sqZhzpKSEoqKivp1HvcSIghTILAD1oIwgQHNgiK48xFBmH2jrq6Ov//97ybpNi9dusSZM2dob28nJCTEZhDm4sWLSU5ORqlUmljJexKbvckwVFdXR1lZmUl++59DcnIyycnJkhuAQqGguLiYyspKfHx8OHToEABXrlzpdv8FBQXExMQwZ84cVq5cadO322D19/HxIS4uTviADwBPBgxlfug4/teMR7v+Zgbyv2Y8ylgfd4u+CoWCwsLCbuc7c+YMZ86c4fLly70KzqytraWwsPBn1VQwX3P//v0UFhaiVCqF5bsXCAEuENiB2NhYqxaCgcyCIrjziY+PFz9kveTKlStkZWVRVFRER0cHgwYNYsiQIcjlcvz8/IiOjiYyMtIk7sIYgwtKYmKiZBH09/fn1KlTFn0bGhrw9PTEz8+PgoICi+NardbkdWBgIB988AHz5s2zONYbzMW7wR3EWAjL5XLS0tI4ceIEv/3tb9FqtTb3b2DatGmS5d9acKqBiIgIkpOTKS8vFxkz7MDUqVMB+POf/0xzczMA+/fvp6KiwuaYkJAQ3n33XalPVlYW8+fPl44nJiby1ltvdTumr1RXV+Pv78/48ePZv39/v+a4lxACXCCwA7Z8UYUFXGCMsID3Djc3N7KzsykqKuL69esMGzaM2NhY1q9fz7p16/jwww/5j//4D+67774e5zIWyPPnz2fx4sVoNBqpTaPRkJWVRVhYmOQekpKSYjJHWlqaSeAawPTp04mOjiYtLa1P55aSkkJISEivfa4Nory6utrq/tVqtfTc4AO+ceNGUlJSqKmpsTqnwQfceA+HDh2SsqVs2LBBGmv+XggGBkMg9mOPPcaYMWM4ffq05PYBSKkJDQLY39+fDRs2MGfOHMaMGUNJSQn/+Z//KfW35mpiPubPf/5zt3syXzM8PJyjR49KrimC7hE+4AKBHbAVhLljZz7Zs57mSt15vIY/IB7vocfrHZb2EBGE2TNOTk7IZDKOHz9OQ0MDI0aM4KWXXmLevHm4ubkB9CqNo8ESXFBQQG5uLtBlac7NzSUoKIjIyEjq6+spKSlh9+7dkhjduHEjS5YsYeLEiQQGBlJQUMCiRYusCtHExERiYmLYsGGDzWqxcMPHu6CggGXLlpGenm71OMDq1as5ffq0lCqwrKyMiIgISYib7/+JJ56wCOKUy+V88MEHJCUl2QzYNKesrIyTJ08SERHBgQMHmDJlCr6+vrz33nt9vsgQ9Iy7uztvvvkmb775pkn7+PHjbd4ls5Vq0Dio2Py1rTHGbbbWHD58uEmmFnH3rntkTU1NtrO+CwSCm8JHH31EaGgo48eP54e666Tur2bX2esEejsxwk2PQ+d1dI5u4vEeejx93YOfrrQxb4wb614Yyf0eztTX11NVVUVQUJC9P7I/m4tN7SQVVjHWsY7U6KkDNq+TkxPOzs68+eab1NfXM2fOHJ577jmcnZ17PYdGo5Es335+fhbWZq1WK1mRzcWr+Rzm47VaLdXV1ZIgNsxlax5jC7VCobDw4TY+buhjWKOn/cvlcpN9GO/LMLdhPugKADVYtq3NCV3ivaamRjpu/NwWXx7/kcxTrqye5cejw9267Xsn8nJOOScu6dn/Kw97b0VgR2panXntH5dJme7NS+Mtg2uFBVwgsAPmQZiuDnqef9j4h8hZPN5jj4GDINDLDfifrAh0uaD86U9/4vvvv0dgnY6ODlxcXPjzn/+MXq9HJpPR0tLSpzl6CiqUy+U2BXNPcxiLXuO5jIv/wI2MJj2tY+24XC7vVvRa27/5voznNhb9tua11UekJxQIeocQ4AKBHTCuhPnocDf+8NQIe29JcJvg5AD3e3QJc1EJs3cYAtPuJObOncvs2bOl1yK1n0BwbyEEuEBgB8wrYd6Nt2EFPx9RCfPuRaTyEwjubUQWFIHADsTGxlJQUMC1a9eknL3fffcdlZWVok20SW2nTp0SQZgCgUBwFyKCMAUCO7By5Uq8vLwICwvjqaeeQq/X89RTTzFz5kzRJtpM2trb200Ky9yp3KwgTMGdhwjCFNwL9BSEKQS4QCAQCG46QoALDNwLAry8UUbGuCqCg4NRq9Xi8R583PPlV2T8ezTJM0cIAS4QCAQC+3CrBbhWq6WxsRGdToe7uzuenp44OTmh0+l6Hiy4qdwLAnzQpVNs+t+isNq9zKnqq8TtqObNGT4iDaFAIBAI7m70ej2VlZVs27aNkydP4urqSlRUFC+++CIeHh50dHTQ3t5u720K7nLq3UbeknWuX7/Ot99+S0NDAx4eHjzxxBO4u7vfkrUF3dP6/7d373FRlnkD/z/DQcQZRBQ5mIoIZHlkqGzzkFaKFS0ewpLU9Flz+cU+z5brwm48xcOr7aH9wW/FXHdc8rF0xcX1kMFKq6mli4e0dFCRVFS0XE4SBsygcpj5/cHO3QwznAzw9H2/Xr6A+77u67ruCfM73/ne11VVgYup5fJBeQhTCCHEXaOuro7MzExlR74nnniCZ599ll69elFSUkJDQ4PdNdHR0ajVatRqNWPGjLHbej42NlY5Hxsba3MemrZiHzNmjHJ9enq6ck6v19vsXJmQkMDGjRtbnL9arbb5PjU11a7Nxo0bbdpZjBkzxmHfubm5TJ06VbmHqVOn2oxh/QeaPj1ISEiwOy7az/v65S4fo7a2lr/97W8sW7aM9957j7S0NFatWkVlZWWXjy3a5ubpTYNTjxbPSwAuhBDirlFVVcWJEydwdnbG29ubcePG0adPH/Ly8vjrX/+K2ey46nL//v0YjUZiY2NJS0sDmnZ1DA0N5fHHH8doNGI0Gnn88ccJDQ1VdoJMTU1ly5Yt7Ny5E6PRyM6dO9myZYtNEG5hCY7nzJnT7vuxbDFvbc2aNXbHCgsLGT58OO+++67N8ZycHN5++21SUlKUe9i1a5dNG8txo9EIwPbt2/n+++8pKyuzOS7arzsy4JWVlfzjHzsYMGAA8fFxjB49mpycT7hw4YLD9qWlpcrOpqWlpej1euVPe1i3t/z+N+/Xwnp32cLCQuU663aOrrOM03zezcdt3sZgMNgca/699Xybz695H47a3wzJgAshhLgnuLq6UlNTw40bN3BxcaGiooK9e/fy2Wef8de//pUjR4602Ud1dTVjxowBYP369SQlJdkEzHPmzOG1115j+/btGAwGkpKS2LZtm7IDpJ+fH+vXr+dXv/qVTb96vZ41a9aQnJzcoXuaN28eOTk5ys+5ubmEh4fbtfvwww+JjY1l+PDhNhn6F154gfXr17e5w6a1qqoqAgMDZXOgH6E7MuCNjY1cu3aNfv368dBDD3Pfffdx7do1h5/yAGRlZZGVlaV8v3DhQlJSUoiPj0etVjt802htwoQJpKSkkJKSgq+vr/J7Zt2vRWJionI+MTGR+Ph4UlJSCAoKUpZcdXSdZRyL6Ohopk2bpoxbUlJi1waaAmrrY82/X7x4cYvzg6Y30r6+vso4zdvfjLYy4FIDLoQQ4q6gUqlwcXFBpVLh5ORETU0NO3fuJDc3l8rKSgYPHtzitZZ/sIODg9myZQsAx44dIz4+3q5tQEAAVVVVFBYWEhkZaReoNt9vPgC2AAAgAElEQVSOvaCggPj4eLZt29bhe5o/fz7z588nIiICAJ1OR1paGklJSTbtcnJySE5Oprq6mg8//JDk5GT0ej2RkZFtbg9vKTGJjIwkMzOTuXPnsnjxYqKjo4mPj+9Q8C6adEcG3N3dneDgIPLz80lMfIsrVyp44IFheHt7t+v62NhYYmJigKYs87Rp0xg4cKDyu+ZIZmYm0PT7lpiYqPzclpSUFLRaLbm5ueh0OiZOnNjmNXq9noqKCo4fP96uMVrj5eVFbm6uw3FTU1O5evUqZWVlnfqmUzLgQggh7gkXLlwgIyODGzduYDabMZvNGAwGysrK6NWrF+Hh4Tg5Of5nz1KCsnbtWkJDQzt1Xj4+PgBK9q4j/Pz8CAkJobCwkNLSUry8vOwC6tzcXCVomjRpEu+9957DvtLT05WabuuP6C1lJpZgSqPRkJmZybx581i4cGGbmVFhr6sy4JYSqh49euDh4cGLL75Iv379OHWqAFdXV15++WWCg4M73K+fnx/Jyck2n7a0ZsCAAR3q/8yZM+j1enQ6HbGxse26RqPRUF5e7rBMBWxLYs6cOdNqX4mJibz99tsOy06SkpJISEjo9E98pAZcCCHEXa+0tJQPP/yQgwcP0tjYiKenJ/7+/vj4+BAcHMyCBQt45pln2lyG0DrbGxYWpjzMae3SpUsMHDiQkJAQsrOz7f5RLy0ttQmCvL290el0REVFtRhMtGbx4sV8+OGHrFixwuaBTovMzEzee+891Go1vr6+QFNQ3nx+MTExHarnjoiI4MCBA+h0upuad0cc//o8q//2Cdfr7qwVav555CSZf/+choZGm+NdlQE/d+4ca9as4dy5c3zwwQe4u7sTHR2Nq6sr06ZN44knnrjpvgcMGMDVq1dbbaPX68nNzSU+Pp7Jkye3u+81a9aQkpJCRUUF1dXV7bomJCSElStXEhQUREJCgt3fM0u5SEpKisPnIqz5+fkRFRXFhg0bbI43/xTLUb35zZIMuBBCiLuWSqWiV69e/OUvf+GLL76gsbGR++67j5///OesXLmSP/3pT6xatYrIyMh2Lc9mnRmeP38+SUlJysOTBoOBjRs3kpOTw6RJk9BoNCQlJTFz5kwlQC0sLGT+/Pm88cYbNv1agon58+d3+B92rVbLl19+yZdffmn3EbrBYODAgQM2D1Lu2LGDzMxMh/PraCBtMBg4d+4c0PQQqWVVFuvVYCw18zfr+Nfn+bb0O2ZHPMGmnH13TBD+zyMncXFxYcIjo9m264BNEN5VGfDs7GxOnz6Nu7s7p0+f5vPPP6dfv344OTlRVlZGXl5epzxA2JKUlBR0Oh2vv/66Ur7S3usyMzPZtm0bL7zwQruvmzhxImVlZQQEBODr62tzb5mZmcqflJSUNvuKiYlx+GayoqJC+f7o0aOkpKQwYcIEu9WOOkpqwIUQQty1nJycMJlMFBQUYDAYCAkJYe7cuTzxxBO4uroCtGvdb+sa8Ly8PKApa5aXl0diYiKLFi0CYMGCBezcuVPJmMXFxdG7d2+CgoKU69944w2HK51MnDiR8PBw4uPj0el0HbrP119/nZqaGrvj27dvZ968eXbjPP3006SkpCjzmzZtGufOnSM4OJhly5YREhKitLdeZnD//v0cOXJEeYg0ODiYTZs2tVlHfrMswfcLEU3Z1Mip49mUs48XIibRs4drl4zZGSzB95QJDynHtu06wMyp44Guy4AbjUauXr3KsWPHqK6u5tq1a5jNZlQqFWfOnMFoNBIdHX1TZSirV69m+vTprbZpqea7eVa7oKDAYUnHzZR5aDQaYmJiqK6uZvv27R1aRai5tWvXsmTJEuVnrVbLwYMHKSwsJCQkhIiICCIiImz+TpSWluLn56cE/xqNRjnWmrYy4BKACyGEuGM5OzujUqkYNWoUgwYNYtq0aTz++OOYTKZ2b7jT2oNkISEhbT5oFhMT02I2UKvV2lwfFxfXal/WJSLW3zd/MM5yrqVgxPra1ubnqCRFq9U6bG89lvUbiJt9SO6bixepN1YrwTfAAJ9+t30Q7ij4HjZ0ENAUhDuZ/f+dAR/d6WOHhoaSl5fHihUr6NWrFw8++CCNjY2YzWb69+/PiBEj8PDwaFdfly5dUkotMjMzKSws7PAbQ4Dp06cTFBTEoEGDGDZsGJs3b2b48OE2b/IsNdpHjhxh3LhxdnMA8Pf3twlqDQaDkoU2GAxkZGSwdu3aDs/PmlarxcvLi3Xr1ikPWG/atInQ0FA2bdrEgAEDKC4uVtrr9XomTJiA0WhUyldiYmJYsmRJmw8oN2XAW/5/kATgQggh7lh1dXW4ubmRkJCgZAJv3Lhxq6fVpujoaLKzs5WfLSuQ3CsGVp/huzI3XnnRfsUNSxCuy8imX5/ehD44FIC8r5vWt76VP9dev0FwwACenvyo3byHDR1EXX0D53d9waGegR1+TdpjypQplJeXs2PHDqZNm8bUqVP56quvqKqqorKyktraWpydnR1eO3DgQJvv9+7dS0pKCl5eXkrmtzWRkZEOj/v5+bF//35Wr15NVlYWYWFhJCQkKOfDwsKU5QYDAwOV1YCs5wBNS25GREQo45SUlCjnvLy8WLlypRLwNp+LRqOxOdbS99BUDnP16lUlGx8REcH+/fvZvHkzRUVFBAYGsn//frRaLaWlpcqKQ8OHD1f6mDx5Mv7+/q2+Xm1lwFVGo9HxrgRCCCFEJ7lirGfJ9svc71xOYpR98CLuHZ8fO80HBQ1McLnMi89NYoBPP7s2f9v+ORp3N4YO9sfTo6kcoKqmKVt/K3821F7jq5OFzPnpk3h52maaGxoaWf/xp+y/4katoZI1v3j2pl6f1jg5OaHX63nvvfd4/fXXCQsLo6KigtzcXMaOHas8hPtjlJaW2q3YI0tRdtyZku+Zt62E3z7uy/Mj+9qdlwy4EEIIIbrVdWc1P5k4nuxdB4icOt4mCN+Us5fB/t6MeTDI5po+vTW3xc/3+XqzKWcvL0RMVoLwhoZG/pq9m4dGhJB16BrGhrYf+L1ZlvXuXVxcMJlM9OnTh5/+9Ked1v/Ro0ftdmC9lz6d6SxSAy6EEEKI204PV1deiJjEppx9ShC+KWcvg/z62QXft5M+vTX89MlHlSDcQ92Lv2bvJvTBIIIDBsCh811WAw4wcuRI3nzzTYYOHaqsC96Z2lOOItomNeBCCCGEuC317PFDEN7L3Y2QgAG3dfBtYR2Eu7o48/Co+5uC73/rqlVQTCYTTk5ODB48uMUt58XtQTLgQgghhLhtWYLwi5dLeeDfq4ncCSxBeFWNkYD7bGuvuzIDLu4MkgEXQghxz/n2228pLi6moaGB/v37ExgYiLu7u2QNb1M9e7jeUcG3RZ/eGrtacei6DLi4c0gGXAghxD3DbDZTUFDABx98wOnTp+nduzfR0dEEBgbi6uqKs7Oz3TKFhYWFeHh42KxBbNktz7IBR0lJic26xtbnLatGOFopwrpv63WNwXZlicLCQptd/ixjtdTewrKGskajsZmfZazmx62vse7XeuULR9dYzzEkJOSmNlS5l0gGXEgGXAghxD3jxo0bZGZmcvToUe677z5mzpxJREQEzs7OnDt3jvvuu8/umsTERLKzsykrK1MCS8u6xTExMRQWFipbaVtYn8/KyuJXv/oV58+ft9tIJDQ0lGXLlin9TJgwgcjISAoKCvDx8WHXrl3KHCoqKvD29gbg7bffxmAwtNg+NzeXp59+WlnjOCwsTNnkJzU1laSkJCIjI6moqKC8vJwtW7YoQbWlT4vMzEyysrLQ6XQMHz6c7OxskpKSlP4KCwuJiorCx8cHb29vu/Nd6cqVKwD079+/S/ouLy9nxIgR7WpfVFSERqNp11y6KwN+8uRJdu/eTW1tLUOHDuXZZ5/F19eXGzdudMkDmqL9JAMuhBDinlFZWUlhYSGurq707t2bYcOG0aNHD/bt28eBAwf4zW9+4/C6BQsWsGrVqpsOKoODg1m/fr3N9Rs2bLDbEtx6w52pU6ei1+uVzHZKSopNlluv17fYXqfTsWPHDiZOnGjTf3p6Op9++qnNm4mcnByioqJsdqx0tKxcbGwsMTExGAwGfH19iYuLU95EbNq0SVkZw2AwMHPmTIYPH96lq2VcuXKFjz76iKqqKmbPnk1gYOdtbpOens7y5csZMmQIAFu2bLHZftzaqVOn+POf/8zu3bt56623eOmll9rsv6sz4CqViiNHjpCens6FCxfw9fVl9OjRaDQa6uvr6dGjh90nPXq9niNHjgDg6enJc889p2yrfvToUZv/lpZPSbRabYvXQdPr2HzX1JycHB566CHlzWhubi4FBQUAjB07Fq1Wa9fG0tf06dPx8/OzOZ+Tk0Pv3r1tftet52dRWlrK3r17qaqqwtPTk8mTJ+Pn5+ewbU5ODgMGDLA5Zpmn9bU/RlsZcKcf1bsQQghxm+jRowfXrl2jvr4eFxcXSktL+eSTT9i2bRsbN27k1KlTLV67ePFiPv30U5uSj46IjY0lIyPDpoxky5YtxMbG2rSrqKhAr9eTk5MD2AYFZ86cQa/X25WIWFiy49C0M6AlqLGm0+nQ6XQ2JSIRERH4+PjY9GsZx/p+LduCr1q1Stn9b9++fSxYsMAmONNoNCQmJtqtFd3ZvvjiC5YvX86HH37IoUOHOq3fK1eusHz5cv70pz+xZcsWLl68yGeffdZi+/379zNy5MgOjdHVGXCz2cy2bdu4ePEi/fv3Z+7cuTz7bNPGP1988QXff/+93TVHjhxh7969AJw4cYKZM2cq5VXN/1seOXJECbqtr8vKymLx4sVKu1/96ld242RkZCjlTNHR0Q63t7duY92X5Zj1+YyMDJ5++mml7Kv5/KApoA4KCuLbb78FoKqqSrm+eVtLn5ZjBoOBqVOnKvP89ttvCQoKUv6O3izJgAshhLgnmEwmrl27BqBsSX/o0CGOHj1KdXU1DzzwQKvXp6SkkJiYeNObjsTGxrJv3z4iIiKUrHNzBw8eJCUlhYqKCkJCQjAYDEqwvGbNGiXItszBErAXFxdTUFCglJGkpKQQHx/PmDFjWLlypZIdPHfunMP6bevg3XI92Jau5OTkUFRUREVFBeHh4QBcvnyZMWPG2PXXHTXgI0eOZMiQIVy8eNHhHG5WeXk5AL6+vkrW+/Dhwy1uZhMTE8OpU6dYvnx5u8fo6gx4ZWUlFy9eBH7YmKexsZG9e/fy97//nf/5n//B3d3d7rrJkycrGeupU6e2+w2n5bq5c+d2aLfN7OxsjEZju9u3ZNmyZSxZssTh3029Xk9CQoLNpz4dkZyczCOPPEJycrJybMaMGYSGht50nyA14EIIIe4Rp06dYt26ddy4cQOTyURjYyM3btxApVLh6+tLREQETk5OmEwmh9drtVoCAwNvOvM1ffp05s+fT0REBBkZGaSlpSm14hbWJSWpqals2LBBCYial6DADwF7dnY258+fV4IBjUaDTqdDr9cTHx9PVFSU0o91UN+S1kpQoCk4mzJlCgDV1dUdfSk6hY+PD3FxcXh4eNCrV9ftLAlNGdPO1JUZcMvDxADOzs5UVVWRlZVFQUEBp0+f5urVq50+piUDfvz4cTZt2tTu68aNG0d6ejpz5861+53cvHmzXWa6JWPHjuX48ePk5ubalV1t3ryZ5OTkVn/nLfO3KCgoYPLkyQC89957nD9/3uZ8SEgIkZGRFBYWOnz4uT3ayoBLCYoQQog73qVLl/jzn//MyZMnMZlM9O/fn+DgYAICAhg9ejS/+MUvmDJlSovBt0VCQgIJCQl2QWdFRYXdeJ6enjbH/Pz8eOSRR8jJycHLy6vNGtLevXu3eV+WgH3Hjh0sWbLE7rxWq2Xbtm1KKcCCBQvYvn27TRuDwUB2drbDzHhLLBnzJ5980q60Bpo+1g8LCwOwKQ1o6fuboVarefLJJ3nkkUc6tf7bEUuJSVFREQBGo1F5APRmNGXAu0Z9fT1nzpyhvr4eJycnnJyc+Oabb/j88885f/48gwcPdpj9hqZAND09nejoaMDxyjqt6dOnD8uXL7f7fWjJtm3bqK6uxtfXl40bN3ZorOYSExOVh5OtFRUVMWDAD5sgpaenk56e3qE30j+23tuRpgx4jxbPSwZcCCHEHcvJyYmePXuybt06Tp8+jZOTE/fffz8vv/wyI0eOpKGhoUPZU41GwxtvvMGiRYtYtmwZ0BSklJeXk5CQwOzZszlz5gzvvfceZWVldtfPnj2bCRMmsH//fof9W0pKDAYDW7ZsITExUTl35swZ5Xt/f3+b6yZOnEhmZiYbN25kzpw5NssW7t69W1nVZMmSJYSGhlJVVcXYsWMpLi5m+fLlLFu2rM2suKUG3FLu4u/vj5+fHxEREcycOZPExEQ0Gg27d+8mKSlJuf8lS5Ywffp05syZQ1BQEEajEb1eb7dyzO3C8uBlZmYmjz76KNC0Msxf//pXfve73/HJJ5+wbNkydu/ezddff31TY3RVBtxsNnPixAl0Oh0GgwGTyURdXR2NjY24uLgwcOBAoqKi6NmzZ6v9zJs3r0MP0FqXrkRHR7c7M6zRaIiLi2P+/PnMnz8fDw8PZdzZs2fb9OGontyan58fUVFRbNiwwea4l5cXxcXFNn1ZMt6Wsaznb33eorS0tNODcKkBF0IIcVdrbGxUAtLQ0FAWLlyIVqvFyclJOd+asLAwm+B0zpw5nDhxgoEDfwiidu7cyYoVK0hJSSEwMJC8vDzlGut2Wq2WpKQkJRiwPqfRaPD29lbqrxMTE5WP08PCwmzKVebNm8f999+vZJnhh7rv5557jo8//phjx44p165evRpo+uj8/PnzrFixgr179+Ll5WUzDmCzBKHFwIED2bt3LykpKXh5ebFlyxYlIElOTiYnJ0d5SC0sLMymNnby5Mk89NBDALz22mtA0xsIy0f8txu1Ws0nn3zCmjVr+PTTT/nLX/7CiBEj6NWrF88//zw+Pj7MnDnT5sHLXr16MWXKlHYHaV1RA+7s7MzRo0f54IMPKCsrw8XFheHDhzNy5EiuX79O7969GTFiRKsPjDYPRKHp97KgoMCmdGnv3r3Mmzev0+bu5+dHYmIiOp3uR62cExMTw5gxY4iIiCAgIABoCrKXL1/OpEmT0Gg0yv01D7Jb8tprr7FixQqbGvDCwkKys7PJzMzEYDCg1+uZOHGiUjMfEhJCbm4uWq22xTe2UgMuhBDiruXi4oKzszNPPvkkNTU1PPnkk2i1Wurr69sMvC0cLT1o/Y8xNAUQzY9ZNA8orPuzPhcSEtJiRril5Q+tj1vqvltr39ZcwXH9d0RERKuBUWvnrQM6y7h+fn52gd7tJDAwkHfeeafFY08++SRPPvmkzbk//vGP7e6/szPgzs7OuLm58fHHH1NQUICrqyujR49m0aJFDBs2THnm4WaEhIQwfPhwZs6cqSxXWVFRYfPf2xLMXrp0SXmA2CI9PV35vvl/c+tzOp2OlStX3tQcra1du5YJEyYon1BFRERw4MABxo8fr6w61JFAPyEhgZkzZxIdHc3kyZO5dOkSOTk57NixA2gKxp9++mmMRqOyWk5ISAg6nY74+PgWPwmQDLgQQoi7Vl1dHWazWVkaTaVSUV/fctZJiO7Q2Rlwk8lEQ0MDVVVVNDY28vDDD/PKK68QHBzc7t/3sWPHtnguMzOTnJwcLl++TEREBJMmTXJ43ejRo0lISFCyvpYg2Nq8efPsSqgAm82gHLVZtmyZcsz6fPO2Wq2WTZs22dR9Jycn8x//8R9KgGw9lqP7njdvnnK9RqNh165dyv2PHj2aX/7yl8qnHSEhIUowbv2mLDY2ttXnKtrKgKuMRqNslSSEEKJLXTHWs2T7Ze53Licx6tFbPR1xC31+7DS6M268/ZQ/D/q0Xqt8J3pp43mMRiNZizovAHdycsLNzY2jR49SVVXFkCFDGDhw4E1nvUXXO3H6HDG7jfx68iCeH9nX7rxkwIUQQgghOlFXZMCvX7/OiBEjlGMSfN/epAZcCCGEEKIbdcUqKGazFCzcSWQdcCGEEEKIbtSV64CLO4OLu4esAy6EEEII0V0+NgTxr/WXbvU0xC1UZmzASeXc4nkJwIUQQtx18vPz+frrr6mrq2PIkCE8/PDDeHh4UFfX8kfCQnQWz55O6J5q/wZQ4u5z/Eoj7xysbvG8BOBCCCHuGiaTiSNHjrBq1SouXbqEt7c3ixYtwtnZGScnJ9zd3bl27dqtnqa4y/V0UeGuarjV0xC30BBP11bPSw24EEKIu8a1a9fYsmUL33zzDQEBAbzyyis888wzmEwmjh075jD4jo6ORq1Wo1arGTNmjLLbHTRtwhEbG6ucj42NtTkPTZuNjBkzRrneevMRvV5PdHS08nNCQgIbN25scf6WcdRqNdHR0cp2863NUa1WO5yLWq1Gr9fb9WvdXghxa0gALoQQ4q5RUVHBpUuXcHFxoWfPnvj4+KBSqdi9ezcbNmxo8br9+/djNBqJjY0lLS0NgNLSUkJDQ3n88ccxGo0YjUYef/xxQkNDlcA4NTWVLVu2sHPnToxGIzt37mTLli02QbiFJfCeM2dOq/dgGSssLIz4+PhW52itsLAQnU6nzMVoNNrs0mc5ZjQaWx1fCNH1pARFCCHEXcHNzY3GxkYaGxtxcXGhpKSEjz76iBMnTvDPf/6zXTsGVldXM2bMGADWr19PUlKSTcA8Z84cTpw4wfbt23nuuedISkqirKxM2RnQz8+P9evXExQUZLMtt16vZ82aNezatavd9zNlyhRSUlLsjo8dO1bZGtyawWDAx8dH2cFPCHH7kgy4EEKIu0JdXR2lpaWYzWZUKhUNDQ2cOHGC7Oxs/vWvfzFo0CBUKpXDaydMmIBarSYjI0PZbvrYsWNMmTLFrm1AQABVVVUUFhYSGRmpBN8WzQPggoIC4uPj2bZtW7vvxWAwsHnzZgIDA+3O7d69m7CwMLvjWq2W8PBwxowZQ05Ojt1569IWcWt9XlDByeJrdn/yLlV1y/gZGRnK93v27OmWMYUtyYALIYS4Kxw9epQPP/yQGzdu0NDQQGNjI9euXcPJyYnAwEBmzJjR4rX79+9Hq9Wi1+sJDQ3t1DINHx8fAEpKSggJCWmzvaVG+7XXXiMhIUE5PmHCBIfHrcXFxSmZ84yMDDIzM5VzUnpy+yj+rpqfRTxsdcRMQ309/7f9CAR4OrymtraWXbt2UVNTA0B4eLjyu9VRp06d4o033gBg8ODBPPXUUzfVj7h5kgEXQghxR3NycuL48eOsXr2ab7/9FmdnZx544AGeeOIJJkyYQEREBK+99hpjx45tczdB65rpsLAwdu/ebdfm0qVLDBw4kJCQELKzs5V6cIvS0lKCg4OVn729vdHpdERFRVFaWtrm/VjqtJOTk22y6/v37+f8+fPk5OTYjdn8HjIzM/Hy8nKYCRe3ntlspry8jFOn8jl1Kp8Tx/MoK2553fD8/HxGjx7N119/3Snjv/XWW/zkJz/hJz/5Ca+++mqn9Ck6RjLgQggh7lguLi64urryt7/9jQsXLuDi4kJoaCgLFy5k6NChmEwmnJ1b3gyjOcuqIQDz588nKCiIQYMGMWfOHAwGA9u3bycnJ4eEhAQ0Gg1JSUnMnDmT9evX4+fnp6yaYskuWoSEhLBy5Urmz5/Ptm3b7MpW2svPz4+VK1eyZMkSm+x2cwaDgatXr97UGKJ7nDlzml27dmM2mzA1NjAvOsphu9raWmbMmMGuXbvsSpLKy8v59NNPlZ9DQ0MZOXKkct2hQ4coKSmxOb5nzx5GjRrF9OnTqa2tJSMjg3nz5il97NmzR7kGIC8vTznn7+/PqFGjWhzz8OHDFBYW4uHhwdSpU+nVy3Yt9Pz8fMrKypSM+549e/D19WXkyJEUFRVx4MAB4Ifsfkv3V15ezsmTJ5V+Dh8+jFqtZuTIkcr8Le2HDh2qvA7+/v4OxwZsXgfr74uKirhw4QJPPfUU+fn5AMo1WVlZPPbYYzf1SYRkwIUQQtyxGhoaMJlMXLx4EaPRyIgRI3jllVcIDg7GyckJF5f25ZksNeALFy5UAg4/Pz/y8vLIyspCrVbj6+vLP//5T3bu3KkE0HFxcURFRREUFIRarSYqKopFixY5XOlk4sSJhIeH26xscjMmTpyIl5eX3XKGer1eqfP29fUlLCyMiIgI5bz1MoTWbzRE9zObzQwNGMDCeVEsmPs8L7/0PI11tQ7bHjp0iFdeecXh8wDl5eUkJSUpP8+YMYOioiJqa2v52c9+pnyC8/rrr5OVlQXA1q1bKS8vB2DdunU218+ZM4etW7cCUFZWphy3btPSmICyPOYXX3zBr3/9a7v55uXlKf1b5mL5+3bhwgUAampqGDduHLW1tS2OVV5ervRTXl7Of//3fyv9bN26lYMHDyrXGAwGJSBfvXq1Uv9uPXbze7T+PjU1VRkrLy9Puebw4cMsXbpUeS07SjLgQggh7lguLi44Ozvz8ssvYzQaefjhhwkKCqKhof2boLSWSQ4JCWn1PEBMTIzNiifWLOUgFnFxca321VKddvM56HQ6u2u0Wm2L10v99+1F3dOVU4UXuX7N2FQWZTajcnKmV09/u7YlJSUMHDiwXf2Gh4fj6+vLoUOH6Nu3L++++65y/KWXXmL69OlK26KiIk6ePEl4eDjQlBHu27evze8WNGV7k5KSlIywJQvcfEyAWbNmceHCBTw8PFi6dKnDOZ49e1YJgs+ePcu4ceMAlAxzWVkZQ4YMUQJyR2NZn0tLS2PhwoU27caNG2eT1Q8PD6e8vJzLly9z8OBBm3OtycrKYty4cTYBPTR9upCWltbiPbaHZMCFEELcsRoaGrhx4wbPPvsss2fPZujQoR0Kvm8V6411ZGWSe8/kkfdBTx96egXi3nco7v2C6Ok1BO2QfnZtPTw8uHz5crv6PXv2rJLxtVgMoWAAAB3nSURBVAS20PQg8MWLF23avvHGGzZvCJtf016WMcvLyxk9ejQ6nU55ULQj5syZwzvvvMPZs2fbHMvi8OHDAEq5jCOHDx9m3Lhxre4D4Eh5eTmZmZnMmjXL7ty6deuIjo7Gw8OjQ31akwy4EEKIO1pjY+OtnkKHtZVVF3e3vmoX+qodr3bS3GOPPcbSpUt58cUXbcpQamt/KFmxZHQPHjxIeXk5/v7+bN26VTleXl7OkCFDlPYbNmzgueees+mv+TVtaT5mXl4eS5cu5dVXX6W2ttamjMPa/fffb3Mt/JBVt5RV7du3r9WxACorK0lLS+ODDz5wmC23WLduHRs2bODRRx/l8OHDrFu3rl33l5aWxptvvmlXx37q1Cmqqqp49dVXbZZz7CgJwIUQQgghblM+Pj6kp6czdepUli5dioeHB9u3b2fFihVKG0sg+Omnn5KUlMTQoUNZvXo1b7zxBiNGjGDt2rU2DwZ/+eWXvPXWWzbjPPbYYzbXWD+w6EjzMf39/UlKSupQxt76Hr/66itWrVpFVVUVFRUVrY5VXl7OV199xR/+8Ae7ALm5wYMHk5aWxnPPPWdXStL85+YPpFoetrS2efPmDm2o1RKV0WhsfU0mIYQQ4ke6YqxnyfbLHKtoZN7oPrd6OuIW+udFIx4uJt5+yp8HfXre6ul0upc2nifvOzN7Zqk7tV/rFUFaWiVk/PjxSlbbet3w5qugDB06VGm3Z88eJdBu6RrrwLS1MS0rkMyaNYuPPvrILpve2ioo+fn55OXlMX78eC5cuMCoUaMAHI5VXl7OoUOHlJr28vJyysvLlVVQrFc3sdwTNL3JsKyeYr1aikVSUhLnzp0jIyODWbNmKcG95TXKz8/HaDTy6KOPKvfj4+PjcBWU0huuvPKPShImevP8yL525yUAF0II0eUsAfj5Gtjw7M0twSfuDv/v0XoqDTckABe3neDgYM6dO9cpfbUVgEsJihBCiG7j6eaEu+r2f0hSdJ2APj2oNNy41dMQwk5LdetdQVZBEUIIIYQQ97z2PoDaGSQAF0IIIYQQohtJAC6EEEIIIUQ3khpwIYQQt439Z69SXXvd5pizkxMjBvVhoJdbl4+fn5+vrJ5QVFTkcPtvIYT4sSQDLoQQ4rbR0NjIf84ap/z5xczHeGHyCMqutr6zXlFREfn5+eTn59tsUNJR77zzDllZWWRlZfH+++/fdD/i3ta77jsADh06JF/v4a+tkWUIhRBCdDnLMoQVdU58OKVHi+0+Lyhn3tQxQNM/TQ31dRSXlJF3qYqHhnrbtS8vLycpKYmzZ89y//33AxAXF3fTmeuioiIl8H7rrbfa3ORDdNyH51zRX665q5chdP/uDGt+8eytnoq4hQqKivmPTyqJnzRAliEUQghxezObzSxfnsa+fbmAGVNjI//fH1JabP/LX/6S6OhodDqdzXHLxhwWzXe0Kyoqwmg02hwvKirC19eXd999F7AtR7Huc+jQoRgMBpv+1Wo1arW6xTEt17a0aUdRURFqtVo5l5+fz9ChQ+nVqxe1tbVcuHABtVqtvLFo6f4sxyz9WO6pV69eynbfgNK3o3k1H7usrEwZ1/o1sT7X2rj3ooqeA7us7++//57vvvuu1Tbu7u4EBARQX1/fZfMQP44E4EIIIW4bDQ0NvDz3ReZETcdkbqShro6r1dWAu13bw4cP07dvX2U3PGuWLavDw8OprKwEYOPGjdTW1vKzn/1MaVdRUUF2dja9evUiNTWV2NhYRo4cSVZWFkuXLlU25Vi1ahV/+MMfCA8PZ9SoUdx///1s3bqVTz/9VDnm4eHhcMyioiJSU1OVeW3YsEHZSc8iNTWVcePGKcugzZgxg48//piRI0fy61//GoCzZ8/y/PPP8+qrr7Z4f5ZdA+fNm0dRURFTp05V+pkxYwYPP/wwffv2JS4uThm3+bysx75w4QI6nU55gzNjxgzlNfnd735HVVUVOp2u1XHvRd7XLwOjO71fo9HIihUrKC4uxs3NDZVKhdlsxmw20/SpkYr6+npqamr4/e9/z8CBXfdGQPw4EoALIYS4bdTXXeebojNcrzVipimwqDO74tRjkF3bwsJCxo0b12JfDz/8MLGxsRiNRtLS0gBYt24dgYGBSpY7IyODdevW8eqrryrX1dbWkpmZSXh4ONCU9d26dSsnTpywyeg+9dRTBAcHK8FpRkaGwzEDAwNt2qxbt84uAAe4fPmyTZbawnJtfn4+M2bMUObqaCxrqampvPLKKzbH3nzzTZuguD3zciQ/Px9PT0+qqqraNe69pqsy4I2Njbi79yQ+Po4+ffpw9epV3Nzc0Gg0mM1mTCYTRqOR5cvfw2g0dskcROeQAFwIIcRt44EAf85W1gBeyjEXZyeG+/dx2L6mpuWHM7/66it0Oh2VlZWEhoYCcPLkSWJjY5U2oaGhduUrv/vd71iyZAnr1q0DIC8vj4ULF7arnMLRmEVFRSxevJiLFy8qGWhHdu/ezTfffGNzrLa2ll//+tdKpr2tsSyysrKUrHxL2juv5mpra3nnnXdYsWKF3c6B7Rn3XtBVGXAAV1dXvLy8MBgMZGVl07NnT3x8fBg5cgQjRozg+++/x83NfsWgnJwcMjIyAPDy8mLJkiWEhITYnM/JyeHq1auEhYUxf/58/Pz8lPOlpaWsX7+eY8eO4eXlRUREBBEREcr56OhoMjMzgaY3xx9//LHySYuwJ6ugCCGEuG0E+fRi/AO+Nn8eDemPR09nu7bjx49n69atLa56Eh4ejk6nY+PGjfzf//0fAJ6enpSVlSltjEYjnp6eys95eXkANplgDw8PLl++3K75Oxrz/fff57/+6784d+4cb775ZovXLly40KbcA2DXrl14enpy7tw5uzcKjsaCpjclmZmZLFiwoNW5tndezX300UdER0fb1bK3d9x7QVfWgDc0NNLY2EhtbS0lxSV8++23XLhwnqqqKpycnDCZTP8uSbF1+fJlAgMDiY+PZ8yYMURFRSnnEhISWL58OdHR0cTHx9O7d2+CgoIoLS0FmgLqoKAgevfuTXx8PNHR0SxfvlwpYQLIzs4GwGAwEBUVxYwZM7rsNbgbSAZcCCHEHSkwMJApU6bws5/9jCVLlqBWq9m+fTsvvvgiAJWVleTn59t8FD9jxgzmzp3Lhg0bAEhLS2PJkiXK+aSkJA4ePGgzzmOPPcbSpUt58MEHCQoKsnkYsjlHYwJ8/fXXBAUF2QXR7WFZYjE3N7ddY/3hD39gw4YN7crYtzSv8+fPK18rKytt1kTfvn07GzdutOurI+Pe7boqA+7q6srw4cPp0aMHgwcP5ucxi+nt0RsnZyfKy8opKyvDxaXl0C4gIACtVou/v7/y37ywsJCcnBwOHDiARqMBQKvVArBixQqSk5NJS0tjzZo1zJkzR+lr27Zt+Pr62mXKZ86cydq1a22y68KeBOBCCCHuWL/97W/Zs2ePUi6yYMECAgMDuXDhAn379lWCjI8//hhoymxv2LBBab9kyRIl2z1q1Cief/55JbM7atQooGllj127dvH++++zc+dOpk2bpgSj1mUh/v7+Dsf8+c9/zvvvv8+GDRuIjY21C6QtY/n7+ys/h4eHo1armTp1Kl9//TU6nY64uDhOnjzZ6lj+/v4sXbpUuSd/f3/UarVNnxYtzSs8PJydO3fazC81NRWdTkd4eLhNWYHlNWpt3HtRZ2fAGxoaqKysxN3dnUGDBmE01uLn54vZbCb9/fcxGo189913PD9rFuPGj0OlUjnsR6fTsXfvXgoKCli5ciUAn332GfPmzVOCb4uxY8eyd+9eoOnZiZQU29WINBoNkZGRlJSUKAF4QkICr7/+uhLAi5bJOuBCCCG6XHvXARe3n/z8fLvSmB9D1gHvuNzcXAoKCoiKiuKLL76gsLCQV155hdpaIwcPHsRgMFJSXMykyZN48MHhvPvuuyxYsIBhw4YpfaSnp3Pp0iVmz55NcXExCQkJ7Ny5k6ysLABiYmJsxtTr9aSkpJCZmYlarXb4UKelZEWr1aJWqxk3bhwpKSkSgNP2OuBSAy6EEEKIFqnVaiXTLdqnMzPgjY2NnDx5kitXrnDt2jUqKys5ceIEVVVVuLn15PHHJzF16hRmzprJoIGDqKz8juvXrzvsy1KCEhERwfDhwykpKWHgwIEcP37crq3BYMDLq+lh6ODgYAoLC+3vs6LCJnO+fv16Fi5c6LCtsCUlKEIIIYRoUWBgoM0yjaJtnVkDrlKp6N27N3v27OH8+fMYjUa8vLz46quv+Oyzz7h2rRaVygknJxUmk5n6+npqa2txd7dfO99aRUUFAJMmTeKFF16wWdXEYDDw9ttvk5iYCEBsbCyxsbFs27ZNCbhzcnIAbGq9/fz8WLt2rV1bYU8CcCGEEEKITtSZGXCVSkV4eDinT5/miy++YPDgwSxYsIDhw4czYsQITCaTTXuz2Yy7uztDhgyxO2ddAx4REaGUiuTl5REVFcXy5cvx9vYmOzubZcuWMXHiRKCpPKW6uhpfX18iIyMpKCjAx8fHYVmSVqslKiqKxYsXK8sSCnsSgAshhBBCdKLOzoD7+PgQHh7OxYsXefTRRwkLC0OtVtOvX78Wr2u+FOH06dMZO3Ys0PQApXXmOiQkhOPHj6PX6wFYvXq1XfY6Li6O+fPnU1JSYnc9wP79+5XvY2JiGDt2LAaDQbLgLZAAXAghhBCiE3X2Kihms5kePXpgMpnQaDS4urrS2NjYoT78/Pxslgt0pK2HJ1vro/m18iBm6+QhTCGEEN3q22+/la/38NfGmu+42zVlwDuPk5MTQ4cOJTw8nNGjR+PsbL8xlbizSAZcCCFEtxney8iAAQPw9/fHbDbL13vsq5+fHw/yNSdwvJHR3aIrdsL09fVl7ty5rW60I+4csg64EEKILmdZB3xk4zl++9LUTu9fpVLx/ffft7j8mkXPnj3p27dvhz++F51n3+kSVuqv39XrgJtLTvH757X09vbDWFWJ2rOvfL3Hvh4+XsD/HHNucR1weRslhBCi2xg8BndJv1euXOGPf/wjN27cwMXFBZVKhdlsVlaBUKlU1NXV4erqym9+8xs8PT27ZB6ibQ0V3wA+t3oaXSq7NoTs9Qbg3L+PVMrXe+5rDx7o23KpkATgQgghuo2m5htgWJvtOspgMNDY2MCrr/4/uLi4cO3aNXr06IGrqysmkwmVyonvvqtAp1tFTU2NBOC3kIv3YPi29U8qhLjbyUOYQgghuk1XZcBVKhW9evVi4MCB3Lhxg317/8nx4ye4ePES7u7uBAQMxt/fn549e9otz5aamkp0dDTR0dEkJCRgMBgAKCwsJDU11aZtTk6OsgFJTk6Ocl1sbKzN7n/R0dF2c0xNTVXalJaW2oxr6dO6jXVflmPW11gftz6Wnp6uXNvSPVgfMxgMbNy4Ubl+48aNymvQ2pxuVlMGXIh7m2TAhRBCdJuuyoCbTCZu3Kijrq6Ob775hn379tHbszeenr3x8IjGz8+PhoYGzGYzKpXK5tpjx44xffp0hg0bxu7du5k5cya7du3CYDBw7Ngxm7aXL1+2+T4wMJDZs2dz5MgRoqKilC29s7Oz7eZ47NgxpkyZAsC0adOIjY0lPj4eAH9/f7s2FtnZ2Uo767laX5ednc3+/fuVHQwHDhxIREREi/dgOWYwGJg5cyYhISHKGKtXr2bNmjXs2rWr1TndLMmACyEBuBBCiG7UVRlwd3d3goODcHZ2ZvTo0bz22i8ZMGAArj1cMRgMVFdX2wXe1oYNG4ZWq0Wr1ZKUlNTucQMCAtBqtfj7+zvcFbAl586dIyYmpt3trVnm2pzlWFRUlM0bhdZs376dkJAQm7nrdDolK2/Zmrwz3Qs14EK0RQJwIYQQ3aazM+D19fVUV1fj5ubGiBEjqa2txcvLi9Jepfxjxz/47rtKrly5wty5L+Hn59dqEA7YlVq0xXpr75UrV7b7utdee43o6Gji4+Ptgun4+Hi8vb1bvNb6vKOtvi9dusTo0T/swpidnW1TMlJQUMDw4cMByMrKIjY21q6PyZMntzuI7yjJgAshAbgQQohu1JkZcLPZzOeff86//vUvnn76ac6ePcuZM6eJioqisdHE9evXqa+vp76ujsbGxlaDb0tQm52dzaZNm9o9h4iICGbPnk1xcTH/+Z//yc6dO9vcbRAgOTmZ3NxcFi5cyPjx40lJSVG27F60aJFSYgL25R7Nz1tER0dTUVHBI488wpw5c5Tj48aNU8pLADZv3kxRUZHyc3dvFS4ZcCEkABdCCNGNOjMDXlNTw8GDB/H29sbJyYny8nIuXLjA008/Q0hIMCEhwdTUVPP91Sr69+9PdU21UgfenCWoXb16dYcCUksJilarJSMjg5KSknYF4AATJ07k+PHjJCQksGHDBqUkpaUSE4uWzsfHx7N7926uXr1qc9zb29um/ZEjR5QAPDAwkDNnztj1V11dzaBBg9p1Hx0lGXAhJAAXQgjRjTozA+7i4oKbmxuHDx+muLiYy5cv4+3tzYEDB/jyyyOoVCrlj9kMtbVGjEYjrq6udn05Cmr9/f3Jzs6msLCQkJAQDAYDOp2OtWvXOpxPRUXFTd3H+PHjlVVQfgzLG4Ho6Ghyc3OZOHFim9fMnj2bCRMm8NBDDxESEgI0leFkZGSwc+dOoClI37x5s/L6bNy4kcjISKBpNZf169cTFxdHbm4u0PTGIj09nenTpzt8M3K3Z8DdnJ2YHtTjVk9D3CZ6uTpecFACcCGEEN2mMzPgGo2GZ555hlOnTnHgwAGGDh3KrFmzCAgIoH///jYlJ5asd58+fdqdofbz82PZsmWEhoYSGRlJQUEBERERNoG6dQ1483PWddfNa7Wtz2VnZ5OXl9fu+7auAZ83b57dg5JpaWlMmzaNAwcOtNmXVqtl06ZNyj1WVFRw8OBBduzYobxOv/zlL5k2bRpffvmlUqZjmW9JSQlJSUnExcVRUFAANAXge/fuZezYsQ5f67s9A/7h7MBbPQVxB5Ct6IUQQnQ5y1b0Q3rV8c5PO3cZwr/97W9kZ2fzzDPP8NJLL+Hm5tZqe5PJZLMVfWFhIf7+/i2WnpSWllJSUoK/v79NQGk5Dk1vBiwZZAC9Xm/Th1artRnH+rx10O5oLnq9npCQEDQaDYWFhTZrdFvmpNfr7frx8PBAo9FQUlJiM7fS0lJqampsjhkMBuUB1JbKXyxzbn6+tLQUPz8/ZV4ajUY55sie/Yf587c+d+1W9EK0hwTgQgghupwlAB/ZeI7fvjS1U/veuXMnGRkZzJ8/n/Dw8E7tW3S+fadLWKm/LgG4uKfJTphCCCG6TWevA24ymRg0aBAjR45k4MCBndq36BqyE6YQUgMuhBCiG3X2OuAuLi6MGDGCwYMHd/tyeuLm3O014EK0h2TAhRBCdJuuyICbzWYJvu8gkgEXQgJwIYQQ3agpAy7uZS7enfsmTIg7kZSgCCGE6DadnQG3UKlUlJWVUVNT43DHS8syhB4eHgwYMICGhoYumYdo292+DrgQ7SEBuBBCiG7T2TXgFsXFxfzv//4vZrMZFxeXf2++Y8ZkMgFNAfr169cxmUz8/ve/V9bRFt1PasCFkABcCCFEN+qqDPiNGzfo168vv/jFL1ChoqqqCrVGjbu7OyaTCZVKxZUrFbz33ntcu3atS+Yg2kcy4EJIAC6EEKIbdVUGXKVS0aOHG3369OHMmbP8Pfvv9PfpT79+/XjkkYcJDAykvr6eHj0cbxGu1+vZvHkzRUVFBAYGMnv2bGXDmcLCQhITE5W2sbGxyjbvOTk5ZGRkKOemT5/Oc889pzwU2vy8ZefK1NRUjh07BjRt9Z6QkKBcYz0XgLfffttm05w7nWTAhZAAXAghRDfqqgy42WymoaEBk8lEdXU1//rXvzDWGvn++6sMH/6gUpJiNpvtasRzcnJ44YUX2LRpE7Nnz6a4uJgJEyawY8cOJk6ciMFgoKKigpSUFIqLi3n66ac5f/48fn5+XL58WQnYDQYD//jHP1i0aJHD89C0cyXAsWPHmD59OsOGDWP16tUkJyeTnJxMaWkpEyZMUOZifc3dQjLgQkgALoQQoht1VQZcrVYzevRonJycGDVqJP/1y//Eu583dXV1fFf5HVevXm3x2hdeeIG8vDwly6zVatm/fz8LFy7k+PHjAHh7e6PVatFqtURGRlJSUqJstR4QEKBkyy2Z8fXr1xMXF2d33tqwYcPQarUsXryYlJQUAEpKSoiMjCQiIqKTXpnbj2TAhZBlCIUQQnSjzs6A19XVUVxcjLOzMwEBAVRX1+Dp6YnRaES3ahV/WLaMtLTlnDp1CsAu+63X6xk3bpxdiYdWq+XcuXMOxywoKGh13fHZs2cr5SUAOp2O6OhooqOjKSwstGtfXFyMl5cXACEhIVRUVJCQkEBpaWn7XoQ7jKwDLoRkwIUQQnSjzsyANzY2sn37dr7//nuee+45CgoKOHr0KAsWLKBv336MHj2Kq1evUl5ajqenJ87OzsAPSxJatGdFlOzsbKKjo6moqOCNN97oUE12RESEw3KS+Ph4Zey0tDQANBoNu3btIj09naCgIJYtW0ZMTEy7x7oTSAZcCMmACyGE6EadmQE3GAwcP36c6upqrl+/Tnl5Ofn5+VRVVeHp6cnjj09i2rRpzIqaRd++famsrKSurs6mD39/f7Kzsx32bW3cuHFKwOzh4dHqvIqLiwkMDFR+tpSgaLVam8z5okWLmDdvHhUVFXYZ9ZiYGMrKytiyZQt6vb7dr8mdQDLgQkgGXAghRDfqzAx4jx49UKvV7Nu3TwnEAwMD2bNnD3v27MHJSYVK5aQ8gHn9elPW1c3NTenDz8+PyMhIEhISSE5OVo4nJyeTlJSk/GypAV+9ejXjx4/noYceUmrArRUWFio15W2x1IBfvnyZVatWKTXjFhqNhkceeYQzZ844rCG/U0kGXAgJwIUQQnSjzsyAq9VqZs2aRVFREYWFhTz44IO8/PLL3HfffWi1Wrt6b7PZjEajwdfX16YMZfXq1SxevJgxY8YwfPhwsrOzWbBgAQkJCXZjajQaVq5cyZIlS8jMzASaarz37t1LRUUF5eXl7Nixw6ZExXIeICwszC7QjomJYerUqUyZMgWNRqMseVhRUQHgcB53MlkFRQhQGY1Gc9vNhBBCiJt3xVjPku2XGdl4jt++NLVT+87Ozmbr1q389Kc/5fnnn8fFpfXckslksqsDh6bstcFgwN/f3ya7bTAYKCkpsQmq9Xo9ISEhyjloCs6b14aXlpYq563bFBYW4u/vr5SelJaWUlNTg7+/v/KgpqP+7gb7TpewUn+dt5/y50Gfnrd6OkLcEpIBF0II0W26Yh3wnj17YjKZ6NOnDyqVisbGxpvqp6Vg11EgbCkJ0Wg0DktRLPz8/Byeb96fdbu7qdzEEcmACyEPYQohhOhGTTXgnevBBx9k6tSp3H///Z3et+h8Lt5dsxmTEHcSyYALIYToNp2dAVepVAwePJjo6GhcXV07tW/RNSQDLoQE4EIIIbpT6deUlHvj6taThvobuLi6deLXmk7uT752xdeSOre2f0+EuMtJAC6EEKLbpJUPI211+a2ehril3Hh26K2egxC3ltSACyGEEEII0Y0kABdCCCGEEKIbSQAuhBBCCCFEN5IAXAghhBBCiG4kAbgQQgghhBDdSAJwIYQQQgghupEE4EIIIYQQQnQjWQdcCCFEl3N1dkKFielBPW71VMRtwUQvV9WtnoQQt4zKaDSab/UkhBBCCCGEuFdICYoQQgghhBDdSAJwIYQQQgghupEE4EIIIYQQQnQjCcCFEEIIIYToRhKACyGEEEII0Y0kABdCCCGEEKIbSQAuhBBCCCFEN5IAXAghhBBCiG4kAbgQQgghhBDdSAJwIYQQQgghupEE4EIIIYQQQnQjCcCFEEIIIYToRhKACyGEEEII0Y0kABdCCCGEEKIbSQAuhBBCCCFEN5IAXAghhBBCiG4kAbgQQgghhBDdSAJwIYQQQgghupEE4EIIIYQQQnQjCcCFEEIIIYToRhKACyGEEEII0Y0kABdCCCGEEKIbSQAuhBBCCCFEN5IAXAghhBBCiG4kAbgQQgghhBDdSAJwIYQQQgghupEE4EIIIYQQQnQjCcCFEEIIIYToRhKACyGEEEII0Y0kABdCCCGEEKIbSQAuhBBCCCFEN5IAXAghhBBCiG70/wOLdXBtdi4SUwAAAABJRU5ErkJggg==;" vertex="1" parent="1">
          <mxGeometry x="827" y="25.000000000000007" width="570" height="457.7" as="geometry" />
        </mxCell>
        <mxCell id="VDZsp3NHWQUmDOP8YFjI-5" value="Диаграмма последовательности&lt;br&gt;" style="text;html=1;strokeColor=none;fillColor=none;align=center;verticalAlign=middle;whiteSpace=wrap;rounded=0;" vertex="1" parent="1">
          <mxGeometry x="85" y="576" width="241" height="30" as="geometry" />
        </mxCell>
        <mxCell id="VDZsp3NHWQUmDOP8YFjI-18" style="edgeStyle=orthogonalEdgeStyle;rounded=0;orthogonalLoop=1;jettySize=auto;html=1;entryX=0;entryY=0.5;entryDx=0;entryDy=0;" edge="1" parent="1" source="VDZsp3NHWQUmDOP8YFjI-6" target="VDZsp3NHWQUmDOP8YFjI-7">
          <mxGeometry relative="1" as="geometry" />
        </mxCell>
        <mxCell id="VDZsp3NHWQUmDOP8YFjI-6" value="Пользователь" style="swimlane;whiteSpace=wrap;html=1;" vertex="1" parent="1">
          <mxGeometry x="116" y="612" width="200" height="200" as="geometry" />
        </mxCell>
        <mxCell id="VDZsp3NHWQUmDOP8YFjI-10" value="1.Ввести логин" style="text;html=1;strokeColor=none;fillColor=none;align=left;verticalAlign=middle;whiteSpace=wrap;rounded=0;" vertex="1" parent="VDZsp3NHWQUmDOP8YFjI-6">
          <mxGeometry x="6" y="36" width="124" height="30" as="geometry" />
        </mxCell>
        <mxCell id="VDZsp3NHWQUmDOP8YFjI-11" value="2.Ввести пароль" style="text;html=1;strokeColor=none;fillColor=none;align=left;verticalAlign=middle;whiteSpace=wrap;rounded=0;" vertex="1" parent="VDZsp3NHWQUmDOP8YFjI-6">
          <mxGeometry x="6.5" y="55" width="124" height="30" as="geometry" />
        </mxCell>
        <mxCell id="VDZsp3NHWQUmDOP8YFjI-12" value="3..Нажать &quot;Войти&quot;" style="text;html=1;strokeColor=none;fillColor=none;align=left;verticalAlign=middle;whiteSpace=wrap;rounded=0;" vertex="1" parent="VDZsp3NHWQUmDOP8YFjI-6">
          <mxGeometry x="6.5" y="72" width="124" height="30" as="geometry" />
        </mxCell>
        <mxCell id="VDZsp3NHWQUmDOP8YFjI-19" style="edgeStyle=orthogonalEdgeStyle;rounded=0;orthogonalLoop=1;jettySize=auto;html=1;entryX=0;entryY=0.5;entryDx=0;entryDy=0;" edge="1" parent="1" source="VDZsp3NHWQUmDOP8YFjI-7" target="VDZsp3NHWQUmDOP8YFjI-8">
          <mxGeometry relative="1" as="geometry" />
        </mxCell>
        <mxCell id="VDZsp3NHWQUmDOP8YFjI-7" value="Система" style="swimlane;whiteSpace=wrap;html=1;" vertex="1" parent="1">
          <mxGeometry x="362.5" y="612" width="200" height="200" as="geometry" />
        </mxCell>
        <mxCell id="VDZsp3NHWQUmDOP8YFjI-23" value="1.Сверить корректность данных&lt;br&gt;2. Получить данные о клиентах в Бд&lt;br&gt;3. Если данные совпали открыть окно &quot;Катиалог&quot;, если нет то вывести сообщение об ошибке" style="text;html=1;strokeColor=none;fillColor=none;align=left;verticalAlign=middle;whiteSpace=wrap;rounded=0;" vertex="1" parent="VDZsp3NHWQUmDOP8YFjI-7">
          <mxGeometry x="9.5" y="17.5" width="162.5" height="139" as="geometry" />
        </mxCell>
        <mxCell id="VDZsp3NHWQUmDOP8YFjI-22" style="edgeStyle=orthogonalEdgeStyle;rounded=0;orthogonalLoop=1;jettySize=auto;html=1;entryX=0;entryY=0.5;entryDx=0;entryDy=0;" edge="1" parent="1" source="VDZsp3NHWQUmDOP8YFjI-8" target="VDZsp3NHWQUmDOP8YFjI-9">
          <mxGeometry relative="1" as="geometry" />
        </mxCell>
        <mxCell id="VDZsp3NHWQUmDOP8YFjI-8" value="Пользователь" style="swimlane;whiteSpace=wrap;html=1;" vertex="1" parent="1">
          <mxGeometry x="604" y="612" width="200" height="200" as="geometry" />
        </mxCell>
        <mxCell id="VDZsp3NHWQUmDOP8YFjI-24" value="1.Просмотр каталога книг&lt;br&gt;2.Найти книгу &quot;Морфий&quot;&lt;br&gt;3.Нажать на заказать" style="text;html=1;strokeColor=none;fillColor=none;align=left;verticalAlign=middle;whiteSpace=wrap;rounded=0;" vertex="1" parent="VDZsp3NHWQUmDOP8YFjI-8">
          <mxGeometry x="7" y="-18.5" width="162.5" height="139" as="geometry" />
        </mxCell>
        <mxCell id="VDZsp3NHWQUmDOP8YFjI-9" value="Система" style="swimlane;whiteSpace=wrap;html=1;" vertex="1" parent="1">
          <mxGeometry x="850.5" y="612" width="200" height="200" as="geometry" />
        </mxCell>
        <mxCell id="VDZsp3NHWQUmDOP8YFjI-25" value="1.Вызвать процедуру поиска&lt;br&gt;2.Добавить заказ в корзину пользователя&lt;br&gt;3.Если заказ отменен вывести обратно книгу в каталог" style="text;html=1;strokeColor=none;fillColor=none;align=left;verticalAlign=middle;whiteSpace=wrap;rounded=0;" vertex="1" parent="VDZsp3NHWQUmDOP8YFjI-9">
          <mxGeometry x="9.5" y="4" width="162.5" height="139" as="geometry" />
        </mxCell>
        <mxCell id="VDZsp3NHWQUmDOP8YFjI-26" value="Диаграмма деятельности" style="text;html=1;strokeColor=none;fillColor=none;align=center;verticalAlign=middle;whiteSpace=wrap;rounded=0;" vertex="1" parent="1">
          <mxGeometry x="85" y="844" width="241" height="30" as="geometry" />
        </mxCell>
        <mxCell id="VDZsp3NHWQUmDOP8YFjI-35" style="edgeStyle=orthogonalEdgeStyle;rounded=0;orthogonalLoop=1;jettySize=auto;html=1;entryX=0.5;entryY=0;entryDx=0;entryDy=0;" edge="1" parent="1" source="VDZsp3NHWQUmDOP8YFjI-27" target="VDZsp3NHWQUmDOP8YFjI-29">
          <mxGeometry relative="1" as="geometry" />
        </mxCell>
        <mxCell id="VDZsp3NHWQUmDOP8YFjI-27" value="Начало" style="ellipse;whiteSpace=wrap;html=1;" vertex="1" parent="1">
          <mxGeometry x="848" y="1193" width="120" height="80" as="geometry" />
        </mxCell>
        <mxCell id="VDZsp3NHWQUmDOP8YFjI-28" value="Конец" style="ellipse;whiteSpace=wrap;html=1;" vertex="1" parent="1">
          <mxGeometry x="854" y="2091" width="120" height="80" as="geometry" />
        </mxCell>
        <mxCell id="VDZsp3NHWQUmDOP8YFjI-36" style="edgeStyle=orthogonalEdgeStyle;rounded=0;orthogonalLoop=1;jettySize=auto;html=1;" edge="1" parent="1" source="VDZsp3NHWQUmDOP8YFjI-29" target="VDZsp3NHWQUmDOP8YFjI-30">
          <mxGeometry relative="1" as="geometry" />
        </mxCell>
        <mxCell id="VDZsp3NHWQUmDOP8YFjI-29" value="Ввод логина&amp;nbsp;&lt;br&gt;и пароля" style="shape=parallelogram;perimeter=parallelogramPerimeter;whiteSpace=wrap;html=1;fixedSize=1;" vertex="1" parent="1">
          <mxGeometry x="848" y="1320" width="120" height="60" as="geometry" />
        </mxCell>
        <mxCell id="VDZsp3NHWQUmDOP8YFjI-37" style="edgeStyle=orthogonalEdgeStyle;rounded=0;orthogonalLoop=1;jettySize=auto;html=1;" edge="1" parent="1" source="VDZsp3NHWQUmDOP8YFjI-30" target="VDZsp3NHWQUmDOP8YFjI-31">
          <mxGeometry relative="1" as="geometry" />
        </mxCell>
        <mxCell id="VDZsp3NHWQUmDOP8YFjI-30" value="Нажать на кнопку &quot;Войти&quot;" style="rounded=0;whiteSpace=wrap;html=1;" vertex="1" parent="1">
          <mxGeometry x="848" y="1427" width="120" height="60" as="geometry" />
        </mxCell>
        <mxCell id="VDZsp3NHWQUmDOP8YFjI-33" style="edgeStyle=orthogonalEdgeStyle;rounded=0;orthogonalLoop=1;jettySize=auto;html=1;entryX=0.5;entryY=1;entryDx=0;entryDy=0;" edge="1" parent="1" source="VDZsp3NHWQUmDOP8YFjI-31" target="VDZsp3NHWQUmDOP8YFjI-32">
          <mxGeometry relative="1" as="geometry" />
        </mxCell>
        <mxCell id="VDZsp3NHWQUmDOP8YFjI-39" style="edgeStyle=orthogonalEdgeStyle;rounded=0;orthogonalLoop=1;jettySize=auto;html=1;" edge="1" parent="1" source="VDZsp3NHWQUmDOP8YFjI-31" target="VDZsp3NHWQUmDOP8YFjI-38">
          <mxGeometry relative="1" as="geometry" />
        </mxCell>
        <mxCell id="VDZsp3NHWQUmDOP8YFjI-31" value="Заполнены ли поля" style="rhombus;whiteSpace=wrap;html=1;" vertex="1" parent="1">
          <mxGeometry x="831.5" y="1535" width="153" height="113" as="geometry" />
        </mxCell>
        <mxCell id="VDZsp3NHWQUmDOP8YFjI-34" style="edgeStyle=orthogonalEdgeStyle;rounded=0;orthogonalLoop=1;jettySize=auto;html=1;entryX=1;entryY=0.5;entryDx=0;entryDy=0;" edge="1" parent="1" source="VDZsp3NHWQUmDOP8YFjI-32" target="VDZsp3NHWQUmDOP8YFjI-29">
          <mxGeometry relative="1" as="geometry">
            <Array as="points">
              <mxPoint x="1183" y="1348" />
              <mxPoint x="961" y="1348" />
              <mxPoint x="961" y="1350" />
            </Array>
          </mxGeometry>
        </mxCell>
        <mxCell id="VDZsp3NHWQUmDOP8YFjI-32" value="Вывод окна о пустых полях" style="rounded=0;whiteSpace=wrap;html=1;" vertex="1" parent="1">
          <mxGeometry x="1123" y="1427" width="120" height="60" as="geometry" />
        </mxCell>
        <mxCell id="VDZsp3NHWQUmDOP8YFjI-46" style="edgeStyle=orthogonalEdgeStyle;rounded=0;orthogonalLoop=1;jettySize=auto;html=1;" edge="1" parent="1" source="VDZsp3NHWQUmDOP8YFjI-38" target="VDZsp3NHWQUmDOP8YFjI-45">
          <mxGeometry relative="1" as="geometry" />
        </mxCell>
        <mxCell id="VDZsp3NHWQUmDOP8YFjI-55" style="edgeStyle=orthogonalEdgeStyle;rounded=0;orthogonalLoop=1;jettySize=auto;html=1;entryX=0.5;entryY=1;entryDx=0;entryDy=0;" edge="1" parent="1" source="VDZsp3NHWQUmDOP8YFjI-38" target="VDZsp3NHWQUmDOP8YFjI-53">
          <mxGeometry relative="1" as="geometry" />
        </mxCell>
        <mxCell id="VDZsp3NHWQUmDOP8YFjI-38" value="Есть ли такой логин в БД" style="rhombus;whiteSpace=wrap;html=1;" vertex="1" parent="1">
          <mxGeometry x="833.5" y="1704" width="149" height="85" as="geometry" />
        </mxCell>
        <mxCell id="VDZsp3NHWQUmDOP8YFjI-43" value="Нет" style="text;html=1;strokeColor=none;fillColor=none;align=center;verticalAlign=middle;whiteSpace=wrap;rounded=0;" vertex="1" parent="1">
          <mxGeometry x="994" y="1555" width="60" height="30" as="geometry" />
        </mxCell>
        <mxCell id="VDZsp3NHWQUmDOP8YFjI-44" value="Да" style="text;html=1;strokeColor=none;fillColor=none;align=center;verticalAlign=middle;whiteSpace=wrap;rounded=0;" vertex="1" parent="1">
          <mxGeometry x="920.5" y="1645" width="60" height="30" as="geometry" />
        </mxCell>
        <mxCell id="VDZsp3NHWQUmDOP8YFjI-49" style="edgeStyle=orthogonalEdgeStyle;rounded=0;orthogonalLoop=1;jettySize=auto;html=1;" edge="1" parent="1" source="VDZsp3NHWQUmDOP8YFjI-45" target="VDZsp3NHWQUmDOP8YFjI-48">
          <mxGeometry relative="1" as="geometry" />
        </mxCell>
        <mxCell id="VDZsp3NHWQUmDOP8YFjI-57" style="edgeStyle=orthogonalEdgeStyle;rounded=0;orthogonalLoop=1;jettySize=auto;html=1;entryX=0.5;entryY=1;entryDx=0;entryDy=0;" edge="1" parent="1" source="VDZsp3NHWQUmDOP8YFjI-45" target="VDZsp3NHWQUmDOP8YFjI-54">
          <mxGeometry relative="1" as="geometry" />
        </mxCell>
        <mxCell id="VDZsp3NHWQUmDOP8YFjI-45" value="Совпадает ли пароль" style="rhombus;whiteSpace=wrap;html=1;" vertex="1" parent="1">
          <mxGeometry x="833.5" y="1866" width="149" height="85" as="geometry" />
        </mxCell>
        <mxCell id="VDZsp3NHWQUmDOP8YFjI-47" value="Да" style="text;html=1;strokeColor=none;fillColor=none;align=center;verticalAlign=middle;whiteSpace=wrap;rounded=0;" vertex="1" parent="1">
          <mxGeometry x="914" y="1802" width="60" height="30" as="geometry" />
        </mxCell>
        <mxCell id="VDZsp3NHWQUmDOP8YFjI-50" style="edgeStyle=orthogonalEdgeStyle;rounded=0;orthogonalLoop=1;jettySize=auto;html=1;" edge="1" parent="1" source="VDZsp3NHWQUmDOP8YFjI-48" target="VDZsp3NHWQUmDOP8YFjI-28">
          <mxGeometry relative="1" as="geometry" />
        </mxCell>
        <mxCell id="VDZsp3NHWQUmDOP8YFjI-48" value="Открыто окно каталога" style="rounded=0;whiteSpace=wrap;html=1;" vertex="1" parent="1">
          <mxGeometry x="850.5" y="1991" width="120" height="60" as="geometry" />
        </mxCell>
        <mxCell id="VDZsp3NHWQUmDOP8YFjI-56" style="edgeStyle=orthogonalEdgeStyle;rounded=0;orthogonalLoop=1;jettySize=auto;html=1;exitX=0.5;exitY=0;exitDx=0;exitDy=0;entryX=0;entryY=0.5;entryDx=0;entryDy=0;" edge="1" parent="1" source="VDZsp3NHWQUmDOP8YFjI-53" target="VDZsp3NHWQUmDOP8YFjI-29">
          <mxGeometry relative="1" as="geometry">
            <Array as="points">
              <mxPoint x="660" y="1340" />
              <mxPoint x="861" y="1340" />
            </Array>
          </mxGeometry>
        </mxCell>
        <mxCell id="VDZsp3NHWQUmDOP8YFjI-53" value="Окно ошибки" style="rounded=0;whiteSpace=wrap;html=1;" vertex="1" parent="1">
          <mxGeometry x="599.5" y="1594" width="120" height="60" as="geometry" />
        </mxCell>
        <mxCell id="VDZsp3NHWQUmDOP8YFjI-58" style="edgeStyle=orthogonalEdgeStyle;rounded=0;orthogonalLoop=1;jettySize=auto;html=1;entryX=0.5;entryY=0;entryDx=0;entryDy=0;" edge="1" parent="1" source="VDZsp3NHWQUmDOP8YFjI-54" target="VDZsp3NHWQUmDOP8YFjI-29">
          <mxGeometry relative="1" as="geometry">
            <mxPoint x="907" y="1293" as="targetPoint" />
            <Array as="points">
              <mxPoint x="412" y="1310" />
              <mxPoint x="861" y="1310" />
              <mxPoint x="861" y="1309" />
              <mxPoint x="907" y="1309" />
              <mxPoint x="907" y="1320" />
            </Array>
          </mxGeometry>
        </mxCell>
        <mxCell id="VDZsp3NHWQUmDOP8YFjI-54" value="Окно ошибки" style="rounded=0;whiteSpace=wrap;html=1;" vertex="1" parent="1">
          <mxGeometry x="351.5" y="1601" width="120" height="60" as="geometry" />
        </mxCell>
        <mxCell id="VDZsp3NHWQUmDOP8YFjI-59" value="Нет" style="text;html=1;strokeColor=none;fillColor=none;align=center;verticalAlign=middle;whiteSpace=wrap;rounded=0;" vertex="1" parent="1">
          <mxGeometry x="763" y="1709" width="60" height="30" as="geometry" />
        </mxCell>
        <mxCell id="VDZsp3NHWQUmDOP8YFjI-60" value="Нет" style="text;html=1;strokeColor=none;fillColor=none;align=center;verticalAlign=middle;whiteSpace=wrap;rounded=0;" vertex="1" parent="1">
          <mxGeometry x="761" y="1883" width="60" height="30" as="geometry" />
        </mxCell>
      </root>
    </mxGraphModel>
  </diagram>
</mxfile>
